if (_typeface_js && _typeface_js.loadFace) _typeface_js.loadFace({"glyphs":{"⌐":{"x_min":68,"x_max":743,"ha":811,"o":"m 68 122 l 68 511 l 743 511 l 743 412 l 166 412 l 166 122 l 68 122 "},"♀":{"x_min":321.03125,"x_max":719.625,"ha":1042,"o":"m 496 392 q 428 413 458 397 q 374 457 397 428 q 326 584 326 511 q 382 723 326 667 q 446 767 412 752 q 521 782 480 782 q 657 723 601 782 q 716 584 716 667 q 667 455 716 510 q 546 392 618 400 l 546 279 l 719 279 l 719 232 l 546 232 l 546 54 l 496 54 l 496 232 l 321 232 l 321 279 l 496 279 l 496 392 m 519 725 q 421 685 463 725 q 391 640 402 664 q 381 586 381 615 q 391 533 381 557 q 421 487 402 508 q 519 446 463 446 q 618 487 578 446 q 660 586 660 529 q 649 640 660 615 q 620 685 639 664 q 519 725 578 725 "},"ǻ":{"x_min":59,"x_max":773,"ha":773,"o":"m 280 -14 q 114 44 170 -14 q 59 204 59 102 q 86 323 59 276 q 158 396 113 369 q 259 432 202 422 q 376 444 316 442 l 541 447 l 541 487 q 531 564 541 532 q 502 615 522 596 q 453 644 482 635 q 383 654 423 654 q 320 648 348 654 q 270 630 291 643 q 236 594 249 617 q 220 537 224 571 l 92 548 q 117 628 98 592 q 171 691 136 664 q 259 732 206 717 q 386 747 311 747 q 594 683 524 747 q 664 500 664 620 l 664 184 q 678 102 664 129 q 732 75 692 75 q 753 76 743 75 q 773 79 763 77 l 773 3 q 727 -4 749 -1 q 678 -7 704 -7 q 619 2 644 -7 q 578 30 594 11 q 555 76 563 48 q 545 140 547 103 l 541 140 q 497 76 521 105 q 443 27 474 47 q 372 -3 412 7 q 280 -14 332 -14 m 308 78 q 410 99 366 78 q 483 153 454 120 q 526 226 512 187 q 541 301 541 265 l 541 362 l 407 359 q 321 352 362 358 q 250 330 281 347 q 202 282 220 313 q 184 202 184 252 q 216 110 184 143 q 308 78 248 78 m 550 840 q 537 776 550 806 q 501 724 524 746 q 449 688 479 701 q 386 676 419 676 q 322 688 352 676 q 270 724 292 701 q 234 776 247 746 q 222 840 222 806 q 234 904 222 874 q 270 956 247 934 q 322 991 292 978 q 386 1004 352 1004 q 449 991 419 1004 q 501 956 479 978 q 537 904 524 934 q 550 840 550 874 m 477 840 q 469 875 477 859 q 450 904 462 892 q 421 923 438 916 q 386 931 405 931 q 350 923 366 931 q 321 904 333 916 q 302 875 309 892 q 295 840 295 859 q 302 803 295 820 q 321 774 309 787 q 350 754 333 761 q 386 747 366 747 q 421 754 405 747 q 450 774 438 761 q 469 803 462 787 q 477 840 477 820 m 290 1050 l 290 1063 l 437 1258 l 578 1258 l 578 1238 l 353 1050 l 290 1050 "},"Á":{"x_min":3,"x_max":923,"ha":926,"o":"m 790 0 l 681 280 l 247 280 l 137 0 l 3 0 l 392 956 l 539 956 l 923 0 l 790 0 m 520 696 q 500 751 509 723 q 482 801 490 779 q 470 839 475 824 q 464 858 465 854 q 458 839 463 854 q 445 800 453 823 q 428 749 438 777 q 408 694 418 722 l 286 381 l 643 381 l 520 696 m 371 1038 l 371 1051 l 518 1205 l 659 1205 l 659 1185 l 448 1038 l 371 1038 "},"ĥ":{"x_min":96,"x_max":683,"ha":773,"o":"m 214 608 q 258 671 235 645 q 311 714 282 697 q 373 739 339 731 q 449 747 407 747 q 565 728 520 747 q 637 674 610 709 q 673 593 663 640 q 683 488 683 545 l 683 0 l 560 0 l 560 465 q 554 547 560 511 q 532 605 548 582 q 485 641 515 629 q 408 653 455 653 q 329 637 364 653 q 270 593 294 621 q 231 524 245 564 q 218 432 218 483 l 218 0 l 96 0 l 96 1006 l 218 1006 l 218 744 q 217 699 218 722 q 215 658 216 677 q 213 626 214 639 q 212 608 213 612 l 214 608 m 614 1094 l 614 1081 l 542 1081 l 394 1175 l 392 1175 l 235 1081 l 165 1081 l 165 1094 l 323 1257 l 462 1257 l 614 1094 "},"Κ":{"x_min":114,"x_max":910.25,"ha":926,"o":"m 749 0 l 368 461 l 244 366 l 244 0 l 114 0 l 114 956 l 244 956 l 244 476 l 703 956 l 856 956 l 449 540 l 910 0 l 749 0 "},"»":{"x_min":56,"x_max":716,"ha":773,"o":"m 486 96 l 373 96 l 373 115 l 602 364 l 374 616 l 374 638 l 486 638 l 716 386 l 716 343 l 486 96 m 171 96 l 56 96 l 56 115 l 286 364 l 58 616 l 58 638 l 171 638 l 399 386 l 399 343 l 171 96 "},"∆":{"x_min":2.328125,"x_max":847,"ha":850,"o":"m 3 95 l 353 956 l 500 956 l 847 95 l 847 0 l 2 0 l 3 95 m 711 106 l 481 690 q 461 745 471 717 q 443 796 451 773 q 431 836 436 820 q 425 858 426 852 q 419 836 424 852 q 406 795 414 819 q 389 744 399 772 q 369 689 380 716 l 139 106 l 711 106 "},"♥":{"x_min":69,"x_max":756,"ha":825,"o":"m 413 -16 q 390 56 404 21 q 358 123 375 90 q 304 206 339 156 q 217 325 269 256 q 156 409 179 377 q 123 455 132 440 q 81 535 94 499 q 69 609 69 571 q 115 727 69 679 q 231 775 162 775 q 351 726 298 775 q 386 680 370 707 q 413 616 402 652 q 485 736 436 696 q 593 776 533 776 q 655 764 627 776 q 708 728 684 751 q 756 617 756 681 q 728 499 756 559 q 688 428 714 469 q 620 337 661 388 q 533 220 570 272 q 474 131 496 169 q 438 57 453 95 q 413 -16 424 20 "},"ў":{"x_min":2.75,"x_max":692.25,"ha":695,"o":"m 409 0 q 356 -119 383 -66 q 296 -210 330 -172 q 222 -268 263 -248 q 129 -288 182 -288 q 86 -286 106 -288 q 45 -280 66 -285 l 45 -188 q 74 -191 57 -190 q 102 -193 90 -193 q 201 -153 155 -193 q 282 -25 247 -113 l 294 3 l 2 734 l 132 734 l 287 328 q 305 279 294 310 q 326 218 315 248 q 344 163 336 187 q 354 132 353 139 q 364 162 356 140 q 382 211 372 184 q 402 266 391 238 q 419 314 412 294 l 563 734 l 692 734 l 409 0 m 355 814 q 231 833 279 814 q 156 883 184 852 q 118 953 129 914 q 106 1031 107 992 l 217 1031 q 256 928 221 961 q 355 896 291 896 q 453 928 418 896 q 493 1031 488 961 l 604 1031 q 591 953 602 992 q 553 883 580 914 q 478 833 525 852 q 355 814 430 814 "},"ţ":{"x_min":21.234375,"x_max":376,"ha":386,"o":"m 376 -171 q 365 -221 376 -199 q 333 -260 355 -244 q 276 -285 311 -277 q 190 -294 240 -294 q 161 -293 176 -294 q 129 -291 145 -293 l 129 -224 q 187 -229 162 -229 q 234 -224 215 -229 q 264 -213 253 -220 q 281 -196 276 -206 q 287 -174 287 -186 q 266 -135 287 -149 q 196 -122 245 -122 q 177 -122 187 -122 q 158 -123 167 -122 l 202 0 l 274 0 l 248 -68 q 344 -97 312 -70 q 376 -171 376 -124 m 376 5 q 319 -6 348 -2 q 252 -11 290 -11 q 106 155 106 -11 l 106 645 l 21 645 l 21 734 l 110 734 l 146 898 l 228 898 l 228 734 l 363 734 l 363 645 l 228 645 l 228 181 q 245 107 228 128 q 305 86 262 86 q 339 88 323 86 q 376 95 356 91 l 376 5 "},"«":{"x_min":56,"x_max":717,"ha":773,"o":"m 601 96 l 372 343 l 372 386 l 601 638 l 715 638 l 715 616 l 486 364 l 717 115 l 717 96 l 601 96 m 284 96 l 56 343 l 56 386 l 283 638 l 397 638 l 397 616 l 170 364 l 399 115 l 399 96 l 284 96 "},"í":{"x_min":92,"x_max":380,"ha":386,"o":"m 132 0 l 132 734 l 254 734 l 254 0 l 132 0 m 92 815 l 92 828 l 239 1023 l 380 1023 l 380 1003 l 155 815 l 92 815 "},"◦":{"x_min":78,"x_max":414,"ha":492,"o":"m 414 432 q 401 366 414 396 q 363 312 388 337 q 309 276 338 289 q 246 264 280 264 q 126 312 177 264 q 90 366 103 337 q 78 432 78 396 q 126 549 78 501 q 246 600 176 600 q 363 549 315 600 q 414 432 414 501 m 362 432 q 327 513 362 479 q 246 548 293 548 q 164 513 198 548 q 130 432 130 479 q 164 349 130 385 q 246 316 197 316 q 327 349 294 316 q 362 432 362 385 "},"ņ":{"x_min":94.921875,"x_max":686,"ha":773,"o":"m 563 0 l 563 465 q 555 554 563 518 q 529 612 547 590 q 483 643 512 634 q 411 653 454 653 q 332 637 367 653 q 273 593 297 622 q 234 522 248 564 q 221 425 221 480 l 221 0 l 99 0 l 99 577 q 98 625 99 600 q 97 673 98 651 q 96 712 96 696 q 94 734 95 729 l 210 734 q 211 715 210 730 q 213 681 212 700 q 214 641 214 661 q 215 608 215 621 l 217 608 q 256 665 235 640 q 305 709 277 691 q 369 737 333 727 q 452 747 405 747 q 558 732 514 747 q 630 685 602 717 q 672 605 659 654 q 686 488 686 556 l 686 0 l 563 0 m 458 -130 q 443 -225 458 -189 q 401 -294 428 -262 l 321 -294 q 368 -232 352 -261 q 385 -172 385 -203 l 326 -172 l 326 -66 l 458 -66 l 458 -130 "},"µ":{"x_min":95,"x_max":769,"ha":800,"o":"m 95 -288 l 95 734 l 218 734 l 218 268 q 228 179 218 215 q 259 121 239 143 q 307 89 279 99 q 371 80 335 80 q 507 139 458 80 q 557 308 557 198 l 557 734 l 679 734 l 679 180 q 682 131 679 150 q 693 101 686 112 q 710 86 700 90 q 732 82 719 82 q 750 83 739 82 q 769 87 761 85 l 769 0 q 734 -9 751 -5 q 692 -14 716 -14 q 631 -3 655 -14 q 592 23 607 6 q 570 65 577 41 q 562 117 563 89 l 560 117 q 475 19 525 53 q 357 -14 425 -14 q 275 0 312 -14 q 217 39 238 13 l 217 -288 l 95 -288 "},"ỳ":{"x_min":2.75,"x_max":692.25,"ha":695,"o":"m 409 0 q 356 -119 383 -66 q 296 -210 330 -172 q 222 -268 263 -248 q 129 -288 182 -288 q 86 -286 106 -288 q 45 -280 66 -285 l 45 -188 q 74 -191 57 -190 q 102 -193 90 -193 q 201 -153 155 -193 q 282 -25 247 -113 l 294 3 l 2 734 l 132 734 l 287 328 q 305 279 294 310 q 326 218 315 248 q 344 163 336 187 q 354 132 353 139 q 364 162 356 140 q 382 211 372 184 q 402 266 391 238 q 419 314 412 294 l 563 734 l 692 734 l 409 0 m 367 815 l 143 1003 l 143 1023 l 283 1023 l 431 828 l 431 815 l 367 815 "},"Ι":{"x_min":128,"x_max":258,"ha":386,"o":"m 128 0 l 128 956 l 258 956 l 258 0 l 128 0 "},"Ύ":{"x_min":44,"x_max":1158,"ha":1188,"o":"m 789 396 l 789 0 l 660 0 l 660 396 l 292 956 l 434 956 l 725 500 l 1015 956 l 1158 956 l 789 396 m 44 736 l 44 758 l 90 956 l 231 956 l 231 930 l 94 736 l 44 736 "},"ѕ":{"x_min":39,"x_max":645,"ha":695,"o":"m 645 202 q 624 110 645 150 q 566 42 604 70 q 473 0 528 15 q 347 -14 418 -14 q 232 -4 283 -14 q 142 27 180 5 q 77 84 103 49 q 39 171 51 120 l 147 193 q 211 106 162 133 q 347 79 260 79 q 419 84 386 79 q 475 103 452 89 q 512 138 499 116 q 526 192 526 160 q 510 247 526 226 q 466 283 494 268 q 399 307 439 297 q 312 331 359 318 q 224 357 268 342 q 146 394 181 371 q 89 452 111 418 q 68 539 68 487 q 139 692 68 639 q 348 745 211 745 q 541 702 469 745 q 632 565 613 659 l 522 552 q 499 599 515 580 q 460 630 483 619 q 408 647 437 642 q 348 653 379 653 q 226 627 265 653 q 187 551 187 602 q 201 502 187 521 q 242 469 216 483 q 305 446 268 456 q 385 426 341 437 q 445 410 414 418 q 504 389 476 401 q 559 362 533 378 q 603 323 584 346 q 633 271 622 301 q 645 202 645 241 "},"Ш":{"x_min":114,"x_max":1159,"ha":1273,"o":"m 114 0 l 114 956 l 244 956 l 244 109 l 575 109 l 575 956 l 701 956 l 701 109 l 1033 109 l 1033 956 l 1159 956 l 1159 0 l 114 0 "},"M":{"x_min":114,"x_max":1043,"ha":1157,"o":"m 926 0 l 926 637 q 926 708 926 672 q 928 774 927 744 q 932 841 930 808 q 912 772 922 806 q 893 710 903 743 q 872 651 882 677 l 625 0 l 534 0 l 284 651 q 276 675 280 661 q 266 703 271 688 q 256 735 261 719 q 246 766 251 751 q 224 841 235 802 q 226 766 224 803 q 228 699 227 734 q 229 637 229 664 l 229 0 l 114 0 l 114 956 l 283 956 l 538 293 q 549 258 543 279 q 562 214 556 236 q 573 171 568 191 q 581 141 578 151 q 588 172 583 151 q 600 215 593 192 q 614 258 608 237 q 627 293 621 279 l 876 956 l 1043 956 l 1043 0 l 926 0 "},"╗":{"x_min":-6.78125,"x_max":663,"ha":984,"o":"m 663 593 l 663 -421 l 565 -421 l 565 495 l -6 495 l -6 593 l 663 593 m 419 -421 l 321 -421 l 321 251 l -6 251 l -6 349 l 419 349 l 419 -421 "},"Ψ":{"x_min":98,"x_max":1061,"ha":1160,"o":"m 517 0 l 517 289 l 460 289 q 302 317 370 289 q 188 394 234 346 q 120 506 143 442 q 98 641 98 570 l 98 956 l 228 956 l 228 638 q 243 538 228 584 q 291 457 259 491 q 369 404 322 423 q 479 385 416 385 l 517 385 l 517 956 l 642 956 l 642 385 l 679 385 q 791 404 744 385 q 869 457 838 423 q 915 538 900 491 q 931 638 931 584 l 931 956 l 1061 956 l 1061 641 q 1037 506 1061 570 q 969 394 1014 442 q 855 317 924 346 q 698 289 787 289 l 642 289 l 642 0 l 517 0 "},"ũ":{"x_min":90,"x_max":681.0625,"ha":773,"o":"m 213 734 l 213 268 q 220 178 213 214 q 246 120 228 142 q 292 89 264 98 q 364 80 321 80 q 443 95 408 80 q 502 139 478 110 q 541 210 527 168 q 555 308 555 253 l 555 734 l 677 734 l 677 156 q 677 108 677 133 q 678 60 677 82 q 679 21 679 37 q 681 0 680 4 l 565 0 q 564 18 565 3 q 562 52 563 33 q 561 91 561 71 q 560 124 560 111 l 558 124 q 519 67 540 92 q 470 23 498 41 q 406 -4 442 5 q 323 -14 370 -14 q 217 0 261 -14 q 145 47 173 15 q 103 127 116 78 q 90 244 90 176 l 90 734 l 213 734 m 501 815 q 444 827 472 815 q 389 855 415 840 q 338 883 362 870 q 293 896 314 896 q 238 874 256 896 q 213 815 219 853 l 152 815 q 162 877 155 845 q 184 936 168 910 q 224 980 199 963 q 289 997 249 997 q 347 984 319 997 q 402 956 376 971 q 452 928 429 941 q 496 916 476 916 q 551 937 532 916 q 575 997 570 958 l 638 997 q 627 934 634 967 q 606 876 621 902 q 566 832 591 849 q 501 815 541 815 "},"ŭ":{"x_min":90,"x_max":681.0625,"ha":773,"o":"m 213 734 l 213 268 q 220 178 213 214 q 246 120 228 142 q 292 89 264 98 q 364 80 321 80 q 443 95 408 80 q 502 139 478 110 q 541 210 527 168 q 555 308 555 253 l 555 734 l 677 734 l 677 156 q 677 108 677 133 q 678 60 677 82 q 679 21 679 37 q 681 0 680 4 l 565 0 q 564 18 565 3 q 562 52 563 33 q 561 91 561 71 q 560 124 560 111 l 558 124 q 519 67 540 92 q 470 23 498 41 q 406 -4 442 5 q 323 -14 370 -14 q 217 0 261 -14 q 145 47 173 15 q 103 127 116 78 q 90 244 90 176 l 90 734 l 213 734 m 383 815 q 293 832 333 815 q 225 878 254 849 q 180 945 197 907 q 158 1025 163 983 l 237 1025 q 256 975 242 995 q 288 943 269 955 q 331 926 307 931 q 384 921 356 921 q 437 926 413 921 q 480 944 461 931 q 512 976 499 956 q 530 1025 525 996 l 610 1025 q 586 945 603 983 q 541 878 569 907 q 474 832 513 849 q 383 815 434 815 "},"―":{"x_min":0,"x_max":1389,"ha":1389,"o":"m 0 306 l 0 399 l 1389 399 l 1389 306 l 0 306 "},"{":{"x_min":23.1875,"x_max":440,"ha":464,"o":"m 348 -288 q 270 -274 304 -288 q 214 -234 236 -260 q 180 -172 192 -208 q 169 -89 169 -135 l 169 155 q 159 227 169 198 q 130 276 149 257 q 84 305 112 295 q 23 316 57 314 l 23 402 q 84 412 57 403 q 130 441 112 422 q 159 490 149 460 q 169 561 169 519 l 169 807 q 214 954 169 902 q 348 1006 259 1006 l 440 1006 l 440 919 l 397 919 q 309 882 335 919 q 283 773 283 846 l 283 531 q 272 469 283 497 q 245 419 262 440 q 203 382 227 397 q 151 360 179 367 l 151 359 q 204 337 180 352 q 246 300 228 322 q 273 250 263 278 q 283 187 283 221 l 283 -55 q 309 -164 283 -127 q 397 -201 335 -201 l 440 -201 l 440 -288 l 348 -288 "},"¼":{"x_min":38,"x_max":1095.28125,"ha":1158,"o":"m 38 382 l 38 455 l 181 455 l 181 875 l 44 782 l 44 863 l 186 956 l 270 956 l 270 455 l 416 455 l 416 382 l 38 382 m 334 0 l 233 0 l 831 956 l 930 956 l 334 0 m 1020 122 l 1020 2 l 931 2 l 931 122 l 656 122 l 656 197 l 917 576 l 1020 576 l 1020 199 l 1095 199 l 1095 122 l 1020 122 m 932 485 q 920 464 927 476 q 904 438 912 451 q 889 413 896 425 q 876 394 881 401 l 742 199 l 931 199 l 931 395 q 931 417 931 404 q 931 443 931 430 q 931 468 931 456 q 932 485 931 479 "},"▄":{"x_min":0,"x_max":984,"ha":984,"o":"m 984 -421 l 0 -421 l 0 421 l 984 421 l 984 -421 "},"ι":{"x_min":93,"x_max":269.25,"ha":309,"o":"m 135 0 q 116 28 124 10 q 103 68 108 46 q 95 113 98 90 q 93 160 93 137 l 93 734 l 215 734 l 215 153 q 218 110 215 132 q 229 68 222 88 q 246 30 236 48 q 269 0 257 12 l 135 0 "},"Ĳ":{"x_min":115,"x_max":918,"ha":1021,"o":"m 115 0 l 115 956 l 245 956 l 245 0 l 115 0 m 636 -14 q 446 46 520 -14 q 348 236 371 106 l 474 258 q 497 182 481 213 q 534 130 512 150 q 582 100 556 110 q 637 91 609 91 q 748 139 707 91 q 789 281 789 188 l 789 850 l 605 850 l 605 956 l 918 956 l 918 284 q 899 161 918 216 q 843 67 880 106 q 755 7 807 28 q 636 -14 702 -14 "},"Ê":{"x_min":114,"x_max":866,"ha":926,"o":"m 114 0 l 114 956 l 838 956 l 838 850 l 244 850 l 244 544 l 798 544 l 798 440 l 244 440 l 244 106 l 866 106 l 866 0 l 114 0 m 703 1051 l 703 1038 l 631 1038 l 483 1132 l 481 1132 l 324 1038 l 254 1038 l 254 1051 l 412 1214 l 551 1214 l 703 1051 "},"Ά":{"x_min":3,"x_max":923,"ha":927,"o":"m 790 0 l 681 280 l 247 280 l 137 0 l 3 0 l 392 956 l 539 956 l 923 0 l 790 0 m 520 696 q 500 751 509 723 q 482 801 490 779 q 470 839 475 824 q 464 858 465 854 q 458 839 463 854 q 445 800 453 823 q 428 749 438 777 q 408 694 418 722 l 286 381 l 643 381 l 520 696 m 39 736 l 39 758 l 85 956 l 226 956 l 226 930 l 89 736 l 39 736 "},")":{"x_min":8.75,"x_max":377,"ha":463,"o":"m 377 357 q 362 176 377 262 q 318 11 348 91 q 240 -142 287 -67 q 126 -288 192 -216 l 8 -288 q 118 -142 72 -216 q 195 12 165 -67 q 239 178 224 92 q 254 359 254 264 q 239 539 254 453 q 195 705 224 625 q 118 859 165 784 q 8 1006 72 934 l 126 1006 q 240 860 192 934 q 318 706 287 785 q 362 540 348 626 q 377 360 377 454 l 377 357 "},"ε":{"x_min":47,"x_max":593,"ha":619,"o":"m 309 77 q 378 87 345 77 q 437 114 411 98 q 486 149 464 130 q 521 186 507 168 l 593 118 q 542 67 571 91 q 478 25 514 43 q 398 -3 442 7 q 300 -14 353 -14 q 187 1 235 -14 q 108 45 140 17 q 62 113 77 74 q 47 199 47 152 q 61 271 47 238 q 99 326 75 303 q 156 364 124 350 q 226 381 189 378 l 226 383 q 162 400 191 387 q 112 436 133 414 q 80 487 92 457 q 69 550 69 516 q 86 628 69 592 q 135 691 103 664 q 213 732 167 717 q 319 747 260 747 q 464 717 399 747 q 575 621 529 688 l 487 561 q 413 632 455 609 q 319 656 370 656 q 224 627 257 656 q 192 548 192 598 q 210 485 192 509 q 262 449 229 462 q 340 433 295 437 q 436 429 384 429 l 436 337 q 339 333 387 337 q 255 316 292 329 q 196 275 218 302 q 174 201 174 248 q 183 147 174 171 q 211 108 193 124 q 254 85 229 93 q 309 77 279 77 "},"э":{"x_min":37,"x_max":650,"ha":709,"o":"m 37 212 l 160 221 q 216 113 170 148 q 329 78 261 78 q 414 95 379 78 q 472 146 449 113 q 507 225 495 179 q 522 327 518 271 l 241 327 l 241 416 l 522 416 q 507 521 519 476 q 473 596 496 566 q 415 641 450 626 q 330 656 380 656 q 216 620 256 656 q 166 523 176 584 l 41 532 q 72 618 49 578 q 130 685 94 657 q 215 730 165 714 q 327 747 264 747 q 446 729 388 747 q 549 667 504 711 q 622 550 595 624 q 650 367 650 477 q 632 216 650 285 q 576 95 615 146 q 476 15 537 44 q 326 -14 414 -14 q 207 4 258 -14 q 120 53 156 22 q 63 126 84 84 q 37 212 43 167 "},"ш":{"x_min":96,"x_max":1018,"ha":1114,"o":"m 96 0 l 96 734 l 218 734 l 218 89 l 496 89 l 496 734 l 618 734 l 618 89 l 896 89 l 896 734 l 1018 734 l 1018 0 l 96 0 "},"Я":{"x_min":65,"x_max":890,"ha":1003,"o":"m 65 0 l 336 411 q 230 449 274 422 q 157 512 186 475 q 116 593 129 548 q 103 682 103 637 q 125 797 103 746 q 190 883 147 848 q 296 937 233 918 q 440 956 358 956 l 890 956 l 890 0 l 760 0 l 760 397 l 462 397 l 214 0 l 65 0 m 233 680 q 245 608 233 642 q 284 551 258 575 q 350 512 310 526 q 447 499 391 499 l 760 499 l 760 852 l 452 852 q 360 841 401 852 q 291 809 319 830 q 247 756 262 788 q 233 680 233 724 "},"a":{"x_min":59,"x_max":773,"ha":773,"o":"m 280 -14 q 114 44 170 -14 q 59 204 59 102 q 86 323 59 276 q 158 396 113 369 q 259 432 202 422 q 376 444 316 442 l 541 447 l 541 487 q 531 564 541 532 q 502 615 522 596 q 453 644 482 635 q 383 654 423 654 q 320 648 348 654 q 270 630 291 643 q 236 594 249 617 q 220 537 224 571 l 92 548 q 117 628 98 592 q 171 691 136 664 q 259 732 206 717 q 386 747 311 747 q 594 683 524 747 q 664 500 664 620 l 664 184 q 678 102 664 129 q 732 75 692 75 q 753 76 743 75 q 773 79 763 77 l 773 3 q 727 -4 749 -1 q 678 -7 704 -7 q 619 2 644 -7 q 578 30 594 11 q 555 76 563 48 q 545 140 547 103 l 541 140 q 497 76 521 105 q 443 27 474 47 q 372 -3 412 7 q 280 -14 332 -14 m 308 78 q 410 99 366 78 q 483 153 454 120 q 526 226 512 187 q 541 301 541 265 l 541 362 l 407 359 q 321 352 362 358 q 250 330 281 347 q 202 282 220 313 q 184 202 184 252 q 216 110 184 143 q 308 78 248 78 "},"Ę":{"x_min":114,"x_max":866,"ha":926,"o":"m 114 0 l 114 956 l 838 956 l 838 850 l 244 850 l 244 544 l 798 544 l 798 440 l 244 440 l 244 106 l 866 106 l 866 0 l 114 0 m 865 -271 q 822 -284 846 -279 q 770 -290 797 -290 q 663 -255 699 -290 q 628 -163 628 -220 q 639 -104 628 -131 q 667 -56 651 -77 q 701 -21 683 -36 q 733 0 719 -7 l 823 0 q 789 -24 806 -9 q 756 -60 771 -40 q 733 -103 742 -80 q 724 -153 724 -127 q 740 -198 724 -182 q 787 -215 757 -215 q 826 -210 806 -215 q 865 -198 846 -206 l 865 -271 "},"Z":{"x_min":44,"x_max":804.875,"ha":848,"o":"m 804 0 l 44 0 l 44 97 l 625 850 l 93 850 l 93 956 l 773 956 l 773 861 l 191 106 l 804 106 l 804 0 "},"k":{"x_min":94,"x_max":697.25,"ha":695,"o":"m 554 0 l 305 335 l 216 261 l 216 0 l 94 0 l 94 1006 l 216 1006 l 216 377 l 539 734 l 682 734 l 383 418 l 697 0 l 554 0 "},"Ù":{"x_min":107,"x_max":896,"ha":1003,"o":"m 495 -14 q 346 7 417 -14 q 222 72 275 28 q 138 185 169 117 q 107 347 107 253 l 107 956 l 237 956 l 237 357 q 256 234 237 285 q 310 152 275 184 q 391 105 344 120 q 495 91 438 91 q 600 105 550 91 q 687 153 649 120 q 745 238 724 186 q 767 366 767 291 l 767 956 l 896 956 l 896 359 q 864 193 896 263 q 778 76 832 123 q 651 8 724 30 q 495 -14 578 -14 m 551 1038 l 341 1185 l 341 1205 l 481 1205 l 629 1051 l 629 1038 l 551 1038 "},"Ů":{"x_min":107,"x_max":896,"ha":1003,"o":"m 495 -14 q 346 7 417 -14 q 222 72 275 28 q 138 185 169 117 q 107 347 107 253 l 107 956 l 237 956 l 237 357 q 256 234 237 285 q 310 152 275 184 q 391 105 344 120 q 495 91 438 91 q 600 105 550 91 q 687 153 649 120 q 745 238 724 186 q 767 366 767 291 l 767 956 l 896 956 l 896 359 q 864 193 896 263 q 778 76 832 123 q 651 8 724 30 q 495 -14 578 -14 m 666 1094 q 653 1030 666 1060 q 617 978 640 1000 q 565 942 595 955 q 502 930 535 930 q 438 942 468 930 q 386 978 408 955 q 350 1030 363 1000 q 338 1094 338 1060 q 350 1158 338 1128 q 386 1210 363 1188 q 438 1245 408 1232 q 502 1258 468 1258 q 565 1245 535 1258 q 617 1210 595 1232 q 653 1158 640 1188 q 666 1094 666 1128 m 593 1094 q 585 1129 593 1113 q 566 1158 578 1146 q 537 1177 554 1170 q 502 1185 521 1185 q 466 1177 482 1185 q 437 1158 449 1170 q 418 1129 425 1146 q 411 1094 411 1113 q 418 1057 411 1074 q 437 1028 425 1041 q 466 1008 449 1015 q 502 1001 482 1001 q 537 1008 521 1001 q 566 1028 554 1015 q 585 1057 578 1041 q 593 1094 593 1074 "},"¢":{"x_min":92,"x_max":691,"ha":773,"o":"m 366 191 l 366 754 q 228 599 253 737 q 220 479 220 546 q 228 359 220 412 q 366 191 254 211 m 450 192 q 568 331 551 215 l 691 323 q 548 119 672 180 q 450 93 506 98 l 450 -20 l 366 -20 l 366 93 q 153 212 222 105 q 92 472 92 309 q 174 757 92 660 q 366 850 243 839 l 366 956 l 450 956 l 450 850 q 660 713 600 834 q 686 633 678 675 l 561 623 q 520 714 552 684 q 450 751 488 743 l 450 192 "},"В":{"x_min":114,"x_max":853,"ha":926,"o":"m 853 269 q 824 145 853 196 q 747 62 796 94 q 636 14 699 29 q 501 0 572 0 l 114 0 l 114 956 l 460 956 q 602 942 540 956 q 708 901 664 929 q 774 828 751 872 q 797 724 797 785 q 785 648 797 684 q 751 584 774 613 q 695 535 729 556 q 615 504 660 514 q 717 478 673 497 q 791 427 762 458 q 837 356 821 397 q 853 269 853 316 m 667 708 q 614 818 667 785 q 461 852 561 852 l 244 852 l 244 550 l 461 550 q 557 561 518 550 q 620 593 596 572 q 656 642 645 613 q 667 708 667 671 m 722 279 q 705 357 722 325 q 657 409 688 389 q 582 439 626 429 q 485 449 539 449 l 244 449 l 244 104 l 495 104 q 586 112 544 104 q 658 140 627 120 q 705 195 688 161 q 722 279 722 228 "},"І":{"x_min":128,"x_max":258,"ha":386,"o":"m 128 0 l 128 956 l 258 956 l 258 0 l 128 0 "},"ē":{"x_min":59,"x_max":711,"ha":773,"o":"m 187 341 q 198 234 187 283 q 235 151 210 186 q 298 97 260 116 q 391 78 337 78 q 519 109 471 78 q 584 191 567 141 l 691 160 q 658 98 679 129 q 603 42 638 67 q 517 2 568 18 q 391 -14 465 -14 q 144 82 229 -14 q 59 371 59 179 q 84 545 59 474 q 155 662 110 617 q 259 726 200 706 q 387 747 319 747 q 541 717 479 747 q 641 634 603 687 q 695 511 679 582 q 711 357 711 439 l 711 341 l 187 341 m 585 435 q 525 603 574 550 q 385 657 477 657 q 321 647 354 657 q 258 612 287 637 q 210 544 230 587 q 188 435 191 501 l 585 435 m 573 838 l 201 838 l 201 924 l 573 924 l 573 838 "},"β":{"x_min":96,"x_max":744,"ha":799,"o":"m 744 274 q 726 161 744 214 q 670 70 708 109 q 573 8 632 30 q 433 -14 515 -14 q 310 4 364 -14 q 218 49 256 23 l 213 49 q 216 -19 215 11 q 218 -86 218 -51 l 218 -288 l 96 -288 l 96 696 q 173 931 96 856 q 403 1006 250 1006 q 522 990 470 1006 q 608 943 573 974 q 661 869 643 913 q 679 769 679 825 q 667 682 679 720 q 634 617 655 644 q 586 570 613 589 q 527 539 559 551 q 605 513 566 531 q 674 462 644 494 q 724 384 705 431 q 744 274 744 338 m 218 138 q 261 113 236 125 q 312 93 285 102 q 369 80 340 85 q 428 76 399 76 q 514 89 477 76 q 576 129 551 103 q 614 191 601 155 q 627 272 627 227 q 614 353 627 316 q 573 418 601 391 q 502 461 546 446 q 399 477 459 477 l 399 573 q 523 638 485 591 q 562 767 562 685 q 552 823 562 797 q 524 869 543 849 q 475 899 505 888 q 405 910 445 910 q 322 898 357 910 q 264 860 287 886 q 229 792 241 834 q 218 691 218 751 l 218 138 "},"≠":{"x_min":44,"x_max":719,"ha":762,"o":"m 304 234 l 200 37 l 102 37 l 205 234 l 44 234 l 44 334 l 254 334 l 383 581 l 44 581 l 44 681 l 432 681 l 537 879 l 634 879 l 531 681 l 719 681 l 719 581 l 481 581 l 351 334 l 719 334 l 719 234 l 304 234 "},"‼":{"x_min":125,"x_max":568,"ha":695,"o":"m 242 269 l 142 269 l 126 956 l 259 956 l 242 269 m 125 0 l 125 136 l 257 136 l 257 0 l 125 0 m 551 269 l 451 269 l 435 956 l 568 956 l 551 269 m 434 0 l 434 136 l 566 136 l 566 0 l 434 0 "},"¥":{"x_min":-1,"x_max":775,"ha":773,"o":"m 489 481 l 706 481 l 706 396 l 447 396 l 447 292 l 706 292 l 706 206 l 447 206 l 447 0 l 326 0 l 326 206 l 67 206 l 67 292 l 326 292 l 327 396 l 67 396 l 67 481 l 284 481 l -1 956 l 133 956 l 385 516 l 640 956 l 775 956 l 489 481 "},"Ĥ":{"x_min":114,"x_max":890,"ha":1003,"o":"m 760 0 l 760 443 l 244 443 l 244 0 l 114 0 l 114 956 l 244 956 l 244 552 l 760 552 l 760 956 l 890 956 l 890 0 l 760 0 m 727 1051 l 727 1038 l 655 1038 l 507 1132 l 505 1132 l 348 1038 l 278 1038 l 278 1051 l 436 1214 l 575 1214 l 727 1051 "},"U":{"x_min":107,"x_max":896,"ha":1003,"o":"m 495 -14 q 346 7 417 -14 q 222 72 275 28 q 138 185 169 117 q 107 347 107 253 l 107 956 l 237 956 l 237 357 q 256 234 237 285 q 310 152 275 184 q 391 105 344 120 q 495 91 438 91 q 600 105 550 91 q 687 153 649 120 q 745 238 724 186 q 767 366 767 291 l 767 956 l 896 956 l 896 359 q 864 193 896 263 q 778 76 832 123 q 651 8 724 30 q 495 -14 578 -14 "},"Ñ":{"x_min":114,"x_max":890,"ha":1003,"o":"m 733 0 l 222 814 q 225 748 223 781 q 227 689 226 720 q 229 635 229 658 l 229 0 l 114 0 l 114 956 l 264 956 l 781 136 q 777 202 779 169 q 774 264 775 231 q 773 329 773 298 l 773 956 l 890 956 l 890 0 l 733 0 m 616 1038 q 559 1050 587 1038 q 504 1078 530 1063 q 453 1106 477 1093 q 408 1119 429 1119 q 353 1097 371 1119 q 328 1038 334 1076 l 267 1038 q 277 1100 270 1068 q 299 1159 283 1133 q 339 1203 314 1186 q 404 1220 364 1220 q 462 1207 434 1220 q 517 1179 491 1194 q 567 1151 544 1164 q 611 1139 591 1139 q 666 1160 647 1139 q 690 1220 685 1181 l 753 1220 q 742 1157 749 1190 q 721 1099 736 1125 q 681 1055 706 1072 q 616 1038 656 1038 "},"F":{"x_min":114,"x_max":792,"ha":848,"o":"m 244 850 l 244 495 l 776 495 l 776 388 l 244 388 l 244 0 l 114 0 l 114 956 l 792 956 l 792 850 l 244 850 "},"╤":{"x_min":-6.78125,"x_max":990.796875,"ha":984,"o":"m -6 251 l -6 349 l 990 349 l 990 251 l 541 251 l 541 -421 l 443 -421 l 443 251 l -6 251 m -6 495 l -6 593 l 990 593 l 990 495 l -6 495 "},"Ќ":{"x_min":114,"x_max":801.25,"ha":809,"o":"m 114 956 l 244 956 l 244 536 q 310 544 282 536 q 363 575 337 552 q 419 640 389 598 q 494 749 449 681 l 633 956 l 769 956 l 577 678 q 456 526 488 549 l 801 0 l 650 0 l 361 463 q 334 453 349 458 q 302 445 318 449 q 270 440 286 442 q 244 438 255 438 l 244 0 l 114 0 l 114 956 m 339 1038 l 339 1051 l 486 1205 l 627 1205 l 627 1185 l 416 1038 l 339 1038 "},"∕":{"x_min":-282.25,"x_max":414.25,"ha":232,"o":"m -181 0 l -282 0 l 315 956 l 414 956 l -181 0 "},"å":{"x_min":59,"x_max":773,"ha":773,"o":"m 280 -14 q 114 44 170 -14 q 59 204 59 102 q 86 323 59 276 q 158 396 113 369 q 259 432 202 422 q 376 444 316 442 l 541 447 l 541 487 q 531 564 541 532 q 502 615 522 596 q 453 644 482 635 q 383 654 423 654 q 320 648 348 654 q 270 630 291 643 q 236 594 249 617 q 220 537 224 571 l 92 548 q 117 628 98 592 q 171 691 136 664 q 259 732 206 717 q 386 747 311 747 q 594 683 524 747 q 664 500 664 620 l 664 184 q 678 102 664 129 q 732 75 692 75 q 753 76 743 75 q 773 79 763 77 l 773 3 q 727 -4 749 -1 q 678 -7 704 -7 q 619 2 644 -7 q 578 30 594 11 q 555 76 563 48 q 545 140 547 103 l 541 140 q 497 76 521 105 q 443 27 474 47 q 372 -3 412 7 q 280 -14 332 -14 m 308 78 q 410 99 366 78 q 483 153 454 120 q 526 226 512 187 q 541 301 541 265 l 541 362 l 407 359 q 321 352 362 358 q 250 330 281 347 q 202 282 220 313 q 184 202 184 252 q 216 110 184 143 q 308 78 248 78 m 542 956 q 529 892 542 922 q 493 840 516 862 q 441 804 471 817 q 378 792 411 792 q 314 804 344 792 q 262 840 284 817 q 226 892 239 862 q 214 956 214 922 q 226 1020 214 990 q 262 1072 239 1050 q 314 1107 284 1094 q 378 1120 344 1120 q 441 1107 411 1120 q 493 1072 471 1094 q 529 1020 516 1050 q 542 956 542 990 m 469 956 q 461 991 469 975 q 442 1020 454 1008 q 413 1039 430 1032 q 378 1047 397 1047 q 342 1039 358 1047 q 313 1020 325 1032 q 294 991 301 1008 q 287 956 287 975 q 294 919 287 936 q 313 890 301 903 q 342 870 325 877 q 378 863 358 863 q 413 870 397 863 q 442 890 430 877 q 461 919 454 903 q 469 956 469 936 "},"Ϋ":{"x_min":30,"x_max":896,"ha":926,"o":"m 527 396 l 527 0 l 398 0 l 399 396 l 30 956 l 169 956 l 463 500 l 756 956 l 896 956 l 527 396 m 544 1038 l 544 1163 l 655 1163 l 655 1038 l 544 1038 m 277 1038 l 277 1163 l 389 1163 l 389 1038 l 277 1038 "},"0":{"x_min":54,"x_max":719,"ha":773,"o":"m 719 478 q 692 246 719 340 q 621 94 666 152 q 515 11 576 36 q 384 -14 454 -14 q 254 11 314 -14 q 149 93 193 36 q 79 245 104 151 q 54 478 54 339 q 79 717 54 622 q 149 868 104 811 q 255 947 194 924 q 388 970 316 970 q 517 947 457 970 q 622 868 577 924 q 693 717 667 811 q 719 478 719 622 m 595 478 q 581 667 595 592 q 541 788 567 743 q 476 852 514 833 q 388 871 437 871 q 297 852 336 871 q 231 787 258 833 q 190 667 204 742 q 177 478 177 591 q 190 292 177 368 q 231 171 204 217 q 297 106 258 126 q 386 86 336 86 q 473 106 434 86 q 538 171 511 126 q 580 292 565 217 q 595 478 595 368 "},"ō":{"x_min":58,"x_max":714,"ha":773,"o":"m 714 367 q 629 80 714 174 q 382 -14 544 -14 q 245 9 306 -14 q 143 79 185 32 q 80 198 102 127 q 58 367 58 270 q 387 747 58 747 q 534 723 472 747 q 636 652 596 699 q 695 533 676 604 q 714 367 714 462 m 586 367 q 572 508 586 452 q 534 597 559 564 q 471 643 508 630 q 389 657 435 657 q 304 643 342 657 q 240 595 266 629 q 199 506 213 561 q 186 367 186 450 q 200 225 186 281 q 242 136 215 169 q 303 89 268 103 q 381 76 339 76 q 466 89 428 76 q 530 135 504 102 q 571 225 557 168 q 586 367 586 281 m 572 838 l 200 838 l 200 924 l 572 924 l 572 838 "},"”":{"x_min":50.921875,"x_max":412,"ha":463,"o":"m 412 857 q 408 792 412 821 q 398 737 405 763 q 382 690 392 712 q 358 646 371 667 l 275 646 q 323 735 306 690 q 340 824 340 779 l 280 824 l 280 956 l 412 956 l 412 857 m 187 857 q 183 792 187 821 q 174 737 180 763 q 157 690 167 712 q 134 646 147 667 l 50 646 q 97 735 81 690 q 114 824 114 779 l 55 824 l 55 956 l 187 956 l 187 857 "},"ö":{"x_min":58,"x_max":714,"ha":773,"o":"m 714 367 q 629 80 714 174 q 382 -14 544 -14 q 245 9 306 -14 q 143 79 185 32 q 80 198 102 127 q 58 367 58 270 q 387 747 58 747 q 534 723 472 747 q 636 652 596 699 q 695 533 676 604 q 714 367 714 462 m 586 367 q 572 508 586 452 q 534 597 559 564 q 471 643 508 630 q 389 657 435 657 q 304 643 342 657 q 240 595 266 629 q 199 506 213 561 q 186 367 186 450 q 200 225 186 281 q 242 136 215 169 q 303 89 268 103 q 381 76 339 76 q 466 89 428 76 q 530 135 504 102 q 571 225 557 168 q 586 367 586 281 m 467 827 l 467 952 l 578 952 l 578 827 l 467 827 m 200 827 l 200 952 l 312 952 l 312 827 l 200 827 "},"☺":{"x_min":294,"x_max":1124,"ha":1418,"o":"m 1124 396 q 1001 103 1124 223 q 709 -18 880 -18 q 416 103 537 -18 q 294 396 294 223 q 324 555 294 482 q 416 690 355 628 q 709 811 536 811 q 1001 690 881 811 q 1093 555 1062 628 q 1124 396 1124 482 m 1063 396 q 959 646 1063 543 q 709 751 856 751 q 458 646 561 751 q 355 396 355 543 q 458 146 355 249 q 709 42 561 42 q 959 146 856 42 q 1063 396 1063 249 m 603 481 q 587 444 603 460 q 550 429 571 429 q 513 444 528 429 q 498 481 498 460 q 513 518 498 503 q 550 534 528 534 q 587 518 571 534 q 603 481 603 503 m 920 481 q 905 444 920 460 q 868 429 890 429 q 830 444 846 429 q 815 481 815 460 q 830 518 815 503 q 868 534 846 534 q 905 518 890 534 q 920 481 920 503 m 557 286 q 709 194 609 194 q 858 286 807 194 l 901 263 q 709 137 834 137 q 597 169 645 137 q 517 263 549 201 l 557 286 "},"╧":{"x_min":-6.78125,"x_max":990.796875,"ha":984,"o":"m -6 495 l -6 593 l 443 593 l 443 1264 l 541 1264 l 541 593 l 990 593 l 990 495 l -6 495 m -6 251 l -6 349 l 990 349 l 990 251 l -6 251 "},"ć":{"x_min":59,"x_max":658,"ha":695,"o":"m 187 369 q 196 253 187 306 q 227 162 205 200 q 284 103 248 124 q 372 82 319 82 q 481 117 437 82 q 535 226 524 152 l 658 217 q 631 130 651 172 q 576 56 611 88 q 491 5 541 24 q 375 -14 440 -14 q 228 15 288 -14 q 130 95 168 44 q 75 216 92 146 q 59 367 59 285 q 71 497 59 441 q 105 596 83 554 q 157 667 127 639 q 222 714 187 696 q 295 739 257 731 q 373 747 334 747 q 483 730 435 747 q 566 683 531 713 q 623 613 601 653 q 654 527 645 573 l 529 518 q 480 615 519 579 q 370 651 442 651 q 283 633 318 651 q 227 581 248 616 q 196 493 205 546 q 187 369 187 440 m 292 815 l 292 828 l 439 1023 l 580 1023 l 580 1003 l 355 815 l 292 815 "},"þ":{"x_min":94,"x_max":714,"ha":773,"o":"m 94 1006 l 216 1006 l 216 719 q 215 680 216 699 q 214 648 215 662 q 213 616 213 631 l 217 616 q 255 676 234 651 q 305 716 277 700 q 367 739 333 732 q 444 747 401 747 q 572 719 520 747 q 655 643 623 692 q 700 524 686 594 q 714 370 714 455 q 700 216 714 286 q 655 94 686 145 q 572 14 623 43 q 444 -14 520 -14 q 306 15 365 -14 q 216 113 247 45 l 213 113 q 214 101 213 111 q 214 74 214 90 q 215 37 215 57 q 216 -1 216 17 l 216 -288 l 94 -288 l 94 1006 m 586 367 q 577 488 586 435 q 549 578 569 541 q 496 633 529 614 q 413 653 463 653 q 336 641 372 653 q 273 597 300 629 q 231 507 247 564 q 216 358 216 449 q 228 225 216 279 q 266 138 241 171 q 327 90 291 105 q 411 76 364 76 q 496 95 462 76 q 549 152 529 115 q 577 244 569 190 q 586 367 586 298 "},"]":{"x_min":11,"x_max":287,"ha":386,"o":"m 11 -288 l 11 -201 l 169 -201 l 169 919 l 11 919 l 11 1006 l 287 1006 l 287 -288 l 11 -288 "},"А":{"x_min":3,"x_max":923,"ha":926,"o":"m 790 0 l 681 280 l 247 280 l 137 0 l 3 0 l 392 956 l 539 956 l 923 0 l 790 0 m 520 696 q 500 751 509 723 q 482 801 490 779 q 470 839 475 824 q 464 858 465 854 q 458 839 463 854 q 445 800 453 823 q 428 749 438 777 q 408 694 418 722 l 286 381 l 643 381 l 520 696 "},"′":{"x_min":58,"x_max":234,"ha":260,"o":"m 58 604 l 101 956 l 234 956 l 127 604 l 58 604 "},"Ы":{"x_min":114,"x_max":1116,"ha":1230,"o":"m 839 280 q 818 170 839 221 q 756 81 797 119 q 654 21 715 43 q 510 0 592 0 l 114 0 l 114 956 l 244 956 l 244 552 l 502 552 q 650 532 587 552 q 755 476 713 512 q 818 391 797 441 q 839 280 839 341 m 709 278 q 653 405 709 361 q 486 449 598 449 l 244 449 l 244 102 l 492 102 q 656 148 603 102 q 709 278 709 194 m 986 0 l 986 956 l 1116 956 l 1116 0 l 986 0 "},"ẁ":{"x_min":-2.25,"x_max":1006.25,"ha":1003,"o":"m 796 0 l 654 0 l 536 473 q 525 518 531 491 q 514 571 519 546 q 501 633 507 601 q 488 573 495 603 q 476 519 483 547 q 464 470 470 491 l 344 0 l 203 0 l -2 734 l 118 734 l 242 235 q 252 197 247 219 q 261 152 257 174 q 272 101 266 127 q 283 151 277 126 q 294 194 288 172 q 303 229 299 215 l 436 734 l 567 734 l 695 229 q 705 189 700 212 q 716 147 711 167 q 727 101 721 124 q 737 151 732 126 q 747 195 742 172 q 757 235 752 217 l 886 734 l 1006 734 l 796 0 m 519 815 l 295 1003 l 295 1023 l 435 1023 l 583 828 l 583 815 l 519 815 "},"ĭ":{"x_min":-31,"x_max":421,"ha":386,"o":"m 132 0 l 132 734 l 254 734 l 254 0 l 132 0 m 194 815 q 104 832 144 815 q 36 878 65 849 q -8 945 8 907 q -31 1025 -25 983 l 48 1025 q 67 975 53 995 q 99 943 80 955 q 142 926 118 931 q 195 921 167 921 q 248 926 224 921 q 291 944 272 931 q 323 976 310 956 q 341 1025 336 996 l 421 1025 q 397 945 414 983 q 352 878 380 907 q 285 832 324 849 q 194 815 245 815 "},"8":{"x_min":60,"x_max":713,"ha":773,"o":"m 713 266 q 693 154 713 205 q 634 65 674 102 q 532 7 594 28 q 386 -14 471 -14 q 241 7 302 -14 q 139 65 179 28 q 79 153 98 102 q 60 265 60 204 q 75 358 60 317 q 118 428 91 398 q 179 475 145 457 q 250 499 213 493 l 250 502 q 178 533 210 512 q 125 583 147 554 q 93 649 104 613 q 82 725 82 685 q 101 819 82 775 q 158 897 120 864 q 253 950 196 931 q 383 970 309 970 q 519 950 461 970 q 614 897 576 930 q 670 818 652 863 q 689 723 689 773 q 677 648 689 684 q 645 583 666 612 q 592 532 623 553 q 519 504 560 512 l 519 501 q 595 476 560 494 q 657 429 631 458 q 698 358 683 399 q 713 266 713 317 m 562 717 q 552 782 562 752 q 522 833 543 812 q 467 867 501 855 q 383 879 433 879 q 302 867 335 879 q 247 833 268 855 q 216 782 226 812 q 207 717 207 752 q 214 658 207 688 q 241 604 221 628 q 296 564 261 580 q 385 549 330 549 q 478 564 442 549 q 531 604 513 580 q 556 658 550 628 q 562 717 562 688 m 586 278 q 576 344 586 312 q 543 401 566 377 q 481 441 520 426 q 383 457 442 457 q 292 441 330 457 q 231 401 254 426 q 196 343 207 376 q 186 275 186 310 q 196 194 186 231 q 231 132 207 158 q 294 92 255 106 q 388 78 332 78 q 481 92 443 78 q 543 132 520 106 q 576 195 566 158 q 586 278 586 232 "},"R":{"x_min":114,"x_max":939,"ha":1003,"o":"m 789 0 l 541 397 l 244 397 l 244 0 l 114 0 l 114 956 l 563 956 q 707 937 645 956 q 813 883 770 918 q 878 797 856 848 q 901 682 901 746 q 887 593 901 637 q 846 512 874 548 q 773 449 817 475 q 667 411 729 422 l 939 0 l 789 0 m 771 680 q 756 756 771 724 q 712 809 741 788 q 643 841 684 830 q 551 852 602 852 l 244 852 l 244 499 l 556 499 q 652 512 612 499 q 719 551 693 526 q 758 608 745 575 q 771 680 771 642 "},"Ż":{"x_min":44,"x_max":804.875,"ha":848,"o":"m 804 0 l 44 0 l 44 97 l 625 850 l 93 850 l 93 956 l 773 956 l 773 861 l 191 106 l 804 106 l 804 0 m 364 1088 l 364 1205 l 486 1205 l 486 1088 l 364 1088 "},"ħ":{"x_min":6.46875,"x_max":683,"ha":773,"o":"m 214 581 q 258 644 235 618 q 311 687 282 670 q 373 712 339 704 q 449 720 407 720 q 565 701 520 720 q 637 647 610 682 q 673 566 663 613 q 683 461 683 518 l 683 0 l 560 0 l 560 438 q 554 520 560 484 q 532 578 548 555 q 485 614 515 602 q 408 626 455 626 q 329 610 364 626 q 270 566 294 594 q 231 497 245 537 q 218 405 218 456 l 218 0 l 96 0 l 96 817 l 6 817 l 6 906 l 96 906 l 96 1006 l 218 1006 l 218 906 l 421 906 l 421 817 l 218 817 l 218 717 q 217 672 218 694 q 215 631 216 650 q 213 599 214 612 q 212 581 213 585 l 214 581 "},"õ":{"x_min":58,"x_max":714,"ha":773,"o":"m 714 367 q 629 80 714 174 q 382 -14 544 -14 q 245 9 306 -14 q 143 79 185 32 q 80 198 102 127 q 58 367 58 270 q 387 747 58 747 q 534 723 472 747 q 636 652 596 699 q 695 533 676 604 q 714 367 714 462 m 586 367 q 572 508 586 452 q 534 597 559 564 q 471 643 508 630 q 389 657 435 657 q 304 643 342 657 q 240 595 266 629 q 199 506 213 561 q 186 367 186 450 q 200 225 186 281 q 242 136 215 169 q 303 89 268 103 q 381 76 339 76 q 466 89 428 76 q 530 135 504 102 q 571 225 557 168 q 586 367 586 281 m 501 815 q 444 827 472 815 q 389 855 415 840 q 338 883 362 870 q 293 896 314 896 q 238 874 256 896 q 213 815 219 853 l 152 815 q 162 877 155 845 q 184 936 168 910 q 224 980 199 963 q 289 997 249 997 q 347 984 319 997 q 402 956 376 971 q 452 928 429 941 q 496 916 476 916 q 551 937 532 916 q 575 997 570 958 l 638 997 q 627 934 634 967 q 606 876 621 902 q 566 832 591 849 q 501 815 541 815 "},"─":{"x_min":-6.78125,"x_max":990.796875,"ha":984,"o":"m -6 373 l -6 471 l 990 471 l 990 373 l -6 373 "},"˙":{"x_min":106,"x_max":228,"ha":463,"o":"m 106 889 l 106 1006 l 228 1006 l 228 889 l 106 889 "},"ê":{"x_min":59,"x_max":711,"ha":773,"o":"m 187 341 q 198 234 187 283 q 235 151 210 186 q 298 97 260 116 q 391 78 337 78 q 519 109 471 78 q 584 191 567 141 l 691 160 q 658 98 679 129 q 603 42 638 67 q 517 2 568 18 q 391 -14 465 -14 q 144 82 229 -14 q 59 371 59 179 q 84 545 59 474 q 155 662 110 617 q 259 726 200 706 q 387 747 319 747 q 541 717 479 747 q 641 634 603 687 q 695 511 679 582 q 711 357 711 439 l 711 341 l 187 341 m 585 435 q 525 603 574 550 q 385 657 477 657 q 321 647 354 657 q 258 612 287 637 q 210 544 230 587 q 188 435 191 501 l 585 435 m 615 828 l 615 815 l 543 815 l 395 930 l 393 930 l 236 815 l 166 815 l 166 828 l 324 1012 l 463 1012 l 615 828 "},"″":{"x_min":58,"x_max":466,"ha":492,"o":"m 58 604 l 101 956 l 234 956 l 127 604 l 58 604 m 290 604 l 333 956 l 466 956 l 359 604 l 290 604 "},"„":{"x_min":50.921875,"x_max":412,"ha":463,"o":"m 412 34 q 408 -31 412 -1 q 398 -86 405 -60 q 382 -133 392 -111 q 358 -178 371 -156 l 275 -178 q 323 -89 306 -133 q 340 0 340 -44 l 280 0 l 280 132 l 412 132 l 412 34 m 187 34 q 183 -31 187 -1 q 174 -86 180 -60 q 157 -133 167 -111 q 134 -178 147 -156 l 50 -178 q 97 -89 81 -133 q 114 0 114 -44 l 55 0 l 55 132 l 187 132 l 187 34 "},"ч":{"x_min":83,"x_max":627,"ha":724,"o":"m 205 734 l 205 461 q 210 417 205 437 q 229 382 215 397 q 264 359 242 367 q 317 351 285 351 q 409 359 365 351 q 505 382 454 368 l 505 734 l 627 734 l 627 0 l 505 0 l 505 312 q 451 291 479 302 q 394 272 424 281 q 333 259 365 264 q 267 254 302 254 q 188 267 222 254 q 130 307 154 281 q 95 370 107 333 q 83 454 83 408 l 83 734 l 205 734 "},"δ":{"x_min":58,"x_max":714,"ha":773,"o":"m 586 318 q 569 425 586 376 q 529 513 552 474 q 480 582 505 552 q 436 629 454 611 q 341 584 387 611 q 261 518 296 556 q 206 430 226 479 q 186 318 186 380 q 197 222 186 267 q 234 145 209 178 q 297 94 259 113 q 387 76 334 76 q 480 94 442 76 q 541 144 518 112 q 575 221 564 177 q 586 318 586 265 m 411 916 q 388 916 402 916 q 358 918 374 917 q 329 920 343 919 q 306 921 315 920 l 521 701 q 592 625 557 664 q 653 540 627 585 q 697 441 680 495 q 714 321 714 387 q 692 185 714 246 q 628 79 670 123 q 526 10 587 34 q 387 -14 465 -14 q 248 9 309 -14 q 145 75 187 32 q 80 180 102 118 q 58 320 58 242 q 82 455 58 396 q 150 561 107 515 q 251 640 193 607 q 373 695 308 672 l 157 924 l 157 1006 l 654 1006 l 654 916 l 411 916 "},"Â":{"x_min":3,"x_max":923,"ha":926,"o":"m 790 0 l 681 280 l 247 280 l 137 0 l 3 0 l 392 956 l 539 956 l 923 0 l 790 0 m 520 696 q 500 751 509 723 q 482 801 490 779 q 470 839 475 824 q 464 858 465 854 q 458 839 463 854 q 445 800 453 823 q 428 749 438 777 q 408 694 418 722 l 286 381 l 643 381 l 520 696 m 688 1051 l 688 1038 l 616 1038 l 468 1132 l 466 1132 l 309 1038 l 239 1038 l 239 1051 l 397 1214 l 536 1214 l 688 1051 "},"Į":{"x_min":63,"x_max":300,"ha":386,"o":"m 128 0 l 128 956 l 258 956 l 258 0 l 128 0 m 300 -271 q 257 -284 281 -279 q 205 -290 232 -290 q 98 -255 134 -290 q 63 -163 63 -220 q 74 -104 63 -131 q 102 -56 86 -77 q 136 -21 118 -36 q 168 0 154 -7 l 258 0 q 224 -24 241 -9 q 191 -60 206 -40 q 168 -103 177 -80 q 159 -153 159 -127 q 175 -198 159 -182 q 222 -215 192 -215 q 261 -210 241 -215 q 300 -198 281 -206 l 300 -271 "},"ω":{"x_min":56,"x_max":1027,"ha":1084,"o":"m 599 303 q 637 138 599 197 q 745 80 676 80 q 818 99 789 80 q 866 152 848 118 q 891 236 884 187 q 899 346 899 285 q 889 453 899 402 q 858 545 879 504 q 805 615 838 586 q 727 654 772 643 l 742 748 q 870 697 816 735 q 958 605 924 659 q 1010 484 993 550 q 1027 350 1027 418 q 1009 195 1027 263 q 956 81 991 127 q 872 10 922 34 q 757 -14 822 -14 q 676 -1 711 -14 q 615 33 641 10 q 571 90 589 56 q 543 167 554 123 l 540 167 q 511 90 529 123 q 468 33 494 56 q 406 -1 442 10 q 325 -14 370 -14 q 210 10 260 -14 q 126 81 160 34 q 73 195 91 127 q 56 350 56 263 q 72 484 56 418 q 124 605 89 550 q 212 697 158 659 q 340 748 266 735 l 356 654 q 277 615 309 643 q 223 545 244 586 q 193 453 202 504 q 184 346 184 402 q 191 236 184 285 q 216 152 198 187 q 263 99 234 118 q 336 80 292 80 q 399 95 371 80 q 446 139 426 110 q 475 209 465 167 q 486 303 486 251 l 486 475 l 599 475 l 599 303 "},"Ţ":{"x_min":31,"x_max":816,"ha":848,"o":"m 563 -171 q 552 -221 563 -199 q 520 -260 542 -244 q 463 -285 498 -277 q 377 -294 427 -294 q 348 -293 363 -294 q 316 -291 332 -293 l 316 -224 q 374 -229 349 -229 q 421 -224 402 -229 q 451 -213 440 -220 q 468 -196 463 -206 q 474 -174 474 -186 q 453 -135 474 -149 q 383 -122 432 -122 q 364 -122 374 -122 q 345 -123 354 -122 l 389 0 l 461 0 l 435 -68 q 531 -97 499 -70 q 563 -171 563 -124 m 488 850 l 488 0 l 359 0 l 359 850 l 31 850 l 31 956 l 816 956 l 816 850 l 488 850 "},"´":{"x_min":49,"x_max":337,"ha":463,"o":"m 49 815 l 49 828 l 196 1023 l 337 1023 l 337 1003 l 112 815 l 49 815 "},"Ĉ":{"x_min":71,"x_max":950,"ha":1003,"o":"m 537 864 q 393 836 456 864 q 288 759 331 809 q 224 638 246 709 q 203 481 203 567 q 226 323 203 395 q 293 200 249 252 q 400 120 337 149 q 542 92 463 92 q 644 106 598 92 q 726 147 689 121 q 792 210 763 174 q 844 291 822 246 l 950 238 q 886 138 924 184 q 797 58 848 92 q 681 5 746 24 q 536 -14 616 -14 q 333 22 420 -14 q 187 126 246 59 q 100 283 129 192 q 71 482 71 374 q 101 684 71 594 q 191 838 132 774 q 338 935 251 901 q 535 970 424 970 q 790 910 688 970 q 941 733 893 850 l 818 693 q 782 757 805 726 q 724 811 759 788 q 643 849 689 835 q 537 864 597 864 m 761 1051 l 761 1038 l 689 1038 l 541 1132 l 539 1132 l 382 1038 l 312 1038 l 312 1051 l 470 1214 l 609 1214 l 761 1051 "},"И":{"x_min":114,"x_max":884,"ha":998,"o":"m 114 0 l 114 956 l 231 956 l 231 329 q 230 261 231 294 q 228 201 229 227 q 225 143 226 170 l 733 956 l 884 956 l 884 0 l 769 0 l 769 635 q 769 691 769 661 q 771 747 769 721 q 773 807 771 777 l 270 0 l 114 0 "},"⌡":{"x_min":177,"x_max":470,"ha":839,"o":"m 370 1157 l 470 1157 l 470 -117 q 408 -341 470 -256 q 346 -397 381 -379 q 269 -416 311 -416 q 232 -410 249 -416 q 203 -395 215 -405 q 183 -372 190 -385 q 177 -342 177 -358 q 181 -317 177 -328 q 194 -297 186 -305 q 212 -284 202 -289 q 235 -280 223 -280 q 275 -290 257 -280 q 285 -300 278 -292 q 302 -321 292 -308 q 334 -347 323 -347 q 365 -319 359 -347 q 370 -226 370 -298 l 370 1157 "},"○":{"x_min":113,"x_max":725,"ha":839,"o":"m 113 414 q 136 534 113 478 q 201 632 160 590 q 298 697 243 673 q 417 722 354 722 q 537 697 481 722 q 635 632 593 673 q 700 534 676 590 q 725 414 725 478 q 700 295 725 351 q 635 198 676 240 q 537 133 593 157 q 417 110 481 110 q 298 133 354 110 q 201 198 243 157 q 136 295 160 240 q 113 414 113 351 m 171 414 q 190 318 171 363 q 242 240 209 273 q 321 187 276 206 q 417 168 366 168 q 515 187 469 168 q 594 240 560 206 q 647 318 627 273 q 667 414 667 363 q 647 512 667 466 q 594 591 627 557 q 515 644 560 624 q 417 664 469 664 q 321 644 366 664 q 242 591 276 624 q 190 512 209 557 q 171 414 171 466 "},"Љ":{"x_min":12,"x_max":1396,"ha":1468,"o":"m 1396 280 q 1375 170 1396 221 q 1313 81 1354 119 q 1211 21 1272 43 q 1067 0 1149 0 l 671 0 l 671 847 l 388 847 l 355 597 q 325 390 340 480 q 294 232 311 299 q 257 118 277 164 q 210 42 237 71 q 149 1 184 14 q 70 -11 115 -11 q 37 -9 53 -11 q 12 -4 21 -7 l 12 98 q 31 95 19 96 q 49 94 43 94 q 87 101 70 94 q 120 130 105 109 q 150 188 136 151 q 177 281 164 224 q 204 419 191 339 q 232 609 218 500 l 277 956 l 801 956 l 801 552 l 1059 552 q 1207 532 1144 552 q 1312 476 1270 512 q 1375 391 1354 441 q 1396 280 1396 341 m 1266 278 q 1210 405 1266 361 q 1043 449 1155 449 l 801 449 l 801 102 l 1049 102 q 1213 148 1160 102 q 1266 278 1266 194 "},"р":{"x_min":89.9375,"x_max":714,"ha":773,"o":"m 714 370 q 700 216 714 286 q 655 94 686 145 q 572 14 623 43 q 444 -14 520 -14 q 306 15 365 -14 q 216 113 247 45 l 213 113 q 214 101 213 111 q 214 74 214 90 q 215 37 215 57 q 216 -1 216 17 l 216 -288 l 94 -288 l 94 584 q 93 634 94 610 q 92 679 93 659 q 91 713 91 699 q 89 734 90 727 l 207 734 q 209 719 208 731 q 211 690 210 707 q 213 653 212 673 q 214 616 214 633 l 217 616 q 255 676 234 651 q 305 716 277 700 q 367 739 333 732 q 444 747 401 747 q 572 719 520 747 q 655 643 623 692 q 700 524 686 594 q 714 370 714 455 m 586 367 q 577 488 586 435 q 549 578 569 541 q 496 633 529 614 q 413 653 463 653 q 336 641 372 653 q 273 597 300 629 q 231 507 247 564 q 216 358 216 449 q 228 225 216 279 q 266 138 241 171 q 327 90 291 105 q 411 76 364 76 q 496 95 462 76 q 549 152 529 115 q 577 244 569 190 q 586 367 586 298 "},"Ω":{"x_min":59,"x_max":978,"ha":1038,"o":"m 518 970 q 702 940 620 970 q 841 856 784 911 q 928 722 898 801 q 959 543 959 643 q 939 406 959 471 q 882 285 919 342 q 792 181 845 228 q 671 98 738 135 q 726 101 700 99 q 773 104 749 103 q 812 106 797 106 l 978 106 l 978 0 l 579 0 l 579 152 q 691 229 644 186 q 768 320 738 272 q 812 422 798 369 q 827 534 827 476 q 806 674 827 613 q 746 777 785 735 q 649 841 706 819 q 519 864 592 864 q 387 841 445 864 q 290 777 330 819 q 230 674 251 735 q 210 534 210 613 q 224 422 210 476 q 268 320 238 369 q 345 229 298 272 q 458 152 392 186 l 458 0 l 59 0 l 59 106 l 224 106 q 263 104 239 106 q 310 101 287 103 q 365 98 336 99 q 244 181 298 135 q 154 285 191 228 q 97 406 117 342 q 78 543 78 471 q 108 722 78 643 q 195 856 139 801 q 334 940 252 911 q 518 970 416 970 "},"т":{"x_min":24,"x_max":612,"ha":636,"o":"m 24 734 l 612 734 l 612 645 l 379 645 l 379 0 l 257 0 l 257 645 l 24 645 l 24 734 "},"П":{"x_min":113,"x_max":889,"ha":998,"o":"m 759 0 l 759 847 l 243 847 l 243 0 l 113 0 l 113 956 l 889 956 l 889 0 l 759 0 "},"Ö":{"x_min":66,"x_max":1013,"ha":1080,"o":"m 1013 482 q 980 278 1013 370 q 887 121 948 186 q 738 21 826 56 q 538 -14 650 -14 q 332 22 420 -14 q 184 126 243 59 q 95 283 125 192 q 66 482 66 374 q 97 684 66 594 q 188 838 128 774 q 337 935 248 901 q 540 970 425 970 q 742 935 653 970 q 890 836 830 900 q 981 682 950 773 q 1013 482 1013 592 m 881 481 q 859 638 881 568 q 794 759 837 709 q 687 836 751 809 q 540 864 623 864 q 390 836 455 864 q 283 759 326 809 q 219 638 240 709 q 198 481 198 568 q 220 324 198 395 q 284 200 242 252 q 391 119 327 148 q 539 91 455 91 q 693 120 628 91 q 799 201 757 149 q 861 325 841 253 q 881 481 881 397 m 617 1038 l 617 1163 l 728 1163 l 728 1038 l 617 1038 m 350 1038 l 350 1163 l 462 1163 l 462 1038 l 350 1038 "},"z":{"x_min":33,"x_max":644.09375,"ha":695,"o":"m 33 0 l 33 92 l 481 640 l 60 640 l 60 734 l 619 734 l 619 641 l 170 94 l 644 94 l 644 0 l 33 0 "},"™":{"x_min":127,"x_max":1232,"ha":1389,"o":"m 1147 430 l 1147 718 l 1147 850 q 1140 835 1143 842 q 1136 823 1138 829 q 1133 813 1134 816 l 977 430 l 904 430 l 793 710 q 784 735 792 713 q 766 783 775 757 q 741 850 754 812 q 740 836 740 843 q 740 825 740 831 q 740 814 740 818 l 740 430 l 653 430 l 653 956 l 782 956 l 933 573 q 936 566 934 571 q 939 557 938 562 l 943 545 q 967 607 957 579 q 977 631 972 619 q 985 652 981 643 q 991 668 988 662 q 993 675 993 674 l 1107 956 l 1232 956 l 1232 430 l 1147 430 m 391 881 l 391 430 l 300 430 l 300 881 l 127 881 l 127 956 l 568 956 l 568 881 l 391 881 "},"╦":{"x_min":-6.78125,"x_max":990.796875,"ha":984,"o":"m 419 -421 l 321 -421 l 321 251 l -6 251 l -6 349 l 419 349 l 419 -421 m 565 349 l 990 349 l 990 251 l 663 251 l 663 -421 l 565 -421 l 565 349 m 990 593 l 990 495 l -6 495 l -6 593 l 990 593 "},"Θ":{"x_min":66,"x_max":1014,"ha":1080,"o":"m 1014 482 q 981 278 1014 370 q 888 121 949 186 q 739 21 827 56 q 539 -14 651 -14 q 332 22 421 -14 q 184 126 243 59 q 95 283 125 192 q 66 482 66 374 q 97 684 66 594 q 188 838 128 774 q 337 935 249 901 q 540 970 426 970 q 743 935 654 970 q 891 836 831 900 q 982 682 951 773 q 1014 482 1014 592 m 882 481 q 859 638 882 568 q 794 759 837 709 q 688 836 751 809 q 541 864 624 864 q 391 836 455 864 q 283 759 326 809 q 219 638 240 709 q 198 481 198 568 q 220 324 198 395 q 285 200 242 252 q 392 119 328 148 q 539 91 456 91 q 693 120 629 91 q 800 201 758 149 q 862 325 842 253 q 882 481 882 397 m 341 538 l 738 538 l 738 429 l 341 429 l 341 538 "},"Ř":{"x_min":114,"x_max":939,"ha":1003,"o":"m 789 0 l 541 397 l 244 397 l 244 0 l 114 0 l 114 956 l 563 956 q 707 937 645 956 q 813 883 770 918 q 878 797 856 848 q 901 682 901 746 q 887 593 901 637 q 846 512 874 548 q 773 449 817 475 q 667 411 729 422 l 939 0 l 789 0 m 771 680 q 756 756 771 724 q 712 809 741 788 q 643 841 684 830 q 551 852 602 852 l 244 852 l 244 499 l 556 499 q 652 512 612 499 q 719 551 693 526 q 758 608 745 575 q 771 680 771 642 m 540 1038 l 401 1038 l 243 1199 l 243 1214 l 313 1214 l 470 1120 l 472 1120 l 620 1214 l 692 1214 l 692 1199 l 540 1038 "},"╖":{"x_min":-6.78125,"x_max":663,"ha":984,"o":"m -6 373 l -6 471 l 663 471 l 663 -421 l 565 -421 l 565 373 l 419 373 l 419 -421 l 321 -421 l 321 373 l -6 373 "},"Ň":{"x_min":114,"x_max":890,"ha":1003,"o":"m 733 0 l 222 814 q 225 748 223 781 q 227 689 226 720 q 229 635 229 658 l 229 0 l 114 0 l 114 956 l 264 956 l 781 136 q 777 202 779 169 q 774 264 775 231 q 773 329 773 298 l 773 956 l 890 956 l 890 0 l 733 0 m 571 1038 l 432 1038 l 274 1199 l 274 1214 l 344 1214 l 501 1120 l 503 1120 l 651 1214 l 723 1214 l 723 1199 l 571 1038 "},"É":{"x_min":114,"x_max":866,"ha":926,"o":"m 114 0 l 114 956 l 838 956 l 838 850 l 244 850 l 244 544 l 798 544 l 798 440 l 244 440 l 244 106 l 866 106 l 866 0 l 114 0 m 373 1038 l 373 1051 l 520 1205 l 661 1205 l 661 1185 l 450 1038 l 373 1038 "},"и":{"x_min":96,"x_max":680,"ha":776,"o":"m 214 734 l 214 332 q 212 290 214 316 q 210 236 211 264 q 208 183 209 208 q 207 144 207 158 l 546 734 l 680 734 l 680 0 l 563 0 l 563 447 q 563 479 563 460 q 565 519 564 499 q 567 559 566 540 q 569 592 568 578 l 226 0 l 96 0 l 96 734 l 214 734 "},"³":{"x_min":18,"x_max":436,"ha":463,"o":"m 436 539 q 383 417 436 460 q 234 374 330 374 q 135 387 175 374 q 71 422 96 400 q 34 471 46 443 q 18 527 22 498 l 110 536 q 146 468 116 491 q 234 445 176 445 q 314 469 286 445 q 343 545 343 493 q 330 593 343 575 q 298 622 317 612 q 256 634 279 631 q 214 638 234 638 l 173 638 l 173 712 l 211 712 q 252 716 231 712 q 290 731 273 720 q 318 759 307 741 q 329 804 329 777 q 303 868 329 845 q 230 892 278 892 q 155 868 184 892 q 123 800 127 844 l 31 808 q 52 877 35 848 q 96 925 69 906 q 158 954 123 945 q 232 964 192 964 q 315 952 279 964 q 374 921 350 941 q 410 874 398 901 q 422 816 422 848 q 392 728 422 766 q 302 678 363 691 l 302 676 q 363 660 337 673 q 404 629 388 648 q 428 588 421 611 q 436 539 436 564 "},"♦":{"x_min":44.90625,"x_max":663.4375,"ha":709,"o":"m 352 829 q 420 720 382 776 q 506 601 459 664 q 592 490 552 538 q 663 406 631 442 q 596 328 636 379 q 499 202 555 277 q 416 85 452 139 q 353 -17 380 31 q 332 19 344 0 q 306 60 320 38 q 247 145 280 99 q 173 245 213 190 q 131 299 163 258 q 44 406 99 339 q 122 500 78 446 q 219 627 165 555 q 292 730 259 679 q 352 829 325 780 "},"[":{"x_min":99,"x_max":375,"ha":386,"o":"m 99 -288 l 99 1006 l 375 1006 l 375 919 l 217 919 l 217 -201 l 375 -201 l 375 -288 l 99 -288 "},"ζ":{"x_min":58,"x_max":586,"ha":612,"o":"m 188 257 q 202 186 188 213 q 242 143 217 160 q 301 116 267 127 q 373 95 335 106 q 448 74 410 85 q 516 43 485 62 q 566 -5 546 24 q 586 -81 586 -35 q 579 -127 586 -104 q 565 -171 573 -150 q 546 -210 556 -192 q 529 -239 536 -227 l 444 -201 q 457 -181 450 -192 q 469 -157 463 -170 q 478 -131 474 -144 q 482 -105 482 -118 q 469 -67 482 -82 q 435 -40 457 -51 q 380 -21 412 -29 q 310 -3 348 -12 q 251 10 281 2 q 193 30 221 18 q 140 59 165 42 q 97 101 115 76 q 68 160 79 126 q 58 240 58 194 q 74 356 58 296 q 120 475 91 415 q 187 594 148 534 q 268 709 225 653 q 357 818 311 765 q 446 917 403 870 l 446 919 q 427 918 438 919 q 403 918 415 918 q 379 917 391 917 q 360 917 368 917 l 127 917 l 127 1006 l 562 1006 l 562 919 q 475 819 520 872 q 389 709 431 765 q 311 595 347 653 q 247 478 274 536 q 203 364 219 421 q 188 257 188 308 "},"∏":{"x_min":159,"x_max":985,"ha":1143,"o":"m 860 -294 l 860 846 l 289 846 l 289 -294 l 159 -294 l 159 956 l 985 956 l 985 -294 l 860 -294 "},"Έ":{"x_min":-7,"x_max":1029,"ha":1089,"o":"m 277 0 l 277 956 l 1001 956 l 1001 850 l 407 850 l 407 544 l 961 544 l 961 440 l 407 440 l 407 106 l 1029 106 l 1029 0 l 277 0 m -7 736 l -7 758 l 39 956 l 180 956 l 180 930 l 43 736 l -7 736 "},"Ρ":{"x_min":114,"x_max":853,"ha":926,"o":"m 853 668 q 832 552 853 606 q 770 458 811 498 q 668 396 729 419 q 524 373 606 373 l 244 373 l 244 0 l 114 0 l 114 956 l 516 956 q 663 935 600 956 q 768 877 726 914 q 831 786 810 839 q 853 668 853 732 m 723 666 q 667 804 723 757 q 500 852 611 852 l 244 852 l 244 475 l 506 475 q 670 524 617 475 q 723 666 723 574 "},"ğ":{"x_min":58,"x_max":683.0625,"ha":773,"o":"m 371 -288 q 259 -275 308 -288 q 176 -238 211 -262 q 120 -180 141 -214 q 89 -106 98 -147 l 212 -89 q 265 -167 224 -140 q 375 -195 307 -195 q 450 -183 416 -195 q 508 -146 484 -171 q 545 -80 532 -121 q 558 18 558 -39 l 558 136 l 556 136 q 523 83 543 108 q 474 38 502 57 q 407 6 445 18 q 320 -5 369 -5 q 200 18 250 -5 q 118 88 150 41 q 72 204 87 135 q 58 365 58 274 q 72 524 58 453 q 120 643 87 594 q 205 718 153 692 q 333 745 258 745 q 469 709 411 745 q 558 607 526 673 l 559 607 q 560 646 559 624 q 562 685 561 667 q 564 718 563 704 q 567 734 566 731 l 683 734 q 681 713 682 727 q 680 678 681 698 q 679 633 679 658 q 679 582 679 608 l 679 21 q 603 -210 679 -132 q 371 -288 527 -288 m 558 366 q 541 497 558 443 q 497 586 524 552 q 435 637 470 621 q 363 654 400 654 q 282 637 316 654 q 227 586 249 621 q 194 497 205 551 q 184 366 184 442 q 194 233 184 287 q 226 146 205 179 q 281 99 248 113 q 361 85 315 85 q 433 100 398 85 q 496 150 468 116 q 541 237 524 183 q 558 366 558 290 m 370 815 q 280 832 320 815 q 212 878 241 849 q 167 945 184 907 q 145 1025 150 983 l 224 1025 q 243 975 229 995 q 275 943 256 955 q 318 926 294 931 q 371 921 343 921 q 424 926 400 921 q 467 944 448 931 q 499 976 486 956 q 517 1025 512 996 l 597 1025 q 573 945 590 983 q 528 878 556 907 q 461 832 500 849 q 370 815 421 815 "},"ª":{"x_min":18,"x_max":519,"ha":514,"o":"m 176 441 q 111 450 140 441 q 61 479 82 460 q 29 526 40 498 q 18 589 18 554 q 35 667 18 636 q 81 717 52 698 q 149 744 110 736 q 229 753 187 752 l 350 756 l 350 796 q 342 848 350 827 q 322 880 335 868 q 290 897 309 892 q 247 902 271 902 q 174 881 202 902 q 141 810 147 861 l 40 817 q 59 877 44 849 q 99 926 73 904 q 161 959 124 947 q 246 971 198 971 q 329 961 292 971 q 392 930 366 951 q 432 878 418 910 q 447 801 447 846 l 447 592 q 456 535 447 552 q 489 518 466 518 q 505 520 497 518 q 519 524 512 522 l 519 453 q 491 447 506 450 q 462 445 477 445 q 415 452 434 445 q 383 473 396 459 q 363 503 370 486 q 355 540 356 520 l 352 540 q 282 464 326 488 q 176 441 237 441 m 203 516 q 262 527 235 516 q 309 557 289 539 q 339 600 328 576 q 350 649 350 624 l 350 694 l 256 691 q 203 686 228 689 q 160 672 178 682 q 130 645 141 662 q 120 598 120 627 q 139 538 120 560 q 203 516 159 516 "},"ї":{"x_min":-5,"x_max":373,"ha":386,"o":"m 132 0 l 132 734 l 254 734 l 254 0 l 132 0 m 262 827 l 262 952 l 373 952 l 373 827 l 262 827 m -5 827 l -5 952 l 107 952 l 107 827 l -5 827 "},"T":{"x_min":31,"x_max":816,"ha":848,"o":"m 488 850 l 488 0 l 359 0 l 359 850 l 31 850 l 31 956 l 816 956 l 816 850 l 488 850 "},"š":{"x_min":39,"x_max":645,"ha":695,"o":"m 645 202 q 624 110 645 150 q 566 42 604 70 q 473 0 528 15 q 347 -14 418 -14 q 232 -4 283 -14 q 142 27 180 5 q 77 84 103 49 q 39 171 51 120 l 147 193 q 211 106 162 133 q 347 79 260 79 q 419 84 386 79 q 475 103 452 89 q 512 138 499 116 q 526 192 526 160 q 510 247 526 226 q 466 283 494 268 q 399 307 439 297 q 312 331 359 318 q 224 357 268 342 q 146 394 181 371 q 89 452 111 418 q 68 539 68 487 q 139 692 68 639 q 348 745 211 745 q 541 702 469 745 q 632 565 613 659 l 522 552 q 499 599 515 580 q 460 630 483 619 q 408 647 437 642 q 348 653 379 653 q 226 627 265 653 q 187 551 187 602 q 201 502 187 521 q 242 469 216 483 q 305 446 268 456 q 385 426 341 437 q 445 410 414 418 q 504 389 476 401 q 559 362 533 378 q 603 323 584 346 q 633 271 622 301 q 645 202 645 241 m 415 815 l 276 815 l 118 998 l 118 1012 l 188 1012 l 345 897 l 347 897 l 495 1012 l 567 1012 l 567 998 l 415 815 "},"є":{"x_min":59,"x_max":671,"ha":709,"o":"m 382 -14 q 232 15 294 -14 q 132 95 170 44 q 76 216 93 146 q 59 367 59 285 q 86 550 59 477 q 159 667 113 624 q 262 729 204 711 q 380 747 319 747 q 493 730 444 747 q 577 685 542 714 q 635 618 613 657 q 667 532 658 578 l 542 523 q 491 620 531 584 q 378 656 451 656 q 293 641 328 656 q 236 596 258 626 q 201 521 213 566 q 187 416 190 476 l 467 416 l 467 327 l 187 327 q 201 225 189 271 q 236 146 213 179 q 294 95 259 113 q 379 78 329 78 q 492 112 447 78 q 548 221 537 147 l 671 212 q 644 126 664 167 q 587 53 623 84 q 500 4 551 22 q 382 -14 449 -14 "},"Þ":{"x_min":114,"x_max":853,"ha":926,"o":"m 853 498 q 833 385 853 439 q 772 290 813 331 q 669 226 731 250 q 524 202 607 202 l 244 202 l 244 0 l 114 0 l 114 956 l 244 956 l 244 785 l 516 785 q 664 764 601 785 q 769 706 727 744 q 832 616 811 669 q 853 498 853 563 m 723 496 q 667 637 723 587 q 500 688 611 688 l 244 688 l 244 298 l 506 298 q 602 312 561 298 q 670 354 643 327 q 710 417 697 381 q 723 496 723 453 "},"j":{"x_min":-34,"x_max":215,"ha":309,"o":"m 93 889 l 93 1006 l 215 1006 l 215 889 l 93 889 m 215 -90 q 207 -168 215 -132 q 182 -231 200 -204 q 132 -272 164 -257 q 52 -288 101 -288 q 7 -286 29 -288 q -34 -281 -15 -285 l -34 -187 q -12 -190 -25 -189 q 8 -192 0 -192 q 50 -185 33 -192 q 76 -163 67 -178 q 89 -126 86 -149 q 93 -72 93 -103 l 93 734 l 215 734 l 215 -90 "},"Σ":{"x_min":73,"x_max":804,"ha":859,"o":"m 73 0 l 73 110 l 438 502 l 85 846 l 85 956 l 763 956 l 763 850 l 230 850 l 541 548 l 541 464 l 208 106 l 804 106 l 804 0 l 73 0 "},"1":{"x_min":106,"x_max":705,"ha":773,"o":"m 106 0 l 106 104 l 349 104 l 349 839 l 133 685 l 133 800 l 359 956 l 472 956 l 472 104 l 705 104 l 705 0 l 106 0 "},"░":{"x_min":70,"x_max":984,"ha":984,"o":"m 70 891 l 141 891 l 141 825 l 70 825 l 70 891 m 351 891 l 422 891 l 422 825 l 351 825 l 351 891 m 632 891 l 702 891 l 702 825 l 632 825 l 632 891 m 210 759 l 281 759 l 281 694 l 210 694 l 210 759 m 492 759 l 563 759 l 563 694 l 492 694 l 492 759 m 773 759 l 844 759 l 844 694 l 773 694 l 773 759 m 632 628 l 702 628 l 702 563 l 632 563 l 632 628 m 351 628 l 422 628 l 422 563 l 351 563 l 351 628 m 70 628 l 141 628 l 141 563 l 70 563 l 70 628 m 773 496 l 844 496 l 844 431 l 773 431 l 773 496 m 492 496 l 563 496 l 563 431 l 492 431 l 492 496 m 210 496 l 281 496 l 281 431 l 210 431 l 210 496 m 70 366 l 141 366 l 141 301 l 70 301 l 70 366 m 351 366 l 422 366 l 422 301 l 351 301 l 351 366 m 632 366 l 702 366 l 702 301 l 632 301 l 632 366 m 773 234 l 844 234 l 844 169 l 773 169 l 773 234 m 492 234 l 563 234 l 563 169 l 492 169 l 492 234 m 210 234 l 281 234 l 281 169 l 210 169 l 210 234 m 70 103 l 141 103 l 141 37 l 70 37 l 70 103 m 351 103 l 422 103 l 422 37 l 351 37 l 351 103 m 632 103 l 702 103 l 702 37 l 632 37 l 632 103 m 210 -29 l 281 -29 l 281 -93 l 210 -93 l 210 -29 m 492 -29 l 563 -29 l 563 -93 l 492 -93 l 492 -29 m 773 -29 l 844 -29 l 844 -93 l 773 -93 l 773 -29 m 632 -159 l 702 -159 l 702 -225 l 632 -225 l 632 -159 m 351 -159 l 422 -159 l 422 -225 l 351 -225 l 351 -159 m 70 -159 l 141 -159 l 141 -225 l 70 -225 l 70 -159 m 210 -290 l 281 -290 l 281 -355 l 210 -355 l 210 -290 m 492 -290 l 563 -290 l 563 -355 l 492 -355 l 492 -290 m 773 -290 l 844 -290 l 844 -355 l 773 -355 l 773 -290 m 210 1021 l 281 1021 l 281 955 l 210 955 l 210 1021 m 492 1021 l 563 1021 l 563 955 l 492 955 l 492 1021 m 773 1021 l 844 1021 l 844 955 l 773 955 l 773 1021 m 70 1152 l 141 1152 l 141 1087 l 70 1087 l 70 1152 m 351 1152 l 422 1152 l 422 1087 l 351 1087 l 351 1152 m 632 1152 l 702 1152 l 702 1087 l 632 1087 l 632 1152 m 913 891 l 984 891 l 984 825 l 913 825 l 913 891 m 913 628 l 984 628 l 984 563 l 913 563 l 913 628 m 913 366 l 984 366 l 984 301 l 913 301 l 913 366 m 913 103 l 984 103 l 984 37 l 913 37 l 913 103 m 913 -159 l 984 -159 l 984 -225 l 913 -225 l 913 -159 m 913 1152 l 984 1152 l 984 1087 l 913 1087 l 913 1152 "},"ℓ":{"x_min":12,"x_max":433,"ha":449,"o":"m 293 52 q 351 87 328 52 q 386 197 374 122 l 433 197 q 378 39 419 92 q 263 -14 337 -14 q 145 39 188 -14 q 102 198 102 93 l 102 317 q 57 296 80 305 q 12 278 35 286 l 12 328 q 58 347 35 337 q 102 367 80 357 l 102 766 q 110 842 102 806 q 139 907 118 879 q 192 952 159 935 q 274 969 225 969 q 336 954 309 969 q 381 914 363 940 q 408 849 399 887 q 418 765 418 812 q 403 637 418 698 q 361 524 388 575 q 297 432 334 472 q 215 366 259 392 l 215 201 q 221 134 215 162 q 238 87 227 106 q 263 60 249 69 q 293 52 278 52 m 356 760 q 351 824 356 795 q 337 873 346 853 q 314 905 328 894 q 283 917 301 917 q 248 904 261 917 q 227 871 235 892 q 217 823 220 851 q 215 765 215 796 l 215 421 q 274 479 248 443 q 318 558 300 514 q 346 654 337 603 q 356 760 356 705 "},"ĉ":{"x_min":59,"x_max":658,"ha":695,"o":"m 187 369 q 196 253 187 306 q 227 162 205 200 q 284 103 248 124 q 372 82 319 82 q 481 117 437 82 q 535 226 524 152 l 658 217 q 631 130 651 172 q 576 56 611 88 q 491 5 541 24 q 375 -14 440 -14 q 228 15 288 -14 q 130 95 168 44 q 75 216 92 146 q 59 367 59 285 q 71 497 59 441 q 105 596 83 554 q 157 667 127 639 q 222 714 187 696 q 295 739 257 731 q 373 747 334 747 q 483 730 435 747 q 566 683 531 713 q 623 613 601 653 q 654 527 645 573 l 529 518 q 480 615 519 579 q 370 651 442 651 q 283 633 318 651 q 227 581 248 616 q 196 493 205 546 q 187 369 187 440 m 590 828 l 590 815 l 518 815 l 370 930 l 368 930 l 211 815 l 141 815 l 141 828 l 299 1012 l 438 1012 l 590 828 "},"ī":{"x_min":9,"x_max":381,"ha":386,"o":"m 132 0 l 132 734 l 254 734 l 254 0 l 132 0 m 381 838 l 9 838 l 9 924 l 381 924 l 381 838 "},"О":{"x_min":66,"x_max":1013,"ha":1080,"o":"m 1013 482 q 980 278 1013 370 q 887 121 948 186 q 738 21 826 56 q 538 -14 650 -14 q 332 22 420 -14 q 184 126 243 59 q 95 283 125 192 q 66 482 66 374 q 97 684 66 594 q 188 838 128 774 q 337 935 248 901 q 540 970 425 970 q 742 935 653 970 q 890 836 830 900 q 981 682 950 773 q 1013 482 1013 592 m 881 481 q 859 638 881 568 q 794 759 837 709 q 687 836 751 809 q 540 864 623 864 q 390 836 455 864 q 283 759 326 809 q 219 638 240 709 q 198 481 198 568 q 220 324 198 395 q 284 200 242 252 q 391 119 327 148 q 539 91 455 91 q 693 120 628 91 q 799 201 757 149 q 861 325 841 253 q 881 481 881 397 "},"ξ":{"x_min":58,"x_max":592,"ha":622,"o":"m 58 240 q 75 341 58 291 q 129 433 92 391 q 226 506 167 475 q 370 549 285 536 l 370 550 q 284 567 324 554 q 214 603 244 580 q 168 659 185 626 q 151 733 151 691 q 167 808 151 777 q 211 861 184 839 q 270 896 238 883 q 335 917 303 910 l 335 922 q 304 921 327 921 q 254 919 281 920 q 201 917 227 918 q 163 917 176 917 l 114 917 l 114 1006 l 543 1006 l 543 921 q 442 903 490 914 q 355 872 393 892 q 294 821 317 852 q 272 746 272 791 q 292 675 272 703 q 346 631 312 648 q 423 607 379 615 q 514 595 467 599 l 514 506 q 387 478 446 497 q 283 430 328 460 q 213 357 239 400 q 188 257 188 314 q 202 187 188 213 q 242 143 217 160 q 301 116 267 127 q 373 95 334 106 q 448 74 409 85 q 518 43 487 62 q 571 -5 550 24 q 592 -81 592 -35 q 585 -127 592 -104 q 571 -171 579 -150 q 552 -210 562 -192 q 535 -239 542 -227 l 450 -201 q 463 -181 456 -192 q 475 -157 469 -170 q 484 -131 480 -144 q 488 -105 488 -118 q 474 -67 488 -82 q 437 -40 461 -51 q 381 -21 414 -29 q 309 -3 348 -12 q 250 10 281 3 q 192 30 220 18 q 140 60 165 43 q 97 102 115 76 q 68 161 79 127 q 58 240 58 194 "},"Ď":{"x_min":114,"x_max":936,"ha":1003,"o":"m 936 487 q 900 277 936 368 q 801 124 864 185 q 654 31 739 63 q 471 0 569 0 l 114 0 l 114 956 l 429 956 q 633 928 540 956 q 793 843 726 901 q 898 698 860 786 q 936 487 936 609 m 806 487 q 778 653 806 584 q 700 766 750 722 q 580 831 650 810 q 427 852 510 852 l 244 852 l 244 104 l 456 104 q 595 128 531 104 q 706 200 659 152 q 779 321 753 249 q 806 487 806 392 m 540 1038 l 401 1038 l 243 1199 l 243 1214 l 313 1214 l 470 1120 l 472 1120 l 620 1214 l 692 1214 l 692 1199 l 540 1038 "},"&":{"x_min":49,"x_max":905,"ha":926,"o":"m 809 -8 q 695 14 744 -8 q 607 77 646 36 q 561 43 587 59 q 504 14 535 27 q 435 -6 472 1 q 355 -14 398 -14 q 217 6 275 -14 q 122 62 159 26 q 66 146 84 97 q 49 251 49 194 q 66 348 49 304 q 114 428 83 392 q 188 491 145 463 q 281 542 231 519 q 259 591 269 565 q 242 644 250 617 q 231 697 235 670 q 227 747 227 723 q 240 831 227 792 q 282 898 254 870 q 356 944 311 927 q 465 961 402 961 q 556 948 514 961 q 628 910 598 935 q 676 850 659 886 q 693 768 693 814 q 670 677 693 717 q 610 606 648 638 q 522 550 572 575 q 415 502 471 524 q 507 356 457 425 q 614 222 556 288 q 682 351 655 283 q 730 500 710 418 l 828 471 q 768 300 804 377 q 684 153 732 223 q 756 102 720 117 q 825 88 792 88 q 867 90 847 88 q 905 98 887 92 l 905 6 q 860 -4 886 0 q 809 -8 835 -8 m 590 768 q 580 813 590 793 q 555 848 571 834 q 515 871 539 863 q 463 879 492 879 q 364 844 398 879 q 331 747 331 809 q 343 663 331 707 q 375 581 356 619 q 458 618 419 599 q 526 658 497 636 q 573 707 556 680 q 590 768 590 734 m 539 146 q 423 296 479 218 q 323 456 368 374 q 204 374 246 424 q 163 252 163 323 q 174 183 163 215 q 211 126 186 150 q 272 88 235 102 q 359 75 309 75 q 415 81 389 75 q 465 98 442 87 q 507 121 488 108 q 539 146 526 133 "},"G":{"x_min":70,"x_max":976,"ha":1080,"o":"m 70 482 q 100 684 70 594 q 190 838 130 774 q 339 935 250 901 q 545 970 427 970 q 699 954 633 970 q 814 909 765 938 q 897 838 863 880 q 955 744 931 796 l 831 708 q 789 772 814 743 q 729 821 764 800 q 647 852 694 841 q 541 864 601 864 q 391 836 455 864 q 285 759 327 809 q 222 638 243 709 q 202 481 202 568 q 224 324 202 395 q 290 200 246 252 q 400 119 334 148 q 551 91 465 91 q 655 100 607 91 q 740 125 702 109 q 808 159 779 140 q 857 196 837 177 l 857 369 l 572 369 l 572 478 l 976 478 l 976 148 q 901 86 944 115 q 804 34 858 56 q 687 -1 751 11 q 551 -14 623 -14 q 340 22 430 -14 q 190 126 250 59 q 100 283 130 192 q 70 482 70 374 "},"ΰ":{"x_min":90,"x_max":693,"ha":760,"o":"m 693 387 q 675 220 693 294 q 618 93 657 146 q 520 13 580 41 q 377 -14 461 -14 q 249 2 303 -14 q 159 56 195 19 q 107 148 124 92 q 90 283 90 205 l 90 734 l 213 734 l 213 279 q 252 130 213 180 q 383 80 292 80 q 468 96 432 80 q 525 150 503 113 q 557 245 547 187 q 568 384 568 302 q 561 480 568 430 q 543 577 554 530 q 518 665 532 624 q 490 734 504 706 l 617 734 q 643 668 629 706 q 667 584 657 630 q 685 488 678 539 q 693 387 693 438 m 321 814 l 321 836 l 367 1086 l 495 1086 l 495 1060 l 371 814 l 321 814 m 171 835 l 171 952 l 273 952 l 273 835 l 171 835 m 491 835 l 491 952 l 593 952 l 593 835 l 491 835 "},"`":{"x_min":72,"x_max":360,"ha":463,"o":"m 296 815 l 72 1003 l 72 1023 l 212 1023 l 360 828 l 360 815 l 296 815 "},"╔":{"x_min":321,"x_max":990.796875,"ha":984,"o":"m 321 593 l 990 593 l 990 495 l 419 495 l 419 -421 l 321 -421 l 321 593 m 565 349 l 990 349 l 990 251 l 663 251 l 663 -421 l 565 -421 l 565 349 "},"ŏ":{"x_min":58,"x_max":714,"ha":773,"o":"m 714 367 q 629 80 714 174 q 382 -14 544 -14 q 245 9 306 -14 q 143 79 185 32 q 80 198 102 127 q 58 367 58 270 q 387 747 58 747 q 534 723 472 747 q 636 652 596 699 q 695 533 676 604 q 714 367 714 462 m 586 367 q 572 508 586 452 q 534 597 559 564 q 471 643 508 630 q 389 657 435 657 q 304 643 342 657 q 240 595 266 629 q 199 506 213 561 q 186 367 186 450 q 200 225 186 281 q 242 136 215 169 q 303 89 268 103 q 381 76 339 76 q 466 89 428 76 q 530 135 504 102 q 571 225 557 168 q 586 367 586 281 m 385 815 q 295 832 335 815 q 227 878 256 849 q 182 945 199 907 q 160 1025 165 983 l 239 1025 q 258 975 244 995 q 290 943 271 955 q 333 926 309 931 q 386 921 358 921 q 439 926 415 921 q 482 944 463 931 q 514 976 501 956 q 532 1025 527 996 l 612 1025 q 588 945 605 983 q 543 878 571 907 q 476 832 515 849 q 385 815 436 815 "},"ý":{"x_min":2.75,"x_max":692.25,"ha":695,"o":"m 409 0 q 356 -119 383 -66 q 296 -210 330 -172 q 222 -268 263 -248 q 129 -288 182 -288 q 86 -286 106 -288 q 45 -280 66 -285 l 45 -188 q 74 -191 57 -190 q 102 -193 90 -193 q 201 -153 155 -193 q 282 -25 247 -113 l 294 3 l 2 734 l 132 734 l 287 328 q 305 279 294 310 q 326 218 315 248 q 344 163 336 187 q 354 132 353 139 q 364 162 356 140 q 382 211 372 184 q 402 266 391 238 q 419 314 412 294 l 563 734 l 692 734 l 409 0 m 240 815 l 240 828 l 387 1023 l 528 1023 l 528 1003 l 303 815 l 240 815 "},"º":{"x_min":18,"x_max":490,"ha":507,"o":"m 490 706 q 430 509 490 578 q 251 441 370 441 q 78 509 138 441 q 18 706 18 577 q 32 817 18 768 q 76 900 47 866 q 150 953 106 935 q 254 971 195 971 q 362 953 317 971 q 435 901 406 935 q 476 817 463 867 q 490 706 490 768 m 389 706 q 380 800 389 762 q 355 859 372 837 q 313 890 338 881 q 256 900 289 900 q 198 890 224 900 q 155 859 173 881 q 129 799 138 836 q 121 706 121 762 q 130 611 121 649 q 157 552 140 574 q 198 520 174 529 q 251 512 222 512 q 309 520 284 512 q 353 552 335 529 q 379 611 370 574 q 389 706 389 649 "},"╝":{"x_min":-6.78125,"x_max":663,"ha":984,"o":"m 663 251 l -6 251 l -6 349 l 565 349 l 565 1264 l 663 1264 l 663 251 m 321 1264 l 419 1264 l 419 495 l -6 495 l -6 593 l 321 593 l 321 1264 "},"∞":{"x_min":59,"x_max":931,"ha":990,"o":"m 931 400 q 916 299 931 347 q 873 215 901 251 q 806 158 845 179 q 720 137 767 137 q 597 183 654 137 q 492 329 540 228 q 445 251 471 286 q 391 192 420 217 q 332 155 363 168 q 271 142 302 142 q 185 160 224 142 q 118 213 146 179 q 74 295 90 247 q 59 404 59 344 q 73 507 59 459 q 116 591 88 555 q 183 646 144 626 q 271 667 223 667 q 391 621 334 667 q 494 475 448 575 q 540 551 515 517 q 594 611 566 586 q 655 649 623 635 q 721 662 686 662 q 806 644 768 662 q 873 591 845 625 q 915 508 900 557 q 931 400 931 460 m 705 573 q 617 531 657 573 q 539 400 577 488 q 614 270 573 313 q 706 226 654 226 q 759 240 735 226 q 801 277 784 254 q 827 333 818 301 q 837 401 837 365 q 827 469 837 438 q 800 524 817 500 q 758 560 782 547 q 705 573 734 573 m 450 404 q 375 534 415 491 q 282 578 335 578 q 229 564 252 578 q 188 527 205 550 q 163 471 172 503 q 154 403 154 439 q 162 337 154 368 q 187 282 170 305 q 227 244 203 258 q 283 231 251 231 q 371 273 330 231 q 450 404 412 316 "},"ź":{"x_min":33,"x_max":644.09375,"ha":695,"o":"m 33 0 l 33 92 l 481 640 l 60 640 l 60 734 l 619 734 l 619 641 l 170 94 l 644 94 l 644 0 l 33 0 m 258 815 l 258 828 l 405 1023 l 546 1023 l 546 1003 l 321 815 l 258 815 "},"я":{"x_min":11.75,"x_max":656,"ha":752,"o":"m 362 310 l 149 0 l 11 0 l 244 318 q 116 392 156 337 q 76 530 76 447 q 149 683 76 632 q 362 734 222 734 l 656 734 l 656 0 l 534 0 l 534 310 l 362 310 m 534 648 l 375 648 q 246 616 287 648 q 206 522 206 585 q 242 426 206 458 q 362 395 278 395 l 534 395 l 534 648 "},"Ё":{"x_min":114,"x_max":866,"ha":927,"o":"m 114 0 l 114 956 l 838 956 l 838 850 l 244 850 l 244 544 l 798 544 l 798 440 l 244 440 l 244 106 l 866 106 l 866 0 l 114 0 m 553 1038 l 553 1163 l 664 1163 l 664 1038 l 553 1038 m 286 1038 l 286 1163 l 398 1163 l 398 1038 l 286 1038 "},"█":{"x_min":0,"x_max":984,"ha":984,"o":"m 984 -421 l 0 -421 l 0 1264 l 984 1264 l 984 -421 "},"ń":{"x_min":94.921875,"x_max":686,"ha":773,"o":"m 563 0 l 563 465 q 555 554 563 518 q 529 612 547 590 q 483 643 512 634 q 411 653 454 653 q 332 637 367 653 q 273 593 297 622 q 234 522 248 564 q 221 425 221 480 l 221 0 l 99 0 l 99 577 q 98 625 99 600 q 97 673 98 651 q 96 712 96 696 q 94 734 95 729 l 210 734 q 211 715 210 730 q 213 681 212 700 q 214 641 214 661 q 215 608 215 621 l 217 608 q 256 665 235 640 q 305 709 277 691 q 369 737 333 727 q 452 747 405 747 q 558 732 514 747 q 630 685 602 717 q 672 605 659 654 q 686 488 686 556 l 686 0 l 563 0 m 313 815 l 313 828 l 460 1023 l 601 1023 l 601 1003 l 376 815 l 313 815 "},"Г":{"x_min":114,"x_max":726,"ha":752,"o":"m 726 956 l 726 850 l 244 850 l 244 1 l 114 1 l 114 956 l 726 956 "},"Ь":{"x_min":114,"x_max":839,"ha":912,"o":"m 839 280 q 818 170 839 221 q 756 81 797 119 q 654 21 715 43 q 510 0 592 0 l 114 0 l 114 956 l 244 956 l 244 552 l 502 552 q 650 532 587 552 q 755 476 713 512 q 818 391 797 441 q 839 280 839 341 m 709 276 q 653 403 709 358 q 486 448 598 448 l 244 448 l 244 102 l 492 102 q 656 146 604 102 q 709 276 709 191 "},"ѝ":{"x_min":96,"x_max":680,"ha":776,"o":"m 399 815 l 175 1003 l 175 1023 l 315 1023 l 463 828 l 463 815 l 399 815 m 214 734 l 214 332 q 212 290 214 316 q 210 236 211 264 q 208 183 209 208 q 207 144 207 158 l 546 734 l 680 734 l 680 0 l 563 0 l 563 447 q 563 479 563 460 q 565 519 564 499 q 567 559 566 540 q 569 592 568 578 l 226 0 l 96 0 l 96 734 l 214 734 "},"¤":{"x_min":76.71875,"x_max":696.203125,"ha":773,"o":"m 93 464 q 106 555 93 512 q 145 635 120 598 l 78 703 l 148 772 l 215 704 q 295 745 252 730 q 388 760 338 760 q 479 745 436 760 q 558 705 521 731 l 624 771 l 694 700 l 629 635 q 669 555 654 598 q 684 464 684 512 q 669 372 684 416 q 628 293 654 329 l 696 225 l 627 154 l 558 222 q 479 183 521 197 q 388 170 436 170 q 295 184 339 170 q 217 224 252 198 l 145 153 l 76 224 l 145 293 q 106 373 120 330 q 93 464 93 416 m 197 465 q 211 391 197 426 q 253 331 226 357 q 313 290 279 305 q 387 276 348 276 q 461 290 426 276 q 521 331 495 305 q 563 391 548 357 q 578 465 578 426 q 563 539 578 504 q 521 599 548 574 q 461 640 495 625 q 387 656 426 656 q 313 640 348 656 q 253 599 279 625 q 211 539 226 574 q 197 465 197 504 "},"Ĝ":{"x_min":70,"x_max":976,"ha":1080,"o":"m 70 482 q 100 684 70 594 q 190 838 130 774 q 339 935 250 901 q 545 970 427 970 q 699 954 633 970 q 814 909 765 938 q 897 838 863 880 q 955 744 931 796 l 831 708 q 789 772 814 743 q 729 821 764 800 q 647 852 694 841 q 541 864 601 864 q 391 836 455 864 q 285 759 327 809 q 222 638 243 709 q 202 481 202 568 q 224 324 202 395 q 290 200 246 252 q 400 119 334 148 q 551 91 465 91 q 655 100 607 91 q 740 125 702 109 q 808 159 779 140 q 857 196 837 177 l 857 369 l 572 369 l 572 478 l 976 478 l 976 148 q 901 86 944 115 q 804 34 858 56 q 687 -1 751 11 q 551 -14 623 -14 q 340 22 430 -14 q 190 126 250 59 q 100 283 130 192 q 70 482 70 374 m 771 1051 l 771 1038 l 699 1038 l 551 1132 l 549 1132 l 392 1038 l 322 1038 l 322 1051 l 480 1214 l 619 1214 l 771 1051 "},"p":{"x_min":89.9375,"x_max":714,"ha":773,"o":"m 714 370 q 700 216 714 286 q 655 94 686 145 q 572 14 623 43 q 444 -14 520 -14 q 306 15 365 -14 q 216 113 247 45 l 213 113 q 214 101 213 111 q 214 74 214 90 q 215 37 215 57 q 216 -1 216 17 l 216 -288 l 94 -288 l 94 584 q 93 634 94 610 q 92 679 93 659 q 91 713 91 699 q 89 734 90 727 l 207 734 q 209 719 208 731 q 211 690 210 707 q 213 653 212 673 q 214 616 214 633 l 217 616 q 255 676 234 651 q 305 716 277 700 q 367 739 333 732 q 444 747 401 747 q 572 719 520 747 q 655 643 623 692 q 700 524 686 594 q 714 370 714 455 m 586 367 q 577 488 586 435 q 549 578 569 541 q 496 633 529 614 q 413 653 463 653 q 336 641 372 653 q 273 597 300 629 q 231 507 247 564 q 216 358 216 449 q 228 225 216 279 q 266 138 241 171 q 327 90 291 105 q 411 76 364 76 q 496 95 462 76 q 549 152 529 115 q 577 244 569 190 q 586 367 586 298 "},"│":{"x_min":320,"x_max":418,"ha":868,"o":"m 320 1264 l 418 1264 l 418 -421 l 320 -421 l 320 1264 "},"Ю":{"x_min":114,"x_max":1337,"ha":1403,"o":"m 1337 482 q 1306 278 1337 370 q 1218 121 1275 186 q 1077 21 1160 56 q 889 -14 994 -14 q 702 19 783 -14 q 565 114 621 53 q 479 258 509 174 q 444 443 448 342 l 244 443 l 244 0 l 114 0 l 114 956 l 244 956 l 244 552 l 446 552 q 488 725 454 648 q 578 857 521 803 q 713 940 634 911 q 890 970 791 970 q 1081 935 998 970 q 1221 836 1164 900 q 1307 682 1278 773 q 1337 482 1337 592 m 1205 481 q 1184 638 1205 568 q 1124 759 1164 709 q 1026 836 1084 809 q 891 864 967 864 q 753 836 812 864 q 654 759 693 809 q 594 638 614 709 q 575 481 575 568 q 595 324 575 395 q 655 200 615 252 q 753 119 695 148 q 889 91 812 91 q 1031 120 971 91 q 1129 201 1091 149 q 1186 325 1168 253 q 1205 481 1205 397 "},"ο":{"x_min":58,"x_max":714,"ha":773,"o":"m 714 367 q 629 80 714 174 q 382 -14 544 -14 q 245 9 306 -14 q 143 79 185 32 q 80 198 102 127 q 58 367 58 270 q 387 747 58 747 q 534 723 472 747 q 636 652 596 699 q 695 533 676 604 q 714 367 714 462 m 586 367 q 572 508 586 452 q 534 597 559 564 q 471 643 508 630 q 389 657 435 657 q 304 643 342 657 q 240 595 266 629 q 199 506 213 561 q 186 367 186 450 q 200 225 186 281 q 242 136 215 169 q 303 89 268 103 q 381 76 339 76 q 466 89 428 76 q 530 135 504 102 q 571 225 557 168 q 586 367 586 281 "},"S":{"x_min":63,"x_max":862,"ha":926,"o":"m 862 263 q 838 152 862 203 q 766 64 815 101 q 643 6 717 27 q 467 -14 569 -14 q 189 48 289 -14 q 63 228 90 110 l 188 253 q 217 186 197 216 q 270 133 236 155 q 353 99 303 111 q 472 87 403 87 q 578 96 529 87 q 660 127 626 106 q 714 179 695 147 q 734 256 734 211 q 712 332 734 303 q 652 380 691 361 q 560 412 614 399 q 442 440 507 425 q 361 460 402 449 q 284 485 321 470 q 215 519 247 499 q 158 566 182 539 q 121 630 135 594 q 108 714 108 666 q 135 830 108 782 q 211 910 162 879 q 326 955 260 941 q 470 970 393 970 q 622 956 559 970 q 728 914 685 942 q 798 845 772 886 q 840 750 824 804 l 712 727 q 684 789 702 762 q 637 834 666 816 q 566 862 608 853 q 468 872 525 872 q 357 860 402 872 q 285 827 312 848 q 245 780 257 807 q 234 720 234 752 q 255 650 234 678 q 313 604 276 623 q 397 574 349 586 q 500 549 446 562 q 587 529 544 539 q 671 504 631 518 q 746 469 711 489 q 807 421 781 450 q 847 354 832 393 q 862 263 862 315 "},"/":{"x_min":-0.25,"x_max":386,"ha":386,"o":"m 0 -14 l 278 1006 l 386 1006 l 109 -14 l 0 -14 "},"►":{"x_min":271.96875,"x_max":1102.796875,"ha":1375,"o":"m 271 811 l 1102 397 l 271 -18 l 271 811 "},"Ŧ":{"x_min":31,"x_max":816,"ha":848,"o":"m 488 850 l 488 543 l 678 543 l 678 439 l 488 439 l 488 0 l 359 0 l 359 439 l 169 439 l 169 543 l 359 543 l 359 850 l 31 850 l 31 956 l 816 956 l 816 850 l 488 850 "},"ђ":{"x_min":6.46875,"x_max":683,"ha":773,"o":"m 96 0 l 96 817 l 6 817 l 6 906 l 96 906 l 96 1006 l 218 1006 l 218 906 l 421 906 l 421 817 l 218 817 l 218 717 q 217 672 218 694 q 215 631 216 650 q 213 599 214 612 q 212 581 213 585 l 214 581 q 258 644 235 618 q 311 687 282 670 q 373 712 339 704 q 449 720 407 720 q 565 701 520 720 q 637 647 610 682 q 673 566 663 613 q 683 461 683 518 l 683 -90 q 675 -168 683 -132 q 650 -231 668 -204 q 600 -272 632 -257 q 520 -288 569 -288 q 475 -286 497 -288 q 434 -281 453 -285 l 434 -187 q 455 -190 442 -189 q 476 -192 467 -192 q 518 -185 501 -192 q 544 -163 534 -178 q 556 -126 553 -149 q 560 -72 560 -103 l 560 438 q 554 520 560 484 q 532 578 548 555 q 485 614 515 602 q 408 626 455 626 q 329 610 364 626 q 270 566 294 594 q 231 497 245 537 q 218 405 218 456 l 218 0 l 96 0 "},"y":{"x_min":2.75,"x_max":692.25,"ha":695,"o":"m 409 0 q 356 -119 383 -66 q 296 -210 330 -172 q 222 -268 263 -248 q 129 -288 182 -288 q 86 -286 106 -288 q 45 -280 66 -285 l 45 -188 q 74 -191 57 -190 q 102 -193 90 -193 q 201 -153 155 -193 q 282 -25 247 -113 l 294 3 l 2 734 l 132 734 l 287 328 q 305 279 294 310 q 326 218 315 248 q 344 163 336 187 q 354 132 353 139 q 364 162 356 140 q 382 211 372 184 q 402 266 391 238 q 419 314 412 294 l 563 734 l 692 734 l 409 0 "},"Π":{"x_min":114,"x_max":890,"ha":1003,"o":"m 760 0 l 760 847 l 244 847 l 244 0 l 114 0 l 114 956 l 890 956 l 890 0 l 760 0 "},"‗":{"x_min":-21,"x_max":788,"ha":767,"o":"m -21 -294 l -21 -206 l 788 -206 l 788 -294 l -21 -294 m -21 -147 l -21 -59 l 788 -59 l 788 -147 l -21 -147 "},"–":{"x_min":0,"x_max":772,"ha":773,"o":"m 0 306 l 0 399 l 772 399 l 772 306 l 0 306 "},"ë":{"x_min":59,"x_max":711,"ha":773,"o":"m 187 341 q 198 234 187 283 q 235 151 210 186 q 298 97 260 116 q 391 78 337 78 q 519 109 471 78 q 584 191 567 141 l 691 160 q 658 98 679 129 q 603 42 638 67 q 517 2 568 18 q 391 -14 465 -14 q 144 82 229 -14 q 59 371 59 179 q 84 545 59 474 q 155 662 110 617 q 259 726 200 706 q 387 747 319 747 q 541 717 479 747 q 641 634 603 687 q 695 511 679 582 q 711 357 711 439 l 711 341 l 187 341 m 585 435 q 525 603 574 550 q 385 657 477 657 q 321 647 354 657 q 258 612 287 637 q 210 544 230 587 q 188 435 191 501 l 585 435 m 466 827 l 466 952 l 577 952 l 577 827 l 466 827 m 199 827 l 199 952 l 311 952 l 311 827 l 199 827 "},"б":{"x_min":81,"x_max":737,"ha":796,"o":"m 609 340 q 595 468 609 417 q 557 550 582 520 q 497 594 532 581 q 418 607 462 607 q 332 593 371 607 q 266 549 293 580 q 223 467 238 518 q 209 340 209 416 q 223 211 209 262 q 265 130 238 160 q 326 88 291 100 q 404 76 362 76 q 489 88 451 76 q 553 130 527 100 q 594 211 580 160 q 609 340 609 262 m 443 697 q 665 608 594 697 q 737 341 737 519 q 652 73 737 161 q 405 -14 567 -14 q 268 9 329 -14 q 166 86 208 33 q 103 224 125 139 q 81 431 81 309 q 100 655 81 561 q 163 815 120 750 q 276 920 207 881 q 446 978 346 959 q 518 991 485 985 q 583 1002 552 997 q 643 1010 614 1006 q 702 1019 672 1014 l 702 909 q 589 894 643 902 q 472 875 534 886 q 377 854 419 865 q 303 826 335 843 q 249 784 272 809 q 211 723 226 759 q 189 635 196 686 q 179 516 181 585 q 215 587 192 554 q 271 644 238 620 q 346 683 304 669 q 443 697 389 697 "},"ƒ":{"x_min":130,"x_max":653,"ha":773,"o":"m 631 889 q 599 896 620 893 q 557 900 578 900 q 520 893 536 900 q 493 873 504 887 q 474 838 482 859 q 460 785 466 816 l 442 693 l 585 693 l 568 604 l 424 604 l 252 -294 l 130 -294 l 302 604 l 199 604 l 217 693 l 319 693 l 339 796 q 361 870 347 836 q 398 931 374 905 q 459 971 423 956 q 551 986 496 986 q 601 982 573 986 q 653 972 629 979 l 631 889 "},"у":{"x_min":2.75,"x_max":692.25,"ha":695,"o":"m 409 0 q 356 -119 383 -66 q 296 -210 330 -172 q 222 -268 263 -248 q 129 -288 182 -288 q 86 -286 106 -288 q 45 -280 66 -285 l 45 -188 q 74 -191 57 -190 q 102 -193 90 -193 q 201 -153 155 -193 q 282 -25 247 -113 l 294 3 l 2 734 l 132 734 l 287 328 q 305 279 294 310 q 326 218 315 248 q 344 163 336 187 q 354 132 353 139 q 364 162 356 140 q 382 211 372 184 q 402 266 391 238 q 419 314 412 294 l 563 734 l 692 734 l 409 0 "},"J":{"x_min":22,"x_max":592,"ha":695,"o":"m 310 -14 q 120 46 194 -14 q 22 236 45 106 l 148 258 q 171 182 155 213 q 208 130 186 150 q 256 100 230 110 q 311 91 283 91 q 422 139 381 91 q 463 281 463 188 l 463 850 l 279 850 l 279 956 l 592 956 l 592 284 q 573 161 592 216 q 517 67 554 106 q 429 7 481 28 q 310 -14 376 -14 "},"ŷ":{"x_min":2.75,"x_max":692.25,"ha":695,"o":"m 409 0 q 356 -119 383 -66 q 296 -210 330 -172 q 222 -268 263 -248 q 129 -288 182 -288 q 86 -286 106 -288 q 45 -280 66 -285 l 45 -188 q 74 -191 57 -190 q 102 -193 90 -193 q 201 -153 155 -193 q 282 -25 247 -113 l 294 3 l 2 734 l 132 734 l 287 328 q 305 279 294 310 q 326 218 315 248 q 344 163 336 187 q 354 132 353 139 q 364 162 356 140 q 382 211 372 184 q 402 266 391 238 q 419 314 412 294 l 563 734 l 692 734 l 409 0 m 572 828 l 572 815 l 500 815 l 352 930 l 350 930 l 193 815 l 123 815 l 123 828 l 281 1012 l 420 1012 l 572 828 "},"ŕ":{"x_min":91.921875,"x_max":460,"ha":463,"o":"m 96 0 l 96 563 q 95 610 96 586 q 94 656 95 634 q 93 698 93 679 q 91 734 92 718 l 207 734 q 208 698 207 718 q 210 657 209 678 q 212 616 211 635 q 212 583 212 597 l 215 583 q 242 656 228 625 q 277 707 257 687 q 324 737 297 727 q 390 747 351 747 q 418 744 405 747 q 440 740 432 742 l 440 628 q 411 633 427 631 q 374 635 395 635 q 302 616 332 635 q 254 563 273 597 q 226 483 235 529 q 218 382 218 437 l 218 0 l 96 0 m 172 815 l 172 828 l 319 1023 l 460 1023 l 460 1003 l 235 815 l 172 815 "},"☻":{"x_min":315,"x_max":1145,"ha":1462,"o":"m 1145 396 q 1022 103 1145 223 q 730 -18 901 -18 q 437 103 558 -18 q 315 396 315 223 q 345 555 315 482 q 437 690 376 628 q 730 811 557 811 q 1022 690 902 811 q 1114 555 1083 628 q 1145 396 1145 482 m 624 481 q 608 518 624 503 q 571 534 592 534 q 534 518 549 534 q 519 481 519 503 q 534 444 519 460 q 571 429 549 429 q 608 444 592 429 q 624 481 624 460 m 941 481 q 926 518 941 503 q 889 534 911 534 q 851 518 867 534 q 836 481 836 503 q 851 444 836 460 q 889 429 867 429 q 926 444 911 429 q 941 481 941 460 m 538 263 q 618 169 570 201 q 730 137 666 137 q 922 263 855 137 l 879 286 q 730 194 828 194 q 578 286 630 194 l 538 263 "},"‐":{"x_min":62,"x_max":401,"ha":463,"o":"m 62 315 l 62 424 l 401 424 l 401 315 l 62 315 "},"ώ":{"x_min":56,"x_max":1027,"ha":1084,"o":"m 599 303 q 637 138 599 197 q 745 80 676 80 q 818 99 789 80 q 866 152 848 118 q 891 236 884 187 q 899 346 899 285 q 889 453 899 402 q 858 545 879 504 q 805 615 838 586 q 727 654 772 643 l 742 748 q 870 697 816 735 q 958 605 924 659 q 1010 484 993 550 q 1027 350 1027 418 q 1009 195 1027 263 q 956 81 991 127 q 872 10 922 34 q 757 -14 822 -14 q 676 -1 711 -14 q 615 33 641 10 q 571 90 589 56 q 543 167 554 123 l 540 167 q 511 90 529 123 q 468 33 494 56 q 406 -1 442 10 q 325 -14 370 -14 q 210 10 260 -14 q 126 81 160 34 q 73 195 91 127 q 56 350 56 263 q 72 484 56 418 q 124 605 89 550 q 212 697 158 659 q 340 748 266 735 l 356 654 q 277 615 309 643 q 223 545 244 586 q 193 453 202 504 q 184 346 184 402 q 191 236 184 285 q 216 152 198 187 q 263 99 234 118 q 336 80 292 80 q 399 95 371 80 q 446 139 426 110 q 475 209 465 167 q 486 303 486 251 l 486 475 l 599 475 l 599 303 m 486 826 l 486 848 l 532 1046 l 673 1046 l 673 1020 l 536 826 l 486 826 "},"˘":{"x_min":-24,"x_max":428,"ha":463,"o":"m 201 815 q 111 832 151 815 q 43 878 72 849 q -1 945 15 907 q -24 1025 -18 983 l 55 1025 q 74 975 60 995 q 106 943 87 955 q 149 926 125 931 q 202 921 174 921 q 255 926 231 921 q 298 944 279 931 q 330 976 317 956 q 348 1025 343 996 l 428 1025 q 404 945 421 983 q 359 878 387 907 q 292 832 331 849 q 201 815 252 815 "},"┤":{"x_min":-6.78125,"x_max":541,"ha":984,"o":"m -6 373 l -6 471 l 443 471 l 443 1264 l 541 1264 l 541 -421 l 443 -421 l 443 373 l -6 373 "},"↑":{"x_min":184.390625,"x_max":509.625,"ha":695,"o":"m 318 629 q 261 590 294 610 q 184 549 228 570 l 184 597 q 268 681 230 637 q 334 781 306 725 l 359 781 q 425 681 387 725 q 509 597 463 637 l 509 549 q 432 590 465 570 q 376 629 399 610 l 376 -41 l 318 -41 l 318 629 "},"D":{"x_min":114,"x_max":936,"ha":1003,"o":"m 936 487 q 900 277 936 368 q 801 124 864 185 q 654 31 739 63 q 471 0 569 0 l 114 0 l 114 956 l 429 956 q 633 928 540 956 q 793 843 726 901 q 898 698 860 786 q 936 487 936 609 m 806 487 q 778 653 806 584 q 700 766 750 722 q 580 831 650 810 q 427 852 510 852 l 244 852 l 244 104 l 456 104 q 595 128 531 104 q 706 200 659 152 q 779 321 753 249 q 806 487 806 392 "},"┼":{"x_min":-6.78125,"x_max":990.796875,"ha":984,"o":"m -6 373 l -6 471 l 443 471 l 443 1264 l 541 1264 l 541 471 l 990 471 l 990 373 l 541 373 l 541 -421 l 443 -421 l 443 373 l -6 373 "},"ł":{"x_min":11.265625,"x_max":300.109375,"ha":309,"o":"m 94 0 l 94 367 l 11 321 l 11 428 l 94 474 l 94 1006 l 216 1006 l 216 545 l 300 594 l 300 486 l 216 437 l 216 0 l 94 0 "},"ĺ":{"x_min":62,"x_max":350,"ha":309,"o":"m 94 0 l 94 1006 l 216 1006 l 216 0 l 94 0 m 62 1091 l 62 1104 l 209 1258 l 350 1258 l 350 1238 l 139 1091 l 62 1091 "},"ц":{"x_min":96,"x_max":764,"ha":796,"o":"m 218 734 l 218 89 l 542 89 l 542 734 l 664 734 l 664 89 l 764 89 l 764 -277 l 653 -277 l 653 0 l 96 0 l 96 734 l 218 734 "},"Л":{"x_min":12,"x_max":798,"ha":912,"o":"m 672 847 l 388 847 l 355 597 q 325 390 340 480 q 294 232 311 299 q 257 118 277 164 q 210 42 237 71 q 149 1 184 14 q 70 -11 115 -11 q 37 -9 53 -11 q 12 -4 21 -7 l 12 98 q 31 95 19 96 q 49 94 43 94 q 87 101 70 94 q 120 130 105 109 q 150 188 136 151 q 177 281 164 224 q 204 419 191 339 q 232 609 218 500 l 277 956 l 798 956 l 798 0 l 672 0 l 672 847 "},"├":{"x_min":443,"x_max":990.796875,"ha":984,"o":"m 443 1264 l 541 1264 l 541 471 l 990 471 l 990 373 l 541 373 l 541 -421 l 443 -421 l 443 1264 "},"$":{"x_min":15,"x_max":750,"ha":773,"o":"m 351 14 q 121 82 204 20 q 15 257 38 145 l 130 282 q 153 216 137 246 q 195 165 168 187 q 259 130 221 143 q 351 114 298 117 l 351 450 l 337 453 q 235 482 285 466 q 145 528 184 499 q 82 599 106 556 q 58 709 58 642 q 79 808 58 766 q 140 878 101 850 q 232 921 179 906 q 351 939 286 936 l 351 1028 l 435 1028 l 435 939 q 552 920 502 935 q 635 877 601 905 q 693 811 670 850 q 729 721 715 772 l 611 699 q 555 798 597 763 q 435 841 514 834 l 435 540 q 513 520 475 531 q 587 496 552 510 q 652 463 622 482 q 703 418 682 444 q 737 354 725 391 q 750 268 750 317 q 730 172 750 216 q 673 93 711 127 q 575 39 634 60 q 435 14 515 18 l 435 -96 l 351 -96 l 351 14 m 633 267 q 617 337 633 310 q 573 381 601 364 q 510 409 546 398 q 435 430 474 420 l 435 113 q 515 126 479 116 q 578 156 552 137 q 618 202 604 175 q 633 267 633 230 m 175 710 q 188 648 175 674 q 225 606 202 623 q 281 578 249 590 q 351 558 313 567 l 351 843 q 268 829 302 840 q 213 800 234 818 q 184 759 193 782 q 175 710 175 736 "},"w":{"x_min":-2.25,"x_max":1006.25,"ha":1003,"o":"m 796 0 l 654 0 l 536 473 q 525 518 531 491 q 514 571 519 546 q 501 633 507 601 q 488 573 495 603 q 476 519 483 547 q 464 470 470 491 l 344 0 l 203 0 l -2 734 l 118 734 l 242 235 q 252 197 247 219 q 261 152 257 174 q 272 101 266 127 q 283 151 277 126 q 294 194 288 172 q 303 229 299 215 l 436 734 l 567 734 l 695 229 q 705 189 700 212 q 716 147 711 167 q 727 101 721 124 q 737 151 732 126 q 747 195 742 172 q 757 235 752 217 l 886 734 l 1006 734 l 796 0 "},"о":{"x_min":58,"x_max":714,"ha":773,"o":"m 714 367 q 629 80 714 174 q 382 -14 544 -14 q 245 9 306 -14 q 143 79 185 32 q 80 198 102 127 q 58 367 58 270 q 387 747 58 747 q 534 723 472 747 q 636 652 596 699 q 695 533 676 604 q 714 367 714 462 m 586 367 q 572 508 586 452 q 534 597 559 564 q 471 643 508 630 q 389 657 435 657 q 304 643 342 657 q 240 595 266 629 q 199 506 213 561 q 186 367 186 450 q 200 225 186 281 q 242 136 215 169 q 303 89 268 103 q 381 76 339 76 q 466 89 428 76 q 530 135 504 102 q 571 225 557 168 q 586 367 586 281 "},"Д":{"x_min":10,"x_max":915,"ha":941,"o":"m 796 109 l 915 109 l 915 -277 l 793 -277 l 793 0 l 132 0 l 132 -277 l 10 -277 l 10 109 l 107 109 q 157 190 135 143 q 198 298 180 237 q 232 437 217 359 q 259 610 247 514 l 305 956 l 796 956 l 796 109 m 670 109 l 670 847 l 415 847 l 382 597 q 356 431 370 506 q 327 296 343 357 q 293 189 311 236 q 253 109 275 143 l 670 109 "},"Ç":{"x_min":71,"x_max":950,"ha":1003,"o":"m 537 864 q 393 836 456 864 q 288 759 331 809 q 224 638 246 709 q 203 481 203 567 q 226 323 203 395 q 293 200 249 252 q 400 120 337 149 q 542 92 463 92 q 644 106 598 92 q 726 147 689 121 q 792 210 763 174 q 844 291 822 246 l 950 238 q 886 138 924 184 q 797 58 848 92 q 681 5 746 24 q 536 -14 616 -14 q 333 22 420 -14 q 187 126 246 59 q 100 283 129 192 q 71 482 71 374 q 101 684 71 594 q 191 838 132 774 q 338 935 251 901 q 535 970 424 970 q 790 910 688 970 q 941 733 893 850 l 818 693 q 782 757 805 726 q 724 811 759 788 q 643 849 689 835 q 537 864 597 864 m 674 -171 q 663 -221 674 -199 q 631 -260 653 -244 q 574 -285 609 -277 q 488 -294 538 -294 q 459 -293 474 -294 q 427 -291 443 -293 l 427 -224 q 485 -229 460 -229 q 532 -224 513 -229 q 562 -213 551 -220 q 579 -196 574 -206 q 585 -174 585 -186 q 564 -135 585 -149 q 494 -122 543 -122 q 475 -122 485 -122 q 456 -123 465 -122 l 500 0 l 572 0 l 546 -68 q 642 -97 610 -70 q 674 -171 674 -124 "},"Ŝ":{"x_min":63,"x_max":862,"ha":926,"o":"m 862 263 q 838 152 862 203 q 766 64 815 101 q 643 6 717 27 q 467 -14 569 -14 q 189 48 289 -14 q 63 228 90 110 l 188 253 q 217 186 197 216 q 270 133 236 155 q 353 99 303 111 q 472 87 403 87 q 578 96 529 87 q 660 127 626 106 q 714 179 695 147 q 734 256 734 211 q 712 332 734 303 q 652 380 691 361 q 560 412 614 399 q 442 440 507 425 q 361 460 402 449 q 284 485 321 470 q 215 519 247 499 q 158 566 182 539 q 121 630 135 594 q 108 714 108 666 q 135 830 108 782 q 211 910 162 879 q 326 955 260 941 q 470 970 393 970 q 622 956 559 970 q 728 914 685 942 q 798 845 772 886 q 840 750 824 804 l 712 727 q 684 789 702 762 q 637 834 666 816 q 566 862 608 853 q 468 872 525 872 q 357 860 402 872 q 285 827 312 848 q 245 780 257 807 q 234 720 234 752 q 255 650 234 678 q 313 604 276 623 q 397 574 349 586 q 500 549 446 562 q 587 529 544 539 q 671 504 631 518 q 746 469 711 489 q 807 421 781 450 q 847 354 832 393 q 862 263 862 315 m 699 1050 l 699 1037 l 627 1037 l 479 1152 l 477 1152 l 320 1037 l 250 1037 l 250 1050 l 408 1234 l 547 1234 l 699 1050 "},"C":{"x_min":71,"x_max":950,"ha":1003,"o":"m 537 864 q 393 836 456 864 q 288 759 331 809 q 224 638 246 709 q 203 481 203 567 q 226 323 203 395 q 293 200 249 252 q 400 120 337 149 q 542 92 463 92 q 644 106 598 92 q 726 147 689 121 q 792 210 763 174 q 844 291 822 246 l 950 238 q 886 138 924 184 q 797 58 848 92 q 681 5 746 24 q 536 -14 616 -14 q 333 22 420 -14 q 187 126 246 59 q 100 283 129 192 q 71 482 71 374 q 101 684 71 594 q 191 838 132 774 q 338 935 251 901 q 535 970 424 970 q 790 910 688 970 q 941 733 893 850 l 818 693 q 782 757 805 726 q 724 811 759 788 q 643 849 689 835 q 537 864 597 864 "},"Ĵ":{"x_min":22,"x_max":661,"ha":695,"o":"m 310 -14 q 120 46 194 -14 q 22 236 45 106 l 148 258 q 171 182 155 213 q 208 130 186 150 q 256 100 230 110 q 311 91 283 91 q 422 139 381 91 q 463 281 463 188 l 463 850 l 279 850 l 279 956 l 592 956 l 592 284 q 573 161 592 216 q 517 67 554 106 q 429 7 481 28 q 310 -14 376 -14 m 661 1051 l 661 1038 l 589 1038 l 441 1132 l 439 1132 l 282 1038 l 212 1038 l 212 1051 l 370 1214 l 509 1214 l 661 1051 "},"È":{"x_min":114,"x_max":866,"ha":926,"o":"m 114 0 l 114 956 l 838 956 l 838 850 l 244 850 l 244 544 l 798 544 l 798 440 l 244 440 l 244 106 l 866 106 l 866 0 l 114 0 m 498 1038 l 288 1185 l 288 1205 l 428 1205 l 576 1051 l 576 1038 l 498 1038 "},"ﬁ":{"x_min":19.90625,"x_max":601,"ha":695,"o":"m 245 645 l 245 0 l 123 0 l 123 645 l 19 645 l 19 734 l 123 734 l 123 816 q 130 890 123 856 q 157 950 137 925 q 212 990 177 975 q 301 1005 247 1005 q 346 1002 323 1005 q 388 996 370 1000 l 388 903 q 361 907 376 905 q 333 909 345 909 q 289 901 306 909 q 262 880 272 894 q 248 846 252 866 q 245 799 245 825 l 245 734 l 388 734 l 388 645 l 245 645 m 479 889 l 479 1006 l 601 1006 l 601 889 l 479 889 m 479 0 l 479 734 l 601 734 l 601 0 l 479 0 "},"X":{"x_min":30.75,"x_max":897.25,"ha":926,"o":"m 754 0 l 467 417 l 173 0 l 30 0 l 394 496 l 59 956 l 202 956 l 467 580 l 725 956 l 869 956 l 542 501 l 897 0 l 754 0 "},"ô":{"x_min":58,"x_max":714,"ha":773,"o":"m 714 367 q 629 80 714 174 q 382 -14 544 -14 q 245 9 306 -14 q 143 79 185 32 q 80 198 102 127 q 58 367 58 270 q 387 747 58 747 q 534 723 472 747 q 636 652 596 699 q 695 533 676 604 q 714 367 714 462 m 586 367 q 572 508 586 452 q 534 597 559 564 q 471 643 508 630 q 389 657 435 657 q 304 643 342 657 q 240 595 266 629 q 199 506 213 561 q 186 367 186 450 q 200 225 186 281 q 242 136 215 169 q 303 89 268 103 q 381 76 339 76 q 466 89 428 76 q 530 135 504 102 q 571 225 557 168 q 586 367 586 281 m 611 828 l 611 815 l 539 815 l 391 930 l 389 930 l 232 815 l 162 815 l 162 828 l 320 1012 l 459 1012 l 611 828 "},"Ė":{"x_min":114,"x_max":866,"ha":926,"o":"m 114 0 l 114 956 l 838 956 l 838 850 l 244 850 l 244 544 l 798 544 l 798 440 l 244 440 l 244 106 l 866 106 l 866 0 l 114 0 m 416 1088 l 416 1205 l 538 1205 l 538 1088 l 416 1088 "},"г":{"x_min":96,"x_max":466,"ha":507,"o":"m 466 734 l 466 645 l 218 645 l 218 0 l 96 0 l 96 734 l 466 734 "},"Ŀ":{"x_min":114,"x_max":726,"ha":773,"o":"m 114 0 l 114 956 l 244 956 l 244 106 l 726 106 l 726 0 l 114 0 m 424 465 l 424 582 l 546 582 l 546 465 l 424 465 "},"х":{"x_min":15.75,"x_max":680.25,"ha":695,"o":"m 543 0 l 346 301 l 147 0 l 15 0 l 277 377 l 27 734 l 162 734 l 346 448 l 528 734 l 665 734 l 415 378 l 680 0 l 543 0 "},"╚":{"x_min":321,"x_max":990.796875,"ha":984,"o":"m 321 1264 l 419 1264 l 419 349 l 990 349 l 990 251 l 321 251 l 321 1264 m 565 1264 l 663 1264 l 663 593 l 990 593 l 990 495 l 565 495 l 565 1264 "},"ŋ":{"x_min":94.9375,"x_max":686,"ha":773,"o":"m 522 -288 q 477 -286 499 -288 q 436 -281 455 -285 l 436 -187 q 457 -190 444 -189 q 478 -192 469 -192 q 520 -185 503 -192 q 546 -163 537 -178 q 559 -126 556 -149 q 563 -72 563 -103 l 563 465 q 555 554 563 518 q 529 612 547 590 q 483 643 512 634 q 411 653 454 653 q 332 637 367 653 q 273 593 297 622 q 234 522 248 564 q 221 425 221 480 l 221 0 l 99 0 l 99 577 q 98 625 99 600 q 97 673 98 651 q 96 712 96 696 q 94 734 95 729 l 210 734 q 211 715 210 730 q 213 681 212 700 q 214 641 214 661 q 215 608 215 621 l 217 608 q 256 665 235 640 q 305 709 277 691 q 369 737 333 727 q 452 747 405 747 q 558 732 514 747 q 630 685 602 717 q 672 605 659 654 q 686 488 686 556 l 686 -90 q 678 -168 686 -132 q 652 -231 671 -204 q 602 -272 634 -257 q 522 -288 571 -288 "},"Ч":{"x_min":109,"x_max":813,"ha":926,"o":"m 684 345 q 627 333 659 339 q 559 320 595 326 q 484 310 523 314 q 407 306 445 306 q 273 321 330 306 q 180 369 217 337 q 126 446 144 400 q 109 553 109 493 l 109 956 l 238 956 l 238 566 q 282 446 238 483 q 416 410 326 410 q 490 413 452 410 q 562 421 527 416 q 629 432 597 426 q 684 443 660 438 l 684 956 l 813 956 l 813 0 l 684 0 l 684 345 "},"∟":{"x_min":277,"x_max":1107.390625,"ha":1360,"o":"m 277 829 l 341 829 l 341 64 l 1107 64 l 1107 0 l 277 0 l 277 829 "},"ü":{"x_min":94,"x_max":685.0625,"ha":773,"o":"m 217 734 l 217 268 q 224 178 217 214 q 250 120 232 142 q 296 89 268 98 q 368 80 325 80 q 447 95 412 80 q 506 139 482 110 q 545 210 531 168 q 559 308 559 253 l 559 734 l 681 734 l 681 156 q 681 108 681 133 q 682 60 681 82 q 683 21 683 37 q 685 0 684 4 l 569 0 q 568 18 569 3 q 566 52 567 33 q 565 91 565 71 q 564 124 564 111 l 562 124 q 523 67 544 92 q 474 23 502 41 q 410 -4 446 5 q 327 -14 374 -14 q 221 0 265 -14 q 149 47 177 15 q 107 127 120 78 q 94 244 94 176 l 94 734 l 217 734 m 459 827 l 459 952 l 570 952 l 570 827 l 459 827 m 192 827 l 192 952 l 304 952 l 304 827 l 192 827 "},"ь":{"x_min":96,"x_max":667,"ha":724,"o":"m 385 423 q 595 373 524 423 q 667 215 667 323 q 649 125 667 165 q 596 57 631 85 q 508 14 561 29 q 385 0 455 0 l 96 0 l 96 734 l 218 734 l 218 423 l 385 423 m 218 86 l 367 86 q 446 94 414 86 q 499 119 479 102 q 528 160 519 136 q 537 215 537 184 q 497 308 537 279 q 368 338 458 338 l 218 338 l 218 86 "},"Ÿ":{"x_min":30,"x_max":896,"ha":926,"o":"m 527 396 l 527 0 l 398 0 l 398 396 l 30 956 l 172 956 l 463 500 l 753 956 l 896 956 l 527 396 m 541 1038 l 541 1163 l 652 1163 l 652 1038 l 541 1038 m 274 1038 l 274 1163 l 386 1163 l 386 1038 l 274 1038 "},"€":{"x_min":11,"x_max":753,"ha":773,"o":"m 468 85 q 577 118 536 85 q 628 214 618 152 l 753 205 q 722 118 744 158 q 666 49 701 78 q 581 2 631 19 q 465 -14 531 -14 q 324 12 384 -14 q 223 85 264 38 q 158 198 182 132 q 126 341 135 263 l 11 341 l 38 428 l 119 428 q 117 448 118 433 q 117 480 117 464 q 117 517 117 499 q 119 539 118 534 l 11 539 l 38 625 l 125 625 q 160 772 135 707 q 226 880 184 836 q 327 947 268 924 q 463 970 385 970 q 579 953 529 970 q 664 906 629 936 q 720 837 699 877 q 751 750 742 797 l 626 741 q 575 837 616 803 q 462 871 534 871 q 379 857 415 871 q 317 814 343 844 q 273 738 290 785 q 248 625 256 692 l 551 625 l 523 539 l 244 539 q 242 512 242 528 q 242 480 242 496 q 242 453 242 465 q 244 428 243 440 l 551 428 l 523 341 l 250 341 q 270 238 256 285 q 310 157 284 191 q 375 104 337 123 q 468 85 414 85 "},"в":{"x_min":96,"x_max":678,"ha":738,"o":"m 382 734 q 482 725 434 734 q 569 696 531 717 q 630 640 607 675 q 654 550 654 605 q 642 486 654 514 q 609 439 630 459 q 561 407 589 420 q 502 388 533 394 l 502 384 q 571 367 539 379 q 627 334 603 355 q 664 283 650 314 q 678 211 678 253 q 657 119 678 158 q 599 52 636 79 q 511 13 562 26 q 398 0 460 0 l 96 0 l 96 734 l 382 734 m 218 90 l 378 90 q 457 96 425 90 q 509 118 489 103 q 538 156 529 133 q 548 210 548 179 q 538 268 548 244 q 507 307 528 292 q 452 329 486 322 q 370 336 418 336 l 218 336 l 218 90 m 218 641 l 218 424 l 364 424 q 442 430 411 424 q 491 450 472 436 q 518 484 510 463 q 526 533 526 504 q 491 615 526 589 q 374 641 456 641 l 218 641 "},"Η":{"x_min":114,"x_max":890,"ha":1003,"o":"m 760 0 l 760 443 l 244 443 l 244 0 l 114 0 l 114 956 l 244 956 l 244 552 l 760 552 l 760 956 l 890 956 l 890 0 l 760 0 "},"С":{"x_min":71,"x_max":950,"ha":1003,"o":"m 537 864 q 393 836 456 864 q 288 759 331 809 q 224 638 246 709 q 203 481 203 567 q 226 323 203 395 q 293 200 249 252 q 400 120 337 149 q 542 92 463 92 q 644 106 598 92 q 726 147 689 121 q 792 210 763 174 q 844 291 822 246 l 950 238 q 886 138 924 184 q 797 58 848 92 q 681 5 746 24 q 536 -14 616 -14 q 333 22 420 -14 q 187 126 246 59 q 100 283 129 192 q 71 482 71 374 q 101 684 71 594 q 191 838 132 774 q 338 935 251 901 q 535 970 424 970 q 790 910 688 970 q 941 733 893 850 l 818 693 q 782 757 805 726 q 724 811 759 788 q 643 849 689 835 q 537 864 597 864 "},"ß":{"x_min":96,"x_max":791,"ha":848,"o":"m 791 199 q 777 115 791 154 q 733 48 763 76 q 658 2 704 19 q 548 -14 611 -14 q 443 -5 494 -14 q 356 19 393 3 l 355 130 q 394 112 371 121 q 442 97 417 104 q 493 87 467 91 q 545 84 520 84 q 640 113 607 84 q 674 195 674 142 q 655 259 674 233 q 610 306 637 285 q 550 347 582 327 q 490 391 518 366 q 445 449 463 415 q 427 531 427 482 q 438 591 427 566 q 465 635 449 616 q 502 671 482 655 q 538 705 521 687 q 565 744 554 723 q 577 795 577 765 q 565 841 577 820 q 533 877 554 862 q 481 901 511 892 q 412 910 451 910 q 330 898 366 910 q 269 860 293 886 q 231 792 244 834 q 218 691 218 751 l 218 0 l 96 0 l 96 696 q 117 834 96 776 q 179 931 138 893 q 279 987 220 969 q 412 1006 338 1006 q 534 990 481 1006 q 622 947 586 974 q 676 883 658 920 q 694 804 694 846 q 682 732 694 763 q 654 678 671 702 q 617 637 637 655 q 580 603 597 619 q 552 571 563 587 q 541 536 541 555 q 559 490 541 510 q 606 450 578 470 q 666 409 633 431 q 725 359 698 388 q 772 291 753 330 q 791 199 791 253 "},"└":{"x_min":443,"x_max":990.796875,"ha":984,"o":"m 443 1264 l 541 1264 l 541 471 l 990 471 l 990 373 l 443 373 l 443 1264 "},"њ":{"x_min":96,"x_max":1072,"ha":1129,"o":"m 636 734 l 636 423 l 790 423 q 1000 373 929 423 q 1072 215 1072 323 q 1054 125 1072 165 q 1001 57 1036 85 q 913 14 966 29 q 791 0 861 0 l 513 0 l 513 334 l 218 334 l 218 0 l 96 0 l 96 734 l 218 734 l 218 423 l 513 423 l 513 734 l 636 734 m 636 86 l 772 86 q 851 94 819 86 q 904 119 884 102 q 933 160 924 136 q 942 215 942 184 q 902 308 942 279 q 773 338 863 338 l 636 338 l 636 86 "},"Ű":{"x_min":107,"x_max":896,"ha":1003,"o":"m 495 -14 q 346 7 417 -14 q 222 72 275 28 q 138 185 169 117 q 107 347 107 253 l 107 956 l 237 956 l 237 357 q 256 234 237 285 q 310 152 275 184 q 391 105 344 120 q 495 91 438 91 q 600 105 550 91 q 687 153 649 120 q 745 238 724 186 q 767 366 767 291 l 767 956 l 896 956 l 896 359 q 864 193 896 263 q 778 76 832 123 q 651 8 724 30 q 495 -14 578 -14 m 302 1038 l 302 1051 l 435 1206 l 576 1206 l 576 1186 l 365 1038 l 302 1038 m 537 1038 l 537 1051 l 670 1206 l 811 1206 l 811 1186 l 600 1038 l 537 1038 "},"♣":{"x_min":41,"x_max":871,"ha":912,"o":"m 742 0 l 171 0 l 176 23 q 270 46 233 35 q 325 69 306 57 q 374 111 352 86 q 413 170 396 136 q 449 312 449 238 q 448 325 449 317 q 447 344 447 332 q 347 222 408 262 q 288 193 318 203 q 228 183 258 183 q 155 197 188 183 q 94 237 122 211 q 41 372 41 293 q 90 503 41 450 q 203 558 140 558 q 251 549 224 558 q 312 523 278 541 q 290 564 299 546 q 275 594 281 581 q 270 618 272 606 q 268 645 268 631 q 321 776 268 723 q 381 815 348 801 q 454 829 413 829 q 587 774 533 829 q 641 648 641 721 q 595 523 641 589 q 662 552 651 550 q 682 556 672 555 q 704 558 692 558 q 767 545 738 558 q 821 505 797 532 q 871 374 871 453 q 816 238 871 294 q 686 184 762 184 q 599 204 644 184 q 521 259 555 225 q 494 293 509 272 q 462 344 480 313 q 472 247 464 289 q 496 173 480 204 q 533 117 510 143 q 587 70 556 91 q 736 23 628 44 l 742 0 "},"c":{"x_min":59,"x_max":658,"ha":695,"o":"m 187 369 q 196 253 187 306 q 227 162 205 200 q 284 103 248 124 q 372 82 319 82 q 481 117 437 82 q 535 226 524 152 l 658 217 q 631 130 651 172 q 576 56 611 88 q 491 5 541 24 q 375 -14 440 -14 q 228 15 288 -14 q 130 95 168 44 q 75 216 92 146 q 59 367 59 285 q 71 497 59 441 q 105 596 83 554 q 157 667 127 639 q 222 714 187 696 q 295 739 257 731 q 373 747 334 747 q 483 730 435 747 q 566 683 531 713 q 623 613 601 653 q 654 527 645 573 l 529 518 q 480 615 519 579 q 370 651 442 651 q 283 633 318 651 q 227 581 248 616 q 196 493 205 546 q 187 369 187 440 "},"¶":{"x_min":54,"x_max":687.5,"ha":746,"o":"m 600 887 l 600 -179 l 524 -179 l 524 887 l 377 887 l 377 -179 l 300 -179 l 300 471 q 200 486 245 471 q 122 531 155 501 q 72 606 90 561 q 54 711 54 651 q 70 813 54 768 q 120 890 87 859 q 199 939 152 922 q 305 956 246 956 l 687 956 l 687 887 l 600 887 "},"Ή":{"x_min":-9,"x_max":1051,"ha":1164,"o":"m 921 0 l 921 443 l 405 443 l 405 0 l 275 0 l 275 956 l 405 956 l 405 552 l 921 552 l 921 956 l 1051 956 l 1051 0 l 921 0 m -9 736 l -9 758 l 37 956 l 178 956 l 178 930 l 41 736 l -9 736 "},"γ":{"x_min":4.75,"x_max":690.25,"ha":695,"o":"m 4 734 l 134 734 l 301 276 q 313 239 305 261 q 326 195 320 218 q 339 151 333 172 q 348 115 345 130 q 357 150 351 129 q 370 194 363 171 q 385 238 377 217 q 398 274 392 259 l 560 734 l 690 734 l 425 35 q 403 -32 413 5 q 383 -112 392 -70 q 366 -199 374 -154 q 354 -288 358 -243 l 224 -288 q 252 -126 236 -199 q 284 7 268 -54 l 4 734 "},"­":{"x_min":62,"x_max":401,"ha":463,"o":"m 62 314 l 62 423 l 401 423 l 401 314 l 62 314 "},":":{"x_min":127,"x_max":259,"ha":386,"o":"m 127 594 l 127 734 l 259 734 l 259 594 l 127 594 m 127 0 l 127 140 l 259 140 l 259 0 l 127 0 "},"Ѝ":{"x_min":114,"x_max":884,"ha":1003,"o":"m 114 0 l 114 956 l 231 956 l 231 329 q 230 261 231 294 q 228 201 229 227 q 225 143 226 170 l 733 956 l 884 956 l 884 0 l 769 0 l 769 635 q 769 691 769 661 q 771 747 769 721 q 773 807 771 777 l 270 0 l 114 0 m 557 997 l 333 1185 l 333 1205 l 473 1205 l 621 1010 l 621 997 l 557 997 "},"╓":{"x_min":321,"x_max":990.796875,"ha":984,"o":"m 990 471 l 990 373 l 663 373 l 663 -421 l 565 -421 l 565 373 l 419 373 l 419 -421 l 321 -421 l 321 471 l 990 471 "},"ś":{"x_min":39,"x_max":645,"ha":695,"o":"m 645 202 q 624 110 645 150 q 566 42 604 70 q 473 0 528 15 q 347 -14 418 -14 q 232 -4 283 -14 q 142 27 180 5 q 77 84 103 49 q 39 171 51 120 l 147 193 q 211 106 162 133 q 347 79 260 79 q 419 84 386 79 q 475 103 452 89 q 512 138 499 116 q 526 192 526 160 q 510 247 526 226 q 466 283 494 268 q 399 307 439 297 q 312 331 359 318 q 224 357 268 342 q 146 394 181 371 q 89 452 111 418 q 68 539 68 487 q 139 692 68 639 q 348 745 211 745 q 541 702 469 745 q 632 565 613 659 l 522 552 q 499 599 515 580 q 460 630 483 619 q 408 647 437 642 q 348 653 379 653 q 226 627 265 653 q 187 551 187 602 q 201 502 187 521 q 242 469 216 483 q 305 446 268 456 q 385 426 341 437 q 445 410 414 418 q 504 389 476 401 q 559 362 533 378 q 603 323 584 346 q 633 271 622 301 q 645 202 645 241 m 261 815 l 261 828 l 408 1023 l 549 1023 l 549 1003 l 324 815 l 261 815 "}," ":{"x_min":0,"x_max":0,"ha":386},"У":{"x_min":36.75,"x_max":889.25,"ha":882,"o":"m 497 215 q 438 112 465 155 q 380 40 410 68 q 312 0 349 13 q 224 -14 275 -14 q 180 -10 203 -14 q 136 -1 158 -7 q 95 13 114 4 q 59 33 75 22 l 114 131 q 166 103 138 116 q 227 91 194 91 q 272 98 252 91 q 309 122 291 105 q 347 171 327 140 q 392 247 366 201 l 425 308 l 36 956 l 184 956 l 489 423 l 750 956 l 889 956 l 497 215 "},"¾":{"x_min":49,"x_max":1095.28125,"ha":1158,"o":"m 348 0 l 247 0 l 845 956 l 944 956 l 348 0 m 1020 122 l 1020 2 l 931 2 l 931 122 l 656 122 l 656 197 l 917 576 l 1020 576 l 1020 199 l 1095 199 l 1095 122 l 1020 122 m 932 485 q 920 464 927 476 q 904 438 912 451 q 889 413 896 425 q 876 394 881 401 l 742 199 l 931 199 l 931 395 q 931 417 931 404 q 931 443 931 430 q 931 468 931 456 q 932 485 931 479 m 467 539 q 414 417 467 460 q 265 374 361 374 q 166 387 206 374 q 102 422 127 400 q 65 471 77 443 q 49 527 53 498 l 141 536 q 177 468 147 491 q 265 445 207 445 q 345 469 317 445 q 374 545 374 493 q 361 593 374 575 q 329 622 348 612 q 287 634 310 631 q 245 638 265 638 l 204 638 l 204 712 l 242 712 q 283 716 262 712 q 321 731 304 720 q 349 759 338 741 q 360 804 360 777 q 334 868 360 845 q 261 892 309 892 q 186 868 215 892 q 154 800 158 844 l 62 808 q 83 877 66 848 q 127 925 100 906 q 189 954 154 945 q 263 964 223 964 q 346 952 310 964 q 405 921 381 941 q 441 874 429 901 q 453 816 453 848 q 423 728 453 766 q 333 678 394 691 l 333 676 q 394 660 368 673 q 435 629 419 648 q 459 588 452 611 q 467 539 467 564 "},"Ί":{"x_min":-16,"x_max":405,"ha":533,"o":"m 275 0 l 275 956 l 405 956 l 405 0 l 275 0 m -16 736 l -16 758 l 30 956 l 171 956 l 171 930 l 34 736 l -16 736 "},"ŉ":{"x_min":-1.0625,"x_max":749,"ha":839,"o":"m 626 0 l 626 465 q 618 554 626 518 q 592 612 610 590 q 546 643 575 634 q 474 653 517 653 q 395 637 430 653 q 336 593 360 622 q 297 522 311 564 q 284 425 284 480 l 284 0 l 162 0 l 162 577 q 161 625 162 600 q 160 673 161 651 q 159 712 159 696 q 157 734 158 729 l 273 734 q 274 715 273 730 q 276 681 275 700 q 277 641 277 661 q 278 608 278 621 l 280 608 q 319 665 298 640 q 368 709 340 691 q 432 737 396 727 q 515 747 468 747 q 621 732 577 747 q 693 685 665 717 q 735 605 722 654 q 749 488 749 556 l 749 0 l 626 0 m 135 857 q 131 792 135 821 q 122 737 128 763 q 105 690 115 712 q 82 646 95 667 l -1 646 q 45 734 29 690 q 62 822 62 779 l 3 822 l 3 956 l 135 956 l 135 857 "},"┴":{"x_min":-6.78125,"x_max":990.796875,"ha":984,"o":"m -6 373 l -6 471 l 443 471 l 443 1264 l 541 1264 l 541 471 l 990 471 l 990 373 l -6 373 "},"Ģ":{"x_min":70,"x_max":976,"ha":1080,"o":"m 70 482 q 100 684 70 594 q 190 838 130 774 q 339 935 250 901 q 545 970 427 970 q 699 954 633 970 q 814 909 765 938 q 897 838 863 880 q 955 744 931 796 l 831 708 q 789 772 814 743 q 729 821 764 800 q 647 852 694 841 q 541 864 601 864 q 391 836 455 864 q 285 759 327 809 q 222 638 243 709 q 202 481 202 568 q 224 324 202 395 q 290 200 246 252 q 400 119 334 148 q 551 91 465 91 q 655 100 607 91 q 740 125 702 109 q 808 159 779 140 q 857 196 837 177 l 857 369 l 572 369 l 572 478 l 976 478 l 976 148 q 901 86 944 115 q 804 34 858 56 q 687 -1 751 11 q 551 -14 623 -14 q 340 22 430 -14 q 190 126 250 59 q 100 283 130 192 q 70 482 70 374 m 622 -130 q 607 -225 622 -189 q 565 -294 592 -262 l 485 -294 q 532 -232 516 -261 q 549 -172 549 -203 l 490 -172 l 490 -66 l 622 -66 l 622 -130 "},"m":{"x_min":91.921875,"x_max":1066,"ha":1157,"o":"m 521 0 l 521 465 q 514 554 521 518 q 491 612 507 590 q 449 643 475 634 q 386 653 423 653 q 316 637 347 653 q 262 593 285 622 q 228 522 240 564 q 217 425 217 480 l 217 0 l 96 0 l 96 577 q 95 625 96 600 q 94 673 95 651 q 93 712 93 696 q 91 734 92 729 l 206 734 q 208 715 207 730 q 209 681 208 700 q 211 641 210 661 q 212 608 212 621 l 214 608 q 249 665 230 640 q 294 709 268 691 q 352 737 319 727 q 429 747 385 747 q 561 713 512 747 q 629 608 610 680 l 631 608 q 667 665 647 640 q 715 709 688 691 q 776 737 742 727 q 853 747 810 747 q 949 732 909 747 q 1015 685 990 717 q 1053 605 1041 654 q 1066 488 1066 556 l 1066 0 l 945 0 l 945 465 q 938 554 945 518 q 915 612 931 590 q 873 643 899 634 q 810 653 848 653 q 740 638 772 653 q 687 595 709 623 q 653 524 665 566 q 642 425 642 481 l 642 0 l 521 0 "},"Е":{"x_min":114,"x_max":866,"ha":926,"o":"m 114 0 l 114 956 l 838 956 l 838 850 l 244 850 l 244 544 l 798 544 l 798 440 l 244 440 l 244 106 l 866 106 l 866 0 l 114 0 "},"ž":{"x_min":33,"x_max":644.09375,"ha":695,"o":"m 33 0 l 33 92 l 481 640 l 60 640 l 60 734 l 619 734 l 619 641 l 170 94 l 644 94 l 644 0 l 33 0 m 403 815 l 264 815 l 106 998 l 106 1012 l 176 1012 l 333 897 l 335 897 l 483 1012 l 555 1012 l 555 998 l 403 815 "},"╞":{"x_min":443,"x_max":990.796875,"ha":984,"o":"m 443 1264 l 541 1264 l 541 593 l 990 593 l 990 495 l 541 495 l 541 349 l 990 349 l 990 251 l 541 251 l 541 -421 l 443 -421 l 443 1264 "},"á":{"x_min":59,"x_max":773,"ha":773,"o":"m 280 -14 q 114 44 170 -14 q 59 204 59 102 q 86 323 59 276 q 158 396 113 369 q 259 432 202 422 q 376 444 316 442 l 541 447 l 541 487 q 531 564 541 532 q 502 615 522 596 q 453 644 482 635 q 383 654 423 654 q 320 648 348 654 q 270 630 291 643 q 236 594 249 617 q 220 537 224 571 l 92 548 q 117 628 98 592 q 171 691 136 664 q 259 732 206 717 q 386 747 311 747 q 594 683 524 747 q 664 500 664 620 l 664 184 q 678 102 664 129 q 732 75 692 75 q 753 76 743 75 q 773 79 763 77 l 773 3 q 727 -4 749 -1 q 678 -7 704 -7 q 619 2 644 -7 q 578 30 594 11 q 555 76 563 48 q 545 140 547 103 l 541 140 q 497 76 521 105 q 443 27 474 47 q 372 -3 412 7 q 280 -14 332 -14 m 308 78 q 410 99 366 78 q 483 153 454 120 q 526 226 512 187 q 541 301 541 265 l 541 362 l 407 359 q 321 352 362 358 q 250 330 281 347 q 202 282 220 313 q 184 202 184 252 q 216 110 184 143 q 308 78 248 78 m 280 815 l 280 828 l 427 1023 l 568 1023 l 568 1003 l 343 815 l 280 815 "},"×":{"x_min":96.234375,"x_max":715.453125,"ha":811,"o":"m 96 223 l 336 463 l 97 702 l 168 772 l 405 532 l 642 770 l 714 699 l 476 463 l 715 224 l 646 153 l 406 392 l 165 152 l 96 223 "},"п":{"x_min":96,"x_max":656,"ha":752,"o":"m 656 734 l 656 0 l 534 0 l 534 645 l 218 645 l 218 0 l 96 0 l 96 734 l 656 734 "},"Ǻ":{"x_min":3,"x_max":923,"ha":926,"o":"m 628 943 q 615 886 628 913 q 579 839 602 859 q 556 822 568 829 l 923 0 l 790 0 l 681 252 l 247 252 l 137 0 l 3 0 l 374 819 q 347 839 360 828 q 312 886 325 859 q 300 943 300 913 q 312 1001 300 974 q 348 1047 325 1027 q 400 1079 370 1067 q 464 1091 430 1091 q 527 1079 497 1091 q 579 1047 557 1067 q 615 1001 602 1027 q 628 943 628 974 m 520 626 q 499 675 509 650 q 482 721 490 700 q 470 755 475 741 q 464 771 465 769 q 458 755 463 769 q 445 720 453 741 q 428 674 437 699 q 408 625 418 649 l 286 343 l 642 343 l 520 626 m 555 944 q 547 975 555 960 q 528 1001 540 990 q 499 1019 516 1013 q 464 1026 483 1026 q 428 1019 444 1026 q 399 1001 411 1013 q 380 975 387 990 q 373 944 373 960 q 380 911 373 926 q 399 884 387 896 q 427 866 411 872 q 458 860 442 860 l 464 860 q 499 866 483 860 q 528 884 516 872 q 547 911 540 896 q 555 944 555 926 m 387 1124 l 387 1134 l 534 1257 l 675 1257 l 675 1241 l 464 1124 l 387 1124 "},"K":{"x_min":114,"x_max":910.25,"ha":926,"o":"m 749 0 l 368 461 l 244 366 l 244 0 l 114 0 l 114 956 l 244 956 l 244 476 l 703 956 l 856 956 l 449 540 l 910 0 l 749 0 "},"7":{"x_min":71,"x_max":703,"ha":773,"o":"m 703 856 q 570 645 631 746 q 467 441 510 544 q 400 230 424 338 q 376 0 376 122 l 248 0 q 275 224 248 114 q 348 441 302 335 q 455 649 394 547 q 584 852 516 752 l 71 852 l 71 956 l 703 956 l 703 856 "},"¨":{"x_min":31,"x_max":409,"ha":463,"o":"m 298 827 l 298 952 l 409 952 l 409 827 l 298 827 m 31 827 l 31 952 l 143 952 l 143 827 l 31 827 "},"Y":{"x_min":30,"x_max":896,"ha":926,"o":"m 527 396 l 527 0 l 398 0 l 398 396 l 30 956 l 172 956 l 463 500 l 753 956 l 896 956 l 527 396 "},"E":{"x_min":114,"x_max":866,"ha":926,"o":"m 114 0 l 114 956 l 838 956 l 838 850 l 244 850 l 244 544 l 798 544 l 798 440 l 244 440 l 244 106 l 866 106 l 866 0 l 114 0 "},"Ô":{"x_min":66,"x_max":1013,"ha":1080,"o":"m 1013 482 q 980 278 1013 370 q 887 121 948 186 q 738 21 826 56 q 538 -14 650 -14 q 332 22 420 -14 q 184 126 243 59 q 95 283 125 192 q 66 482 66 374 q 97 684 66 594 q 188 838 128 774 q 337 935 248 901 q 540 970 425 970 q 742 935 653 970 q 890 836 830 900 q 981 682 950 773 q 1013 482 1013 592 m 881 481 q 859 638 881 568 q 794 759 837 709 q 687 836 751 809 q 540 864 623 864 q 390 836 455 864 q 283 759 326 809 q 219 638 240 709 q 198 481 198 568 q 220 324 198 395 q 284 200 242 252 q 391 119 327 148 q 539 91 455 91 q 693 120 628 91 q 799 201 757 149 q 861 325 841 253 q 881 481 881 397 m 767 1051 l 767 1038 l 695 1038 l 547 1132 l 545 1132 l 388 1038 l 318 1038 l 318 1051 l 476 1214 l 615 1214 l 767 1051 "},"Є":{"x_min":71,"x_max":950,"ha":998,"o":"m 537 864 q 403 840 462 864 q 303 775 345 817 q 236 672 261 732 q 205 537 211 611 l 648 537 l 648 433 l 205 433 q 237 293 211 356 q 306 185 263 230 q 409 116 349 141 q 542 92 469 92 q 651 109 603 92 q 735 154 699 126 q 799 217 772 181 q 844 291 826 253 l 950 238 q 886 138 922 185 q 799 58 849 92 q 684 5 749 24 q 536 -14 619 -14 q 333 22 420 -14 q 187 126 246 59 q 100 283 129 192 q 71 482 71 374 q 101 684 71 594 q 191 838 132 774 q 338 935 251 901 q 535 970 424 970 q 790 910 688 970 q 941 733 893 850 l 818 693 q 782 757 805 726 q 724 811 759 788 q 643 849 689 835 q 537 864 597 864 "},"Ï":{"x_min":5,"x_max":383,"ha":386,"o":"m 128 0 l 128 956 l 258 956 l 258 0 l 128 0 m 272 1038 l 272 1163 l 383 1163 l 383 1038 l 272 1038 m 5 1038 l 5 1163 l 117 1163 l 117 1038 l 5 1038 "},"ġ":{"x_min":58,"x_max":683.0625,"ha":773,"o":"m 371 -288 q 259 -275 308 -288 q 176 -238 211 -262 q 120 -180 141 -214 q 89 -106 98 -147 l 212 -89 q 265 -167 224 -140 q 375 -195 307 -195 q 450 -183 416 -195 q 508 -146 484 -171 q 545 -80 532 -121 q 558 18 558 -39 l 558 136 l 556 136 q 523 83 543 108 q 474 38 502 57 q 407 6 445 18 q 320 -5 369 -5 q 200 18 250 -5 q 118 88 150 41 q 72 204 87 135 q 58 365 58 274 q 72 524 58 453 q 120 643 87 594 q 205 718 153 692 q 333 745 258 745 q 469 709 411 745 q 558 607 526 673 l 559 607 q 560 646 559 624 q 562 685 561 667 q 564 718 563 704 q 567 734 566 731 l 683 734 q 681 713 682 727 q 680 678 681 698 q 679 633 679 658 q 679 582 679 608 l 679 21 q 603 -210 679 -132 q 371 -288 527 -288 m 558 366 q 541 497 558 443 q 497 586 524 552 q 435 637 470 621 q 363 654 400 654 q 282 637 316 654 q 227 586 249 621 q 194 497 205 551 q 184 366 184 442 q 194 233 184 287 q 226 146 205 179 q 281 99 248 113 q 361 85 315 85 q 433 100 398 85 q 496 150 468 116 q 541 237 524 183 q 558 366 558 290 m 310 889 l 310 1006 l 432 1006 l 432 889 l 310 889 "},"έ":{"x_min":47,"x_max":593,"ha":619,"o":"m 309 77 q 378 87 345 77 q 437 114 411 98 q 486 149 464 130 q 521 186 507 168 l 593 118 q 542 67 571 91 q 478 25 514 43 q 398 -3 442 7 q 300 -14 353 -14 q 187 1 235 -14 q 108 45 140 17 q 62 113 77 74 q 47 199 47 152 q 61 271 47 238 q 99 326 75 303 q 156 364 124 350 q 226 381 189 378 l 226 383 q 162 400 191 387 q 112 436 133 414 q 80 487 92 457 q 69 550 69 516 q 86 628 69 592 q 135 691 103 664 q 213 732 167 717 q 319 747 260 747 q 464 717 399 747 q 575 621 529 688 l 487 561 q 413 632 455 609 q 319 656 370 656 q 224 627 257 656 q 192 548 192 598 q 210 485 192 509 q 262 449 229 462 q 340 433 295 437 q 436 429 384 429 l 436 337 q 339 333 387 337 q 255 316 292 329 q 196 275 218 302 q 174 201 174 248 q 183 147 174 171 q 211 108 193 124 q 254 85 229 93 q 309 77 279 77 m 276 826 l 276 848 l 322 1046 l 463 1046 l 463 1020 l 326 826 l 276 826 "},"ϋ":{"x_min":90,"x_max":693,"ha":760,"o":"m 693 387 q 675 220 693 294 q 618 93 657 146 q 520 13 580 41 q 377 -14 461 -14 q 249 2 303 -14 q 159 56 195 19 q 107 148 124 92 q 90 283 90 205 l 90 734 l 213 734 l 213 279 q 252 130 213 180 q 383 80 292 80 q 468 96 432 80 q 525 150 503 113 q 557 245 547 187 q 568 384 568 302 q 561 480 568 430 q 543 577 554 530 q 518 665 532 624 q 490 734 504 706 l 617 734 q 643 668 629 706 q 667 584 657 630 q 685 488 678 539 q 693 387 693 438 m 462 827 l 462 952 l 573 952 l 573 827 l 462 827 m 195 827 l 195 952 l 307 952 l 307 827 l 195 827 "},"й":{"x_min":96,"x_max":680,"ha":776,"o":"m 214 734 l 214 332 q 212 290 214 316 q 210 236 211 264 q 208 183 209 208 q 207 144 207 158 l 546 734 l 680 734 l 680 0 l 563 0 l 563 447 q 563 479 563 460 q 565 519 564 499 q 567 559 566 540 q 569 592 568 578 l 226 0 l 96 0 l 96 734 l 214 734 m 390 814 q 266 833 314 814 q 191 883 219 852 q 153 953 164 914 q 141 1031 142 992 l 252 1031 q 291 928 256 961 q 390 896 326 896 q 488 928 453 896 q 528 1031 523 961 l 639 1031 q 626 953 637 992 q 588 883 615 914 q 513 833 560 852 q 390 814 465 814 "},"b":{"x_min":89.9375,"x_max":714,"ha":773,"o":"m 714 369 q 444 -14 714 -14 q 305 16 361 -14 q 216 113 250 46 l 214 113 q 213 76 214 95 q 211 41 212 58 q 209 14 210 25 q 207 0 208 2 l 89 0 q 91 20 90 6 q 92 55 91 35 q 93 100 93 75 q 94 151 94 124 l 94 1006 l 216 1006 l 216 719 q 215 680 216 699 q 214 647 215 661 q 213 615 213 630 l 216 615 q 305 716 249 686 q 444 747 361 747 q 648 653 583 747 q 714 369 714 559 m 586 365 q 576 496 586 441 q 546 585 567 550 q 492 636 525 620 q 413 653 459 653 q 328 637 365 653 q 266 587 291 621 q 228 496 241 552 q 216 358 216 439 q 228 226 216 279 q 266 138 241 172 q 327 90 291 105 q 411 76 364 76 q 489 91 456 76 q 543 141 521 107 q 575 231 565 176 q 586 365 586 287 "},"ύ":{"x_min":90,"x_max":693,"ha":760,"o":"m 693 387 q 675 220 693 294 q 618 93 657 146 q 520 13 580 41 q 377 -14 461 -14 q 249 2 303 -14 q 159 56 195 19 q 107 148 124 92 q 90 283 90 205 l 90 734 l 213 734 l 213 279 q 252 130 213 180 q 383 80 292 80 q 468 96 432 80 q 525 150 503 113 q 557 245 547 187 q 568 384 568 302 q 561 480 568 430 q 543 577 554 530 q 518 665 532 624 q 490 734 504 706 l 617 734 q 643 668 629 706 q 667 584 657 630 q 685 488 678 539 q 693 387 693 438 m 310 826 l 310 848 l 356 1046 l 497 1046 l 497 1020 l 360 826 l 310 826 "},"ﬂ":{"x_min":19.90625,"x_max":602,"ha":695,"o":"m 245 645 l 245 0 l 123 0 l 123 645 l 19 645 l 19 734 l 123 734 l 123 816 q 130 890 123 856 q 157 950 137 925 q 212 990 177 975 q 301 1005 247 1005 q 346 1002 323 1005 q 388 996 370 1000 l 388 903 q 361 907 376 905 q 333 909 345 909 q 289 901 306 909 q 262 880 272 894 q 248 846 252 866 q 245 799 245 825 l 245 734 l 388 734 l 388 645 l 245 645 m 480 0 l 480 1006 l 602 1006 l 602 0 l 480 0 "},"ф":{"x_min":58,"x_max":1083,"ha":1143,"o":"m 1083 369 q 1070 215 1083 286 q 1028 94 1057 145 q 951 14 998 43 q 835 -14 903 -14 q 710 15 764 -14 q 628 113 657 45 l 624 113 q 626 63 625 89 q 628 -1 628 37 l 628 -288 l 513 -288 l 513 -1 q 513 62 513 34 q 516 117 514 90 l 513 117 q 431 16 481 46 q 305 -14 380 -14 q 118 79 179 -14 q 58 363 58 172 q 120 651 58 555 q 305 747 183 747 q 431 716 381 747 q 513 619 482 686 l 516 619 q 515 640 516 626 q 514 669 515 654 q 513 699 513 685 q 513 722 513 713 l 513 1006 l 628 1006 l 628 721 q 627 699 628 713 q 626 668 627 684 q 626 638 626 652 q 625 615 625 623 l 629 615 q 709 716 660 686 q 835 746 758 746 q 951 719 903 746 q 1028 642 998 692 q 1070 524 1057 593 q 1083 369 1083 454 m 186 367 q 194 236 186 291 q 222 147 203 182 q 270 96 241 112 q 340 80 299 80 q 412 94 380 80 q 466 142 444 109 q 500 229 488 175 q 513 359 511 282 l 513 375 q 501 507 513 453 q 468 594 489 561 q 414 642 446 627 q 341 657 382 657 q 273 641 302 657 q 225 591 244 625 q 195 501 205 556 q 186 367 186 445 m 955 367 q 947 487 955 435 q 921 577 939 540 q 874 633 904 614 q 801 652 844 652 q 733 640 765 652 q 678 596 702 629 q 641 506 655 564 q 628 357 628 449 l 628 342 q 640 217 628 268 q 674 135 652 166 q 727 89 696 103 q 799 75 758 75 q 873 95 843 75 q 921 152 903 115 q 947 243 939 189 q 955 367 955 297 "},"Ŋ":{"x_min":112.28125,"x_max":904,"ha":1004,"o":"m 638 -14 q 568 -5 600 -14 q 508 15 535 2 q 460 47 482 29 q 423 86 439 65 l 509 164 q 568 111 534 133 q 642 90 602 90 q 711 109 685 90 q 752 165 738 129 q 770 253 766 201 q 775 370 775 305 l 775 588 q 761 714 775 661 q 721 799 748 766 q 650 848 693 832 q 548 864 607 864 q 429 842 484 864 q 333 786 374 821 q 268 703 292 750 q 245 604 245 656 l 245 0 l 115 0 l 115 740 q 114 797 115 766 q 113 858 114 828 q 113 915 113 889 q 112 956 112 941 l 237 956 q 239 919 238 941 q 240 874 240 898 q 241 827 241 851 q 242 785 242 804 l 245 785 q 302 860 268 826 q 381 918 337 895 q 477 955 426 942 q 588 969 529 969 q 732 947 672 969 q 830 880 792 925 q 886 766 868 835 q 904 602 904 696 l 904 367 q 893 208 904 279 q 854 88 883 137 q 773 12 825 38 q 638 -14 722 -14 "},"╩":{"x_min":-6.78125,"x_max":990.796875,"ha":984,"o":"m 565 1264 l 663 1264 l 663 593 l 990 593 l 990 495 l 565 495 l 565 1264 m 321 1264 l 419 1264 l 419 495 l -6 495 l -6 593 l 321 593 l 321 1264 m -6 251 l -6 349 l 990 349 l 990 251 l -6 251 "},"Ũ":{"x_min":107,"x_max":896,"ha":1003,"o":"m 495 -14 q 346 7 417 -14 q 222 72 275 28 q 138 185 169 117 q 107 347 107 253 l 107 956 l 237 956 l 237 357 q 256 234 237 285 q 310 152 275 184 q 391 105 344 120 q 495 91 438 91 q 600 105 550 91 q 687 153 649 120 q 745 238 724 186 q 767 366 767 291 l 767 956 l 896 956 l 896 359 q 864 193 896 263 q 778 76 832 123 q 651 8 724 30 q 495 -14 578 -14 m 608 1038 q 551 1050 579 1038 q 496 1078 522 1063 q 445 1106 469 1093 q 400 1119 421 1119 q 345 1097 363 1119 q 320 1038 326 1076 l 259 1038 q 269 1100 262 1068 q 291 1159 275 1133 q 331 1203 306 1186 q 396 1220 356 1220 q 454 1207 426 1220 q 509 1179 483 1194 q 559 1151 536 1164 q 603 1139 583 1139 q 658 1160 639 1139 q 682 1220 677 1181 l 745 1220 q 734 1157 741 1190 q 713 1099 728 1125 q 673 1055 698 1072 q 608 1038 648 1038 "},"Щ":{"x_min":114,"x_max":1247,"ha":1302,"o":"m 1247 109 l 1247 -277 l 1125 -277 l 1125 0 l 114 0 l 114 956 l 244 956 l 244 109 l 560 109 l 560 956 l 686 956 l 686 109 l 1002 109 l 1002 956 l 1128 956 l 1128 109 l 1247 109 "},"L":{"x_min":114,"x_max":726,"ha":773,"o":"m 114 0 l 114 956 l 244 956 l 244 106 l 726 106 l 726 0 l 114 0 "},";":{"x_min":124.9375,"x_max":261,"ha":386,"o":"m 261 140 l 261 34 q 257 -31 261 -1 q 248 -86 254 -60 q 231 -133 241 -111 q 208 -178 221 -156 l 124 -178 q 171 -89 155 -133 q 188 0 188 -44 l 129 0 l 129 140 l 261 140 m 129 594 l 129 734 l 261 734 l 261 594 l 129 594 "},"ď":{"x_min":58,"x_max":868,"ha":854,"o":"m 557 117 q 467 16 523 46 q 328 -14 411 -14 q 123 79 189 -14 q 58 363 58 173 q 328 747 58 747 q 467 716 411 747 q 557 619 523 686 l 558 619 q 558 641 558 626 q 557 671 557 655 q 557 701 557 687 q 557 722 557 715 l 557 1006 l 679 1006 l 679 151 q 679 100 679 124 q 680 55 679 75 q 681 20 681 35 q 683 0 682 6 l 566 0 q 564 19 565 6 q 562 47 563 31 q 560 81 561 64 q 559 117 559 99 l 557 117 m 186 367 q 195 236 186 291 q 226 147 205 182 q 279 96 247 112 q 359 80 312 80 q 444 95 407 80 q 506 146 481 111 q 544 237 531 181 q 557 375 557 293 q 544 507 557 453 q 506 594 531 561 q 444 642 480 627 q 360 657 408 657 q 283 641 315 657 q 228 591 250 625 q 196 501 207 556 q 186 367 186 445 m 868 935 q 853 836 868 876 q 811 765 838 796 l 731 765 q 778 830 762 797 q 795 894 795 862 l 736 894 l 736 1007 l 868 1007 l 868 935 "},"Ο":{"x_min":66,"x_max":1013,"ha":1080,"o":"m 1013 482 q 980 278 1013 370 q 887 121 948 186 q 738 21 826 56 q 538 -14 650 -14 q 332 22 420 -14 q 184 126 243 59 q 95 283 125 192 q 66 482 66 374 q 97 684 66 594 q 188 838 128 774 q 337 935 248 901 q 540 970 425 970 q 742 935 653 970 q 890 836 830 900 q 981 682 950 773 q 1013 482 1013 592 m 881 481 q 859 638 881 568 q 794 759 837 709 q 687 836 751 809 q 540 864 623 864 q 390 836 455 864 q 283 759 326 809 q 219 638 240 709 q 198 481 198 568 q 220 324 198 395 q 284 200 242 252 q 391 119 327 148 q 539 91 455 91 q 693 120 628 91 q 799 201 757 149 q 861 325 841 253 q 881 481 881 397 "},"Ĭ":{"x_min":-31,"x_max":421,"ha":386,"o":"m 128 0 l 128 956 l 258 956 l 258 0 l 128 0 m 194 1038 q 104 1051 144 1038 q 36 1089 65 1065 q -8 1143 8 1112 q -31 1207 -25 1173 l 48 1207 q 96 1150 59 1170 q 195 1130 133 1130 q 293 1150 257 1130 q 341 1207 330 1171 l 421 1207 q 397 1143 414 1173 q 352 1089 380 1112 q 285 1051 324 1065 q 194 1038 245 1038 "},"♪":{"x_min":133,"x_max":561,"ha":695,"o":"m 332 782 l 384 782 l 384 714 l 487 583 q 541 481 521 536 q 561 368 561 426 q 544 270 561 315 q 497 185 528 224 l 465 185 q 494 271 485 229 q 504 353 504 313 q 494 427 504 393 q 465 487 485 460 q 384 548 427 542 l 384 205 q 371 129 384 163 q 333 70 358 96 q 211 20 284 20 q 152 38 172 20 q 133 87 133 56 q 173 178 133 137 q 270 219 216 219 q 332 206 300 219 l 332 782 "},"ŧ":{"x_min":21.234375,"x_max":376,"ha":386,"o":"m 228 350 l 228 181 q 245 107 228 128 q 305 86 262 86 q 339 88 323 86 q 376 95 356 91 l 376 5 q 319 -6 348 -2 q 252 -11 290 -11 q 106 155 106 -11 l 106 350 l 21 350 l 21 439 l 106 439 l 106 645 l 21 645 l 21 734 l 110 734 l 146 898 l 228 898 l 228 734 l 363 734 l 363 645 l 228 645 l 228 439 l 363 439 l 363 350 l 228 350 "},"À":{"x_min":3,"x_max":923,"ha":926,"o":"m 790 0 l 681 280 l 247 280 l 137 0 l 3 0 l 392 956 l 539 956 l 923 0 l 790 0 m 520 696 q 500 751 509 723 q 482 801 490 779 q 470 839 475 824 q 464 858 465 854 q 458 839 463 854 q 445 800 453 823 q 428 749 438 777 q 408 694 418 722 l 286 381 l 643 381 l 520 696 m 508 1038 l 298 1185 l 298 1205 l 438 1205 l 586 1051 l 586 1038 l 508 1038 "},"Ϊ":{"x_min":5,"x_max":383,"ha":386,"o":"m 128 0 l 128 956 l 258 956 l 258 0 l 128 0 m 272 1038 l 272 1163 l 383 1163 l 383 1038 l 272 1038 m 5 1038 l 5 1163 l 117 1163 l 117 1038 l 5 1038 "},"‑":{"x_min":62,"x_max":401,"ha":463,"o":"m 62 315 l 62 424 l 401 424 l 401 315 l 62 315 "},"½":{"x_min":38,"x_max":1120.8125,"ha":1158,"o":"m 38 382 l 38 455 l 181 455 l 181 875 l 44 782 l 44 863 l 186 956 l 270 956 l 270 455 l 416 455 l 416 382 l 38 382 m 334 0 l 233 0 l 831 956 l 930 956 l 334 0 m 714 2 l 712 72 q 760 146 730 113 q 824 206 790 178 q 893 257 858 233 q 955 307 928 282 q 1001 358 983 331 q 1019 419 1019 386 q 994 486 1019 461 q 920 512 970 512 q 844 487 874 512 q 809 416 814 462 l 719 421 q 738 486 723 456 q 780 537 754 515 q 842 571 805 558 q 924 584 878 584 q 1003 572 968 584 q 1062 541 1038 561 q 1099 491 1086 520 q 1112 426 1112 462 q 1093 350 1112 384 q 1047 287 1075 316 q 984 232 1019 257 q 917 182 949 207 q 859 132 885 157 q 820 79 832 107 l 1120 79 l 1120 2 l 714 2 "},"╛":{"x_min":-6.78125,"x_max":541,"ha":984,"o":"m -6 251 l -6 349 l 443 349 l 443 495 l -6 495 l -6 593 l 443 593 l 443 1264 l 541 1264 l 541 251 l -6 251 "},"╜":{"x_min":-6.78125,"x_max":663,"ha":984,"o":"m 663 373 l -6 373 l -6 471 l 321 471 l 321 1264 l 419 1264 l 419 471 l 565 471 l 565 1264 l 663 1264 l 663 373 "},"'":{"x_min":71,"x_max":196,"ha":265,"o":"m 181 656 l 85 656 l 71 956 l 196 956 l 181 656 "},"ĳ":{"x_min":93,"x_max":523,"ha":617,"o":"m 93 889 l 93 1006 l 215 1006 l 215 889 l 93 889 m 93 0 l 93 734 l 215 734 l 215 0 l 93 0 m 401 889 l 401 1006 l 523 1006 l 523 889 l 401 889 m 523 -90 q 515 -168 523 -132 q 490 -231 508 -204 q 440 -272 472 -257 q 360 -288 409 -288 q 315 -286 337 -288 q 274 -281 293 -285 l 274 -187 q 295 -190 282 -189 q 316 -192 307 -192 q 358 -185 341 -192 q 384 -163 375 -178 q 397 -126 394 -149 q 401 -72 401 -103 l 401 734 l 523 734 l 523 -90 "},"╟":{"x_min":321,"x_max":990.796875,"ha":984,"o":"m 565 1264 l 663 1264 l 663 471 l 990 471 l 990 373 l 663 373 l 663 -421 l 565 -421 l 565 1264 m 321 1264 l 419 1264 l 419 -421 l 321 -421 l 321 1264 "},"Р":{"x_min":114,"x_max":853,"ha":926,"o":"m 853 668 q 832 552 853 606 q 770 458 811 498 q 668 396 729 419 q 524 373 606 373 l 244 373 l 244 0 l 114 0 l 114 956 l 516 956 q 663 935 600 956 q 768 877 726 914 q 831 786 810 839 q 853 668 853 732 m 723 666 q 667 804 723 757 q 500 852 611 852 l 244 852 l 244 475 l 506 475 q 670 524 617 475 q 723 666 723 574 "},"˛":{"x_min":54,"x_max":291,"ha":463,"o":"m 291 -271 q 248 -284 272 -279 q 196 -290 223 -290 q 89 -255 125 -290 q 54 -163 54 -220 q 65 -104 54 -131 q 93 -56 77 -77 q 127 -21 109 -36 q 159 0 145 -7 l 249 0 q 215 -24 232 -9 q 182 -60 197 -40 q 159 -103 168 -80 q 150 -153 150 -127 q 166 -198 150 -182 q 213 -215 183 -215 q 252 -210 232 -215 q 291 -198 272 -206 l 291 -271 "},"♂":{"x_min":229,"x_max":812.921875,"ha":1042,"o":"m 693 695 q 663 704 682 698 q 620 720 645 710 q 588 736 601 727 q 565 753 574 744 q 560 759 561 755 q 559 766 559 762 q 563 777 559 771 q 567 779 565 778 q 573 780 569 780 q 581 779 576 780 q 595 777 586 778 q 638 769 617 772 q 681 766 659 766 q 734 768 712 766 q 768 774 756 770 q 802 782 793 782 q 812 773 812 782 q 808 755 812 767 q 800 705 802 732 q 798 647 798 678 q 799 604 798 626 q 806 560 800 583 q 808 547 807 552 q 808 538 808 541 q 808 532 808 534 q 806 528 807 530 q 796 524 800 524 q 768 550 782 524 q 743 607 753 579 q 725 663 733 634 l 565 501 q 622 372 622 446 q 563 229 622 288 q 424 170 504 170 q 285 226 344 170 q 229 363 229 283 q 285 501 229 442 q 426 560 343 560 q 530 530 474 560 l 693 695 m 426 509 q 323 467 365 509 q 282 366 282 425 q 323 263 282 304 q 426 222 366 222 q 527 263 486 222 q 569 366 569 305 q 527 467 569 425 q 426 509 486 509 "},"╨":{"x_min":-6.78125,"x_max":990.796875,"ha":984,"o":"m -6 373 l -6 471 l 321 471 l 321 1264 l 419 1264 l 419 471 l 565 471 l 565 1264 l 663 1264 l 663 471 l 990 471 l 990 373 l -6 373 "},"Ć":{"x_min":71,"x_max":950,"ha":1003,"o":"m 537 864 q 393 836 456 864 q 288 759 331 809 q 224 638 246 709 q 203 481 203 567 q 226 323 203 395 q 293 200 249 252 q 400 120 337 149 q 542 92 463 92 q 644 106 598 92 q 726 147 689 121 q 792 210 763 174 q 844 291 822 246 l 950 238 q 886 138 924 184 q 797 58 848 92 q 681 5 746 24 q 536 -14 616 -14 q 333 22 420 -14 q 187 126 246 59 q 100 283 129 192 q 71 482 71 374 q 101 684 71 594 q 191 838 132 774 q 338 935 251 901 q 535 970 424 970 q 790 910 688 970 q 941 733 893 850 l 818 693 q 782 757 805 726 q 724 811 759 788 q 643 849 689 835 q 537 864 597 864 m 452 1038 l 452 1051 l 599 1205 l 740 1205 l 740 1185 l 529 1038 l 452 1038 "},"Т":{"x_min":31,"x_max":816,"ha":848,"o":"m 488 850 l 488 0 l 359 0 l 359 850 l 31 850 l 31 956 l 816 956 l 816 850 l 488 850 "},"£":{"x_min":39.546875,"x_max":749,"ha":773,"o":"m 749 210 q 723 116 742 156 q 674 51 704 77 q 604 12 643 25 q 520 0 565 0 l 47 0 l 47 104 q 136 190 107 135 q 166 327 166 244 l 166 425 l 39 425 l 39 512 l 166 512 l 166 701 q 182 813 166 764 q 232 898 198 863 q 317 951 265 932 q 438 970 368 970 q 527 960 486 970 q 603 930 569 950 q 660 881 636 911 q 697 814 684 852 l 579 775 q 558 814 572 796 q 527 844 545 831 q 487 863 509 856 q 441 870 465 870 q 325 831 363 870 q 288 707 288 792 l 288 512 l 564 512 l 564 425 l 288 425 l 288 339 q 280 265 288 301 q 258 197 273 229 q 221 142 243 166 q 173 104 200 118 l 500 104 q 548 110 526 104 q 589 131 571 116 q 620 167 607 145 q 638 223 632 190 l 749 210 "},"ů":{"x_min":90,"x_max":681.0625,"ha":773,"o":"m 213 734 l 213 268 q 220 178 213 214 q 246 120 228 142 q 292 89 264 98 q 364 80 321 80 q 443 95 408 80 q 502 139 478 110 q 541 210 527 168 q 555 308 555 253 l 555 734 l 677 734 l 677 156 q 677 108 677 133 q 678 60 677 82 q 679 21 679 37 q 681 0 680 4 l 565 0 q 564 18 565 3 q 562 52 563 33 q 561 91 561 71 q 560 124 560 111 l 558 124 q 519 67 540 92 q 470 23 498 41 q 406 -4 442 5 q 323 -14 370 -14 q 217 0 261 -14 q 145 47 173 15 q 103 127 116 78 q 90 244 90 176 l 90 734 l 213 734 m 550 956 q 537 892 550 922 q 501 840 524 862 q 449 804 479 817 q 386 792 419 792 q 322 804 352 792 q 270 840 292 817 q 234 892 247 862 q 222 956 222 922 q 234 1020 222 990 q 270 1072 247 1050 q 322 1107 292 1094 q 386 1120 352 1120 q 449 1107 419 1120 q 501 1072 479 1094 q 537 1020 524 1050 q 550 956 550 990 m 477 956 q 469 991 477 975 q 450 1020 462 1008 q 421 1039 438 1032 q 386 1047 405 1047 q 350 1039 366 1047 q 321 1020 333 1032 q 302 991 309 1008 q 295 956 295 975 q 302 919 295 936 q 321 890 309 903 q 350 870 333 877 q 386 863 366 863 q 421 870 405 863 q 450 890 438 877 q 469 919 462 903 q 477 956 477 936 "},"Ō":{"x_min":66,"x_max":1013,"ha":1080,"o":"m 1013 482 q 980 278 1013 370 q 887 121 948 186 q 738 21 826 56 q 538 -14 650 -14 q 332 22 420 -14 q 184 126 243 59 q 95 283 125 192 q 66 482 66 374 q 97 684 66 594 q 188 838 128 774 q 337 935 248 901 q 540 970 425 970 q 742 935 653 970 q 890 836 830 900 q 981 682 950 773 q 1013 482 1013 592 m 881 481 q 859 638 881 568 q 794 759 837 709 q 687 836 751 809 q 540 864 623 864 q 390 836 455 864 q 283 759 326 809 q 219 638 240 709 q 198 481 198 568 q 220 324 198 395 q 284 200 242 252 q 391 119 327 148 q 539 91 455 91 q 693 120 628 91 q 799 201 757 149 q 861 325 841 253 q 881 481 881 397 m 726 1065 l 354 1065 l 354 1151 l 726 1151 l 726 1065 "},"а":{"x_min":59,"x_max":773,"ha":773,"o":"m 280 -14 q 114 44 170 -14 q 59 204 59 102 q 86 323 59 276 q 158 396 113 369 q 259 432 202 422 q 376 444 316 442 l 541 447 l 541 487 q 531 564 541 532 q 502 615 522 596 q 453 644 482 635 q 383 654 423 654 q 320 648 348 654 q 270 630 291 643 q 236 594 249 617 q 220 537 224 571 l 92 548 q 117 628 98 592 q 171 691 136 664 q 259 732 206 717 q 386 747 311 747 q 594 683 524 747 q 664 500 664 620 l 664 184 q 678 102 664 129 q 732 75 692 75 q 753 76 743 75 q 773 79 763 77 l 773 3 q 727 -4 749 -1 q 678 -7 704 -7 q 619 2 644 -7 q 578 30 594 11 q 555 76 563 48 q 545 140 547 103 l 541 140 q 497 76 521 105 q 443 27 474 47 q 372 -3 412 7 q 280 -14 332 -14 m 308 78 q 410 99 366 78 q 483 153 454 120 q 526 226 512 187 q 541 301 541 265 l 541 362 l 407 359 q 321 352 362 358 q 250 330 281 347 q 202 282 220 313 q 184 202 184 252 q 216 110 184 143 q 308 78 248 78 "},"Ğ":{"x_min":70,"x_max":976,"ha":1080,"o":"m 70 482 q 100 684 70 594 q 190 838 130 774 q 339 935 250 901 q 545 970 427 970 q 699 954 633 970 q 814 909 765 938 q 897 838 863 880 q 955 744 931 796 l 831 708 q 789 772 814 743 q 729 821 764 800 q 647 852 694 841 q 541 864 601 864 q 391 836 455 864 q 285 759 327 809 q 222 638 243 709 q 202 481 202 568 q 224 324 202 395 q 290 200 246 252 q 400 119 334 148 q 551 91 465 91 q 655 100 607 91 q 740 125 702 109 q 808 159 779 140 q 857 196 837 177 l 857 369 l 572 369 l 572 478 l 976 478 l 976 148 q 901 86 944 115 q 804 34 858 56 q 687 -1 751 11 q 551 -14 623 -14 q 340 22 430 -14 q 190 126 250 59 q 100 283 130 192 q 70 482 70 374 m 549 1038 q 459 1051 499 1038 q 391 1089 420 1065 q 346 1143 363 1112 q 324 1207 329 1173 l 403 1207 q 451 1150 414 1170 q 550 1130 488 1130 q 648 1150 612 1130 q 696 1207 685 1171 l 776 1207 q 752 1143 769 1173 q 707 1089 735 1112 q 640 1051 679 1065 q 549 1038 600 1038 "},"v":{"x_min":4.75,"x_max":690.25,"ha":695,"o":"m 416 0 l 271 0 l 4 734 l 134 734 l 296 256 q 307 220 301 241 q 321 175 314 198 q 333 131 327 152 q 343 95 339 109 q 354 131 347 109 q 367 175 360 152 q 381 218 374 197 q 393 255 388 240 l 560 734 l 690 734 l 416 0 "},"Ї":{"x_min":5,"x_max":383,"ha":386,"o":"m 128 0 l 128 956 l 258 956 l 258 0 l 128 0 m 272 1038 l 272 1163 l 383 1163 l 383 1038 l 272 1038 m 5 1038 l 5 1163 l 117 1163 l 117 1038 l 5 1038 "},"û":{"x_min":94,"x_max":685.0625,"ha":773,"o":"m 217 734 l 217 268 q 224 178 217 214 q 250 120 232 142 q 296 89 268 98 q 368 80 325 80 q 447 95 412 80 q 506 139 482 110 q 545 210 531 168 q 559 308 559 253 l 559 734 l 681 734 l 681 156 q 681 108 681 133 q 682 60 681 82 q 683 21 683 37 q 685 0 684 4 l 569 0 q 568 18 569 3 q 566 52 567 33 q 565 91 565 71 q 564 124 564 111 l 562 124 q 523 67 544 92 q 474 23 502 41 q 410 -4 446 5 q 327 -14 374 -14 q 221 0 265 -14 q 149 47 177 15 q 107 127 120 78 q 94 244 94 176 l 94 734 l 217 734 m 612 828 l 612 815 l 540 815 l 392 930 l 390 930 l 233 815 l 163 815 l 163 828 l 321 1012 l 460 1012 l 612 828 "},"Ź":{"x_min":44,"x_max":804.875,"ha":848,"o":"m 804 0 l 44 0 l 44 97 l 625 850 l 93 850 l 93 956 l 773 956 l 773 861 l 191 106 l 804 106 l 804 0 m 331 1038 l 331 1051 l 478 1205 l 619 1205 l 619 1185 l 408 1038 l 331 1038 "},"╒":{"x_min":443,"x_max":990.796875,"ha":984,"o":"m 443 593 l 990 593 l 990 495 l 541 495 l 541 349 l 990 349 l 990 251 l 541 251 l 541 -421 l 443 -421 l 443 593 "},"ˉ":{"x_min":35,"x_max":407,"ha":463,"o":"m 407 838 l 35 838 l 35 924 l 407 924 l 407 838 "},"":{"x_min":81,"x_max":328,"ha":463,"o":"m 328 -171 q 317 -221 328 -199 q 285 -260 307 -244 q 228 -285 263 -277 q 142 -294 192 -294 q 113 -293 128 -294 q 81 -291 97 -293 l 81 -224 q 139 -229 114 -229 q 186 -224 167 -229 q 216 -213 205 -220 q 233 -196 228 -206 q 239 -174 239 -186 q 218 -135 239 -149 q 148 -122 197 -122 q 129 -122 139 -122 q 110 -123 119 -122 l 131 -58 l 173 -58 q 236 -64 208 -58 q 285 -84 265 -70 q 317 -119 306 -98 q 328 -171 328 -140 "},"Ĺ":{"x_min":114,"x_max":726,"ha":773,"o":"m 114 0 l 114 956 l 244 956 l 244 106 l 726 106 l 726 0 l 114 0 m 166 1038 l 166 1051 l 313 1205 l 454 1205 l 454 1185 l 243 1038 l 166 1038 "},"₤":{"x_min":39.546875,"x_max":749,"ha":773,"o":"m 749 210 q 723 116 742 156 q 674 51 704 77 q 604 12 643 25 q 520 0 565 0 l 47 0 l 47 104 q 136 190 107 135 q 166 327 166 244 l 166 344 l 39 344 l 39 431 l 166 431 l 166 526 l 39 526 l 39 613 l 166 613 l 166 701 q 182 813 166 763 q 232 898 198 863 q 317 951 265 932 q 438 970 368 970 q 527 960 486 970 q 603 930 569 950 q 660 881 636 911 q 697 814 684 852 l 579 775 q 558 814 572 796 q 527 844 545 831 q 487 863 509 856 q 441 870 465 870 q 325 830 363 870 q 288 706 288 791 l 288 613 l 564 613 l 564 526 l 288 526 l 288 431 l 564 431 l 564 344 l 288 344 l 288 339 q 280 265 288 301 q 258 197 273 229 q 221 142 243 166 q 173 104 200 118 l 500 104 q 548 110 526 104 q 589 131 571 116 q 620 167 607 145 q 638 223 632 190 l 749 210 "},"┐":{"x_min":-6.78125,"x_max":541,"ha":984,"o":"m -6 373 l -6 471 l 541 471 l 541 -421 l 443 -421 l 443 373 l -6 373 "},"Č":{"x_min":71,"x_max":950,"ha":1003,"o":"m 537 864 q 393 836 456 864 q 288 759 331 809 q 224 638 246 709 q 203 481 203 567 q 226 323 203 395 q 293 200 249 252 q 400 120 337 149 q 542 92 463 92 q 644 106 598 92 q 726 147 689 121 q 792 210 763 174 q 844 291 822 246 l 950 238 q 886 138 924 184 q 797 58 848 92 q 681 5 746 24 q 536 -14 616 -14 q 333 22 420 -14 q 187 126 246 59 q 100 283 129 192 q 71 482 71 374 q 101 684 71 594 q 191 838 132 774 q 338 935 251 901 q 535 970 424 970 q 790 910 688 970 q 941 733 893 850 l 818 693 q 782 757 805 726 q 724 811 759 788 q 643 849 689 835 q 537 864 597 864 m 609 1038 l 470 1038 l 312 1199 l 312 1214 l 382 1214 l 539 1120 l 541 1120 l 689 1214 l 761 1214 l 761 1199 l 609 1038 "},"x":{"x_min":15.75,"x_max":680.25,"ha":695,"o":"m 543 0 l 346 301 l 147 0 l 15 0 l 277 377 l 27 734 l 162 734 l 346 448 l 528 734 l 665 734 l 415 378 l 680 0 l 543 0 "},"è":{"x_min":59,"x_max":711,"ha":773,"o":"m 187 341 q 198 234 187 283 q 235 151 210 186 q 298 97 260 116 q 391 78 337 78 q 519 109 471 78 q 584 191 567 141 l 691 160 q 658 98 679 129 q 603 42 638 67 q 517 2 568 18 q 391 -14 465 -14 q 144 82 229 -14 q 59 371 59 179 q 84 545 59 474 q 155 662 110 617 q 259 726 200 706 q 387 747 319 747 q 541 717 479 747 q 641 634 603 687 q 695 511 679 582 q 711 357 711 439 l 711 341 l 187 341 m 585 435 q 525 603 574 550 q 385 657 477 657 q 321 647 354 657 q 258 612 287 637 q 210 544 230 587 q 188 435 191 501 l 585 435 m 446 815 l 222 1003 l 222 1023 l 362 1023 l 510 828 l 510 815 l 446 815 "},"Ń":{"x_min":114,"x_max":890,"ha":1003,"o":"m 733 0 l 222 814 q 225 748 223 781 q 227 689 226 720 q 229 635 229 658 l 229 0 l 114 0 l 114 956 l 264 956 l 781 136 q 777 202 779 169 q 774 264 775 231 q 773 329 773 298 l 773 956 l 890 956 l 890 0 l 733 0 m 408 1038 l 408 1051 l 555 1205 l 696 1205 l 696 1185 l 485 1038 l 408 1038 "},"μ":{"x_min":94,"x_max":698.0625,"ha":800,"o":"m 583 0 q 582 19 583 4 q 580 55 581 35 q 578 95 579 75 q 577 128 577 115 l 574 128 q 537 67 556 94 q 495 22 518 40 q 443 -4 472 4 q 375 -14 413 -14 q 279 7 319 -14 q 217 68 238 29 l 214 68 q 216 25 216 47 q 217 -14 217 4 l 217 -267 l 94 -267 l 94 734 l 217 734 l 217 297 q 225 210 217 250 q 253 142 233 171 q 307 97 273 113 q 390 82 340 82 q 469 99 435 82 q 525 148 503 117 q 559 221 548 179 q 571 315 571 264 l 571 734 l 694 734 l 694 158 q 694 109 694 135 q 695 60 694 83 q 696 21 696 37 q 698 0 697 4 l 583 0 "},".":{"x_min":127,"x_max":259,"ha":386,"o":"m 127 0 l 127 149 l 259 149 l 259 0 l 127 0 "},"‘":{"x_min":86,"x_max":222.0625,"ha":309,"o":"m 86 646 l 86 745 q 89 809 86 780 q 99 864 92 838 q 116 911 106 889 q 140 956 126 934 l 222 956 q 174 867 191 911 q 158 778 158 822 l 218 778 l 218 646 l 86 646 "},"π":{"x_min":53.09375,"x_max":896.703125,"ha":958,"o":"m 763 -14 q 695 -4 723 -14 q 649 25 667 5 q 624 76 632 45 q 616 153 616 108 l 616 645 l 343 645 l 343 596 q 337 422 343 507 q 322 259 332 337 q 301 116 313 182 q 276 0 289 50 l 149 0 q 175 118 162 51 q 199 261 188 185 q 217 422 210 338 q 224 590 224 505 l 224 645 q 170 642 197 645 q 120 636 143 640 q 79 629 97 633 q 53 619 61 624 l 53 714 q 75 722 61 718 q 107 728 90 725 q 143 732 124 731 q 177 734 161 734 l 896 734 l 896 645 l 738 645 l 738 180 q 742 131 738 150 q 754 101 746 112 q 774 86 763 90 q 801 82 786 82 q 814 82 806 82 q 830 84 822 83 q 846 85 838 84 q 860 87 854 86 l 860 0 q 815 -9 838 -5 q 763 -14 792 -14 "},"║":{"x_min":321,"x_max":663,"ha":984,"o":"m 321 1264 l 419 1264 l 419 -421 l 321 -421 l 321 1264 m 565 1264 l 663 1264 l 663 -421 l 565 -421 l 565 1264 "},"9":{"x_min":65,"x_max":707,"ha":773,"o":"m 707 497 q 682 273 707 369 q 614 113 658 177 q 505 17 569 49 q 361 -14 441 -14 q 262 -2 306 -14 q 183 32 217 8 q 124 93 148 55 q 85 185 99 131 l 202 203 q 261 112 220 141 q 363 84 301 84 q 453 107 412 84 q 523 177 494 130 q 568 295 552 224 q 586 460 584 365 q 546 403 571 428 q 490 361 522 378 q 422 335 459 344 q 348 326 385 326 q 230 349 283 326 q 141 414 178 372 q 85 516 105 456 q 65 648 65 575 q 86 782 65 722 q 148 883 107 841 q 248 947 189 925 q 383 970 307 970 q 624 851 542 970 q 707 497 707 733 m 573 614 q 561 714 573 667 q 523 796 548 761 q 462 850 499 830 q 379 871 426 871 q 299 855 334 871 q 239 810 264 839 q 202 740 215 782 q 189 648 189 699 q 200 558 189 599 q 236 486 212 517 q 295 439 260 456 q 377 422 330 422 q 446 433 411 422 q 509 468 481 445 q 555 528 537 492 q 573 614 573 565 "},"l":{"x_min":94,"x_max":216,"ha":309,"o":"m 94 0 l 94 1006 l 216 1006 l 216 0 l 94 0 "},"":{"x_min":19.90625,"x_max":601,"ha":695,"o":"m 245 645 l 245 0 l 123 0 l 123 645 l 19 645 l 19 734 l 123 734 l 123 816 q 130 890 123 856 q 157 950 137 925 q 212 990 177 975 q 301 1005 247 1005 q 346 1002 323 1005 q 388 996 370 1000 l 388 903 q 361 907 376 905 q 333 909 345 909 q 289 901 306 909 q 262 880 272 894 q 248 846 252 866 q 245 799 245 825 l 245 734 l 388 734 l 388 645 l 245 645 m 479 889 l 479 1006 l 601 1006 l 601 889 l 479 889 m 479 0 l 479 734 l 601 734 l 601 0 l 479 0 "},"Ъ":{"x_min":32,"x_max":1027,"ha":1099,"o":"m 473 552 l 690 552 q 838 532 775 552 q 943 476 901 512 q 1006 391 985 441 q 1027 280 1027 341 q 1006 170 1027 221 q 944 81 985 119 q 842 21 903 43 q 698 0 780 0 l 343 0 l 343 850 l 32 850 l 32 956 l 473 956 l 473 552 m 897 278 q 841 405 897 361 q 675 449 786 449 l 473 449 l 473 102 l 680 102 q 844 148 791 102 q 897 278 897 194 "},"Ś":{"x_min":63,"x_max":862,"ha":926,"o":"m 862 263 q 838 152 862 203 q 766 64 815 101 q 643 6 717 27 q 467 -14 569 -14 q 189 48 289 -14 q 63 228 90 110 l 188 253 q 217 186 197 216 q 270 133 236 155 q 353 99 303 111 q 472 87 403 87 q 578 96 529 87 q 660 127 626 106 q 714 179 695 147 q 734 256 734 211 q 712 332 734 303 q 652 380 691 361 q 560 412 614 399 q 442 440 507 425 q 361 460 402 449 q 284 485 321 470 q 215 519 247 499 q 158 566 182 539 q 121 630 135 594 q 108 714 108 666 q 135 830 108 782 q 211 910 162 879 q 326 955 260 941 q 470 970 393 970 q 622 956 559 970 q 728 914 685 942 q 798 845 772 886 q 840 750 824 804 l 712 727 q 684 789 702 762 q 637 834 666 816 q 566 862 608 853 q 468 872 525 872 q 357 860 402 872 q 285 827 312 848 q 245 780 257 807 q 234 720 234 752 q 255 650 234 678 q 313 604 276 623 q 397 574 349 586 q 500 549 446 562 q 587 529 544 539 q 671 504 631 518 q 746 469 711 489 q 807 421 781 450 q 847 354 832 393 q 862 263 862 315 m 380 1038 l 380 1051 l 527 1246 l 668 1246 l 668 1226 l 443 1038 l 380 1038 "},"Ü":{"x_min":107,"x_max":896,"ha":1003,"o":"m 495 -14 q 346 7 417 -14 q 222 72 275 28 q 138 185 169 117 q 107 347 107 253 l 107 956 l 237 956 l 237 357 q 256 234 237 285 q 310 152 275 184 q 391 105 344 120 q 495 91 438 91 q 600 105 550 91 q 687 153 649 120 q 745 238 724 186 q 767 366 767 291 l 767 956 l 896 956 l 896 359 q 864 193 896 263 q 778 76 832 123 q 651 8 724 30 q 495 -14 578 -14 m 578 1038 l 578 1163 l 689 1163 l 689 1038 l 578 1038 m 311 1038 l 311 1163 l 423 1163 l 423 1038 l 311 1038 "},"à":{"x_min":59,"x_max":773,"ha":773,"o":"m 280 -14 q 114 44 170 -14 q 59 204 59 102 q 86 323 59 276 q 158 396 113 369 q 259 432 202 422 q 376 444 316 442 l 541 447 l 541 487 q 531 564 541 532 q 502 615 522 596 q 453 644 482 635 q 383 654 423 654 q 320 648 348 654 q 270 630 291 643 q 236 594 249 617 q 220 537 224 571 l 92 548 q 117 628 98 592 q 171 691 136 664 q 259 732 206 717 q 386 747 311 747 q 594 683 524 747 q 664 500 664 620 l 664 184 q 678 102 664 129 q 732 75 692 75 q 753 76 743 75 q 773 79 763 77 l 773 3 q 727 -4 749 -1 q 678 -7 704 -7 q 619 2 644 -7 q 578 30 594 11 q 555 76 563 48 q 545 140 547 103 l 541 140 q 497 76 521 105 q 443 27 474 47 q 372 -3 412 7 q 280 -14 332 -14 m 308 78 q 410 99 366 78 q 483 153 454 120 q 526 226 512 187 q 541 301 541 265 l 541 362 l 407 359 q 321 352 362 358 q 250 330 281 347 q 202 282 220 313 q 184 202 184 252 q 216 110 184 143 q 308 78 248 78 m 424 815 l 200 1003 l 200 1023 l 340 1023 l 488 828 l 488 815 l 424 815 "},"η":{"x_min":71.578125,"x_max":683,"ha":773,"o":"m 560 -288 l 560 465 q 552 554 560 518 q 526 612 544 590 q 480 643 509 634 q 408 653 451 653 q 329 637 364 653 q 270 593 294 622 q 231 522 245 564 q 218 425 218 480 l 218 0 l 96 0 l 96 577 q 88 664 96 623 q 71 734 81 705 l 186 734 q 197 703 192 719 q 205 670 202 687 q 210 637 209 653 q 212 608 212 621 l 214 608 q 253 665 232 640 q 302 709 274 691 q 366 737 330 727 q 449 747 402 747 q 555 732 511 747 q 627 685 599 717 q 669 605 656 654 q 683 488 683 556 l 683 -288 l 560 -288 "},"ó":{"x_min":58,"x_max":714,"ha":773,"o":"m 714 367 q 629 80 714 174 q 382 -14 544 -14 q 245 9 306 -14 q 143 79 185 32 q 80 198 102 127 q 58 367 58 270 q 387 747 58 747 q 534 723 472 747 q 636 652 596 699 q 695 533 676 604 q 714 367 714 462 m 586 367 q 572 508 586 452 q 534 597 559 564 q 471 643 508 630 q 389 657 435 657 q 304 643 342 657 q 240 595 266 629 q 199 506 213 561 q 186 367 186 450 q 200 225 186 281 q 242 136 215 169 q 303 89 268 103 q 381 76 339 76 q 466 89 428 76 q 530 135 504 102 q 571 225 557 168 q 586 367 586 281 m 292 815 l 292 828 l 439 1023 l 580 1023 l 580 1003 l 355 815 l 292 815 "},"¦":{"x_min":124,"x_max":237,"ha":361,"o":"m 124 479 l 124 1006 l 237 1006 l 237 479 l 124 479 m 124 -294 l 124 234 l 237 234 l 237 -294 l 124 -294 "},"▒":{"x_min":0,"x_max":984.09375,"ha":984,"o":"m 69 891 l 140 891 l 140 824 l 69 824 l 69 891 m 210 891 l 280 891 l 280 824 l 210 824 l 210 891 m 350 891 l 421 891 l 421 824 l 350 824 l 350 891 m 491 891 l 562 891 l 562 824 l 491 824 l 491 891 m 632 891 l 703 891 l 703 824 l 632 824 l 632 891 m 773 891 l 843 891 l 843 824 l 773 824 l 773 891 m 0 758 l 69 758 l 69 693 l 0 693 l 0 758 m 140 758 l 210 758 l 210 693 l 140 693 l 140 758 m 280 758 l 350 758 l 350 693 l 280 693 l 280 758 m 421 758 l 491 758 l 491 693 l 421 693 l 421 758 m 562 758 l 632 758 l 632 693 l 562 693 l 562 758 m 703 758 l 773 758 l 773 693 l 703 693 l 703 758 m 69 628 l 140 628 l 140 563 l 69 563 l 69 628 m 210 628 l 280 628 l 280 563 l 210 563 l 210 628 m 350 628 l 421 628 l 421 563 l 350 563 l 350 628 m 491 628 l 562 628 l 562 563 l 491 563 l 491 628 m 632 628 l 703 628 l 703 563 l 632 563 l 632 628 m 773 628 l 843 628 l 843 563 l 773 563 l 773 628 m 0 496 l 69 496 l 69 431 l 0 431 l 0 496 m 140 496 l 210 496 l 210 431 l 140 431 l 140 496 m 280 496 l 350 496 l 350 431 l 280 431 l 280 496 m 421 496 l 491 496 l 491 431 l 421 431 l 421 496 m 562 496 l 632 496 l 632 431 l 562 431 l 562 496 m 703 496 l 773 496 l 773 431 l 703 431 l 703 496 m 69 366 l 140 366 l 140 301 l 69 301 l 69 366 m 210 366 l 280 366 l 280 301 l 210 301 l 210 366 m 350 366 l 421 366 l 421 301 l 350 301 l 350 366 m 491 366 l 562 366 l 562 301 l 491 301 l 491 366 m 632 366 l 703 366 l 703 301 l 632 301 l 632 366 m 773 366 l 843 366 l 843 301 l 773 301 l 773 366 m 0 233 l 69 233 l 69 168 l 0 168 l 0 233 m 280 233 l 350 233 l 350 168 l 280 168 l 280 233 m 421 233 l 491 233 l 491 168 l 421 168 l 421 233 m 562 233 l 632 233 l 632 168 l 562 168 l 562 233 m 703 233 l 773 233 l 773 168 l 703 168 l 703 233 m 140 233 l 210 233 l 210 168 l 140 168 l 140 233 m 773 103 l 843 103 l 843 37 l 773 37 l 773 103 m 632 103 l 703 103 l 703 37 l 632 37 l 632 103 m 491 103 l 562 103 l 562 37 l 491 37 l 491 103 m 350 103 l 421 103 l 421 37 l 350 37 l 350 103 m 210 103 l 280 103 l 280 37 l 210 37 l 210 103 m 69 103 l 140 103 l 140 37 l 69 37 l 69 103 m 0 -28 l 69 -28 l 69 -92 l 0 -92 l 0 -28 m 140 -28 l 210 -28 l 210 -92 l 140 -92 l 140 -28 m 280 -28 l 350 -28 l 350 -92 l 280 -92 l 280 -28 m 421 -28 l 491 -28 l 491 -92 l 421 -92 l 421 -28 m 562 -28 l 632 -28 l 632 -92 l 562 -92 l 562 -28 m 703 -28 l 773 -28 l 773 -92 l 703 -92 l 703 -28 m 773 -158 l 843 -158 l 843 -224 l 773 -224 l 773 -158 m 632 -158 l 703 -158 l 703 -224 l 632 -224 l 632 -158 m 491 -158 l 562 -158 l 562 -224 l 491 -224 l 491 -158 m 350 -158 l 421 -158 l 421 -224 l 350 -224 l 350 -158 m 210 -158 l 280 -158 l 280 -224 l 210 -224 l 210 -158 m 69 -158 l 140 -158 l 140 -224 l 69 -224 l 69 -158 m 0 -289 l 69 -289 l 69 -354 l 0 -354 l 0 -289 m 140 -289 l 210 -289 l 210 -354 l 140 -354 l 140 -289 m 280 -289 l 350 -289 l 350 -354 l 280 -354 l 280 -289 m 421 -289 l 491 -289 l 491 -354 l 421 -354 l 421 -289 m 562 -289 l 632 -289 l 632 -354 l 562 -354 l 562 -289 m 703 -289 l 773 -289 l 773 -354 l 703 -354 l 703 -289 m 0 1021 l 69 1021 l 69 954 l 0 954 l 0 1021 m 140 1021 l 210 1021 l 210 954 l 140 954 l 140 1021 m 280 1021 l 350 1021 l 350 954 l 280 954 l 280 1021 m 421 1021 l 491 1021 l 491 954 l 421 954 l 421 1021 m 562 1021 l 632 1021 l 632 954 l 562 954 l 562 1021 m 703 1021 l 773 1021 l 773 954 l 703 954 l 703 1021 m 69 1152 l 140 1152 l 140 1087 l 69 1087 l 69 1152 m 210 1152 l 280 1152 l 280 1087 l 210 1087 l 210 1152 m 350 1152 l 421 1152 l 421 1087 l 350 1087 l 350 1152 m 491 1152 l 562 1152 l 562 1087 l 491 1087 l 491 1152 m 632 1152 l 703 1152 l 703 1087 l 632 1087 l 632 1152 m 773 1152 l 843 1152 l 843 1087 l 773 1087 l 773 1152 m 913 891 l 984 891 l 984 824 l 913 824 l 913 891 m 843 758 l 913 758 l 913 693 l 843 693 l 843 758 m 913 628 l 984 628 l 984 563 l 913 563 l 913 628 m 843 496 l 913 496 l 913 431 l 843 431 l 843 496 m 913 366 l 984 366 l 984 301 l 913 301 l 913 366 m 843 233 l 913 233 l 913 168 l 843 168 l 843 233 m 913 103 l 984 103 l 984 37 l 913 37 l 913 103 m 843 -28 l 913 -28 l 913 -92 l 843 -92 l 843 -28 m 913 -158 l 984 -158 l 984 -224 l 913 -224 l 913 -158 m 843 -289 l 913 -289 l 913 -354 l 843 -354 l 843 -289 m 843 1021 l 913 1021 l 913 954 l 843 954 l 843 1021 m 913 1152 l 984 1152 l 984 1087 l 913 1087 l 913 1152 "},"Ő":{"x_min":66,"x_max":1013,"ha":1080,"o":"m 1013 482 q 980 278 1013 370 q 887 121 948 186 q 738 21 826 56 q 538 -14 650 -14 q 332 22 420 -14 q 184 126 243 59 q 95 283 125 192 q 66 482 66 374 q 97 684 66 594 q 188 838 128 774 q 337 935 248 901 q 540 970 425 970 q 742 935 653 970 q 890 836 830 900 q 981 682 950 773 q 1013 482 1013 592 m 881 481 q 859 638 881 568 q 794 759 837 709 q 687 836 751 809 q 540 864 623 864 q 390 836 455 864 q 283 759 326 809 q 219 638 240 709 q 198 481 198 568 q 220 324 198 395 q 284 200 242 252 q 391 119 327 148 q 539 91 455 91 q 693 120 628 91 q 799 201 757 149 q 861 325 841 253 q 881 481 881 397 m 348 1038 l 348 1051 l 481 1206 l 622 1206 l 622 1186 l 411 1038 l 348 1038 m 583 1038 l 583 1051 l 716 1206 l 857 1206 l 857 1186 l 646 1038 l 583 1038 "},"Ž":{"x_min":44,"x_max":804.875,"ha":848,"o":"m 804 0 l 44 0 l 44 97 l 625 850 l 93 850 l 93 956 l 773 956 l 773 861 l 191 106 l 804 106 l 804 0 m 509 1038 l 370 1038 l 212 1199 l 212 1214 l 282 1214 l 439 1120 l 441 1120 l 589 1214 l 661 1214 l 661 1199 l 509 1038 "},"е":{"x_min":59,"x_max":711,"ha":773,"o":"m 187 341 q 198 234 187 283 q 235 151 210 186 q 298 97 260 116 q 391 78 337 78 q 519 109 471 78 q 584 191 567 141 l 691 160 q 658 98 679 129 q 603 42 638 67 q 517 2 568 18 q 391 -14 465 -14 q 144 82 229 -14 q 59 371 59 179 q 84 545 59 474 q 155 662 110 617 q 259 726 200 706 q 387 747 319 747 q 541 717 479 747 q 641 634 603 687 q 695 511 679 582 q 711 357 711 439 l 711 341 l 187 341 m 585 435 q 525 603 574 550 q 385 657 477 657 q 321 647 354 657 q 258 612 287 637 q 210 544 230 587 q 188 435 191 501 l 585 435 "},"Î":{"x_min":-31,"x_max":418,"ha":386,"o":"m 128 0 l 128 956 l 258 956 l 258 0 l 128 0 m 418 1051 l 418 1038 l 346 1038 l 198 1132 l 196 1132 l 39 1038 l -31 1038 l -31 1051 l 127 1214 l 266 1214 l 418 1051 "},"e":{"x_min":59,"x_max":711,"ha":773,"o":"m 187 341 q 198 234 187 283 q 235 151 210 186 q 298 97 260 116 q 391 78 337 78 q 519 109 471 78 q 584 191 567 141 l 691 160 q 658 98 679 129 q 603 42 638 67 q 517 2 568 18 q 391 -14 465 -14 q 144 82 229 -14 q 59 371 59 179 q 84 545 59 474 q 155 662 110 617 q 259 726 200 706 q 387 747 319 747 q 541 717 479 747 q 641 634 603 687 q 695 511 679 582 q 711 357 711 439 l 711 341 l 187 341 m 585 435 q 525 603 574 550 q 385 657 477 657 q 321 647 354 657 q 258 612 287 637 q 210 544 230 587 q 188 435 191 501 l 585 435 "},"ό":{"x_min":58,"x_max":714,"ha":773,"o":"m 714 367 q 629 80 714 174 q 382 -14 544 -14 q 245 9 306 -14 q 143 79 185 32 q 80 198 102 127 q 58 367 58 270 q 387 747 58 747 q 534 723 472 747 q 636 652 596 699 q 695 533 676 604 q 714 367 714 462 m 586 367 q 572 508 586 452 q 534 597 559 564 q 471 643 508 630 q 389 657 435 657 q 304 643 342 657 q 240 595 266 629 q 199 506 213 561 q 186 367 186 450 q 200 225 186 281 q 242 136 215 169 q 303 89 268 103 q 381 76 339 76 q 466 89 428 76 q 530 135 504 102 q 571 225 557 168 q 586 367 586 281 m 340 826 l 340 848 l 386 1046 l 527 1046 l 527 1020 l 390 826 l 340 826 "},"Ĕ":{"x_min":114,"x_max":866,"ha":926,"o":"m 114 0 l 114 956 l 838 956 l 838 850 l 244 850 l 244 544 l 798 544 l 798 440 l 244 440 l 244 106 l 866 106 l 866 0 l 114 0 m 475 1038 q 385 1051 425 1038 q 317 1089 346 1065 q 272 1143 289 1112 q 250 1207 255 1173 l 329 1207 q 377 1150 340 1170 q 476 1130 414 1130 q 574 1150 538 1130 q 622 1207 611 1171 l 702 1207 q 678 1143 695 1173 q 633 1089 661 1112 q 566 1051 605 1065 q 475 1038 526 1038 "},"ļ":{"x_min":85.9375,"x_max":222,"ha":309,"o":"m 94 0 l 94 1006 l 216 1006 l 216 0 l 94 0 m 222 -130 q 207 -225 222 -189 q 165 -294 192 -262 l 85 -294 q 132 -232 116 -261 q 149 -172 149 -203 l 90 -172 l 90 -66 l 222 -66 l 222 -130 "},"Ѓ":{"x_min":114,"x_max":726,"ha":752,"o":"m 726 956 l 726 850 l 244 850 l 244 1 l 114 1 l 114 956 l 726 956 m 299 1038 l 299 1051 l 446 1205 l 587 1205 l 587 1185 l 376 1038 l 299 1038 "},"ò":{"x_min":58,"x_max":714,"ha":773,"o":"m 714 367 q 629 80 714 174 q 382 -14 544 -14 q 245 9 306 -14 q 143 79 185 32 q 80 198 102 127 q 58 367 58 270 q 387 747 58 747 q 534 723 472 747 q 636 652 596 699 q 695 533 676 604 q 714 367 714 462 m 586 367 q 572 508 586 452 q 534 597 559 564 q 471 643 508 630 q 389 657 435 657 q 304 643 342 657 q 240 595 266 629 q 199 506 213 561 q 186 367 186 450 q 200 225 186 281 q 242 136 215 169 q 303 89 268 103 q 381 76 339 76 q 466 89 428 76 q 530 135 504 102 q 571 225 557 168 q 586 367 586 281 m 447 815 l 223 1003 l 223 1023 l 363 1023 l 511 828 l 511 815 l 447 815 "},"^":{"x_min":7,"x_max":645,"ha":652,"o":"m 533 456 l 324 886 l 116 456 l 7 456 l 256 956 l 394 956 l 645 456 l 533 456 "},"∙":{"x_min":127,"x_max":259,"ha":386,"o":"m 127 303 l 127 452 l 259 452 l 259 303 l 127 303 "},"ⁿ":{"x_min":68.28125,"x_max":436,"ha":507,"o":"m 349 352 l 349 621 q 344 673 349 652 q 330 706 340 694 q 304 724 320 719 q 264 730 288 730 q 186 696 215 730 q 158 598 158 662 l 158 352 l 71 352 l 71 698 q 70 727 71 712 q 69 757 70 743 q 68 780 69 770 q 68 793 68 790 l 149 793 q 149 781 149 790 q 151 760 150 772 q 152 737 151 749 q 153 717 153 725 l 154 717 q 177 751 164 736 q 207 778 190 767 q 245 795 223 789 q 295 801 267 801 q 403 764 370 801 q 436 645 436 727 l 436 352 l 349 352 "},"к":{"x_min":94,"x_max":614.25,"ha":608,"o":"m 94 734 l 216 734 l 216 412 q 252 417 236 412 q 286 439 268 422 q 326 488 304 456 q 380 571 348 519 l 480 734 l 608 734 l 461 513 q 409 439 431 468 q 375 401 386 410 l 614 0 l 478 0 l 290 336 q 255 327 277 331 q 216 323 233 323 l 216 0 l 94 0 l 94 734 "},"ū":{"x_min":90,"x_max":681.0625,"ha":773,"o":"m 213 734 l 213 268 q 220 178 213 214 q 246 120 228 142 q 292 89 264 98 q 364 80 321 80 q 443 95 408 80 q 502 139 478 110 q 541 210 527 168 q 555 308 555 253 l 555 734 l 677 734 l 677 156 q 677 108 677 133 q 678 60 677 82 q 679 21 679 37 q 681 0 680 4 l 565 0 q 564 18 565 3 q 562 52 563 33 q 561 91 561 71 q 560 124 560 111 l 558 124 q 519 67 540 92 q 470 23 498 41 q 406 -4 442 5 q 323 -14 370 -14 q 217 0 261 -14 q 145 47 173 15 q 103 127 116 78 q 90 244 90 176 l 90 734 l 213 734 m 570 838 l 198 838 l 198 924 l 570 924 l 570 838 "},"ˆ":{"x_min":0,"x_max":449,"ha":463,"o":"m 449 828 l 449 815 l 377 815 l 229 930 l 227 930 l 70 815 l 0 815 l 0 828 l 158 1012 l 297 1012 l 449 828 "},"Ẅ":{"x_min":6,"x_max":1306,"ha":1311,"o":"m 1024 0 l 869 0 l 704 607 q 688 668 697 633 q 673 735 680 703 q 657 811 665 772 q 640 734 648 772 q 624 667 632 702 q 608 607 616 633 l 442 0 l 287 0 l 6 956 l 140 956 l 312 348 q 334 263 324 305 q 352 188 345 221 q 369 113 361 149 q 390 206 379 160 q 399 246 394 225 q 409 287 404 267 q 419 326 414 308 q 428 360 424 345 l 594 956 l 718 956 l 884 360 q 893 326 888 345 q 904 287 899 308 q 913 246 909 267 q 923 206 918 225 q 944 113 934 161 q 950 137 945 113 q 964 196 956 160 q 982 272 972 231 q 1002 348 991 313 l 1171 956 l 1306 956 l 1024 0 m 736 1038 l 736 1163 l 847 1163 l 847 1038 l 736 1038 m 469 1038 l 469 1163 l 581 1163 l 581 1038 l 469 1038 "},"◘":{"x_min":28,"x_max":811,"ha":839,"o":"m 28 0 l 28 783 l 811 783 l 811 0 l 28 0 m 120 391 q 143 275 120 329 q 207 180 166 221 q 302 116 248 139 q 418 93 356 93 q 534 116 479 93 q 629 180 588 139 q 693 275 670 221 q 717 391 717 329 q 693 507 717 452 q 629 602 670 561 q 534 666 588 643 q 418 690 479 690 q 302 666 356 690 q 207 602 248 643 q 143 507 166 561 q 120 391 120 452 "},"⌂":{"x_min":106,"x_max":731,"ha":839,"o":"m 106 0 l 106 430 l 418 782 l 731 430 l 731 0 l 106 0 m 160 56 l 677 56 l 677 407 l 418 696 l 160 407 l 160 56 "},"č":{"x_min":59,"x_max":658,"ha":695,"o":"m 187 369 q 196 253 187 306 q 227 162 205 200 q 284 103 248 124 q 372 82 319 82 q 481 117 437 82 q 535 226 524 152 l 658 217 q 631 130 651 172 q 576 56 611 88 q 491 5 541 24 q 375 -14 440 -14 q 228 15 288 -14 q 130 95 168 44 q 75 216 92 146 q 59 367 59 285 q 71 497 59 441 q 105 596 83 554 q 157 667 127 639 q 222 714 187 696 q 295 739 257 731 q 373 747 334 747 q 483 730 435 747 q 566 683 531 713 q 623 613 601 653 q 654 527 645 573 l 529 518 q 480 615 519 579 q 370 651 442 651 q 283 633 318 651 q 227 581 248 616 q 196 493 205 546 q 187 369 187 440 m 442 815 l 303 815 l 145 998 l 145 1012 l 215 1012 l 372 897 l 374 897 l 522 1012 l 594 1012 l 594 998 l 442 815 "},"’":{"x_min":85.9375,"x_max":222,"ha":309,"o":"m 222 857 q 218 792 222 821 q 209 737 215 763 q 192 690 202 712 q 169 646 182 667 l 85 646 q 132 734 116 690 q 149 822 149 779 l 90 822 l 90 956 l 222 956 l 222 857 "},"Ν":{"x_min":114,"x_max":890,"ha":1003,"o":"m 733 0 l 222 814 q 225 748 223 781 q 227 689 226 720 q 229 635 229 658 l 229 0 l 114 0 l 114 956 l 264 956 l 781 136 q 777 202 779 169 q 774 264 775 231 q 773 329 773 298 l 773 956 l 890 956 l 890 0 l 733 0 "},"-":{"x_min":62,"x_max":401,"ha":463,"o":"m 62 314 l 62 423 l 401 423 l 401 314 l 62 314 "},"Q":{"x_min":66,"x_max":1013,"ha":1080,"o":"m 1013 482 q 986 297 1013 381 q 911 150 960 213 q 791 47 862 87 q 628 -4 719 8 q 661 -77 643 -47 q 702 -127 679 -108 q 753 -155 725 -146 q 816 -165 781 -165 q 856 -162 835 -165 q 894 -156 878 -159 l 894 -247 q 837 -257 868 -253 q 773 -262 806 -262 q 671 -244 715 -262 q 595 -195 628 -227 q 538 -116 562 -163 q 496 -11 515 -69 q 308 33 389 -5 q 174 137 227 72 q 93 291 120 203 q 66 482 66 379 q 97 684 66 594 q 188 838 128 774 q 337 935 248 901 q 540 970 425 970 q 742 935 653 970 q 890 837 830 900 q 981 683 950 773 q 1013 482 1013 592 m 881 481 q 859 638 881 568 q 794 759 837 709 q 687 836 751 809 q 540 864 623 864 q 390 836 455 864 q 283 759 326 809 q 219 638 240 709 q 198 481 198 568 q 220 324 198 395 q 284 200 242 252 q 391 119 327 148 q 539 91 455 91 q 693 120 628 91 q 799 201 757 149 q 861 325 841 253 q 881 481 881 397 "},"▼":{"x_min":280.78125,"x_max":1093.296875,"ha":1375,"o":"m 1093 794 l 687 -18 l 280 794 l 1093 794 "},"ј":{"x_min":-34,"x_max":215,"ha":309,"o":"m 93 889 l 93 1006 l 215 1006 l 215 889 l 93 889 m 215 -90 q 207 -168 215 -132 q 182 -231 200 -204 q 132 -272 164 -257 q 52 -288 101 -288 q 7 -286 29 -288 q -34 -281 -15 -285 l -34 -187 q -12 -190 -25 -189 q 8 -192 0 -192 q 50 -185 33 -192 q 76 -163 67 -178 q 89 -126 86 -149 q 93 -72 93 -103 l 93 734 l 215 734 l 215 -90 "},"ě":{"x_min":59,"x_max":711,"ha":773,"o":"m 187 341 q 198 234 187 283 q 235 151 210 186 q 298 97 260 116 q 391 78 337 78 q 519 109 471 78 q 584 191 567 141 l 691 160 q 658 98 679 129 q 603 42 638 67 q 517 2 568 18 q 391 -14 465 -14 q 144 82 229 -14 q 59 371 59 179 q 84 545 59 474 q 155 662 110 617 q 259 726 200 706 q 387 747 319 747 q 541 717 479 747 q 641 634 603 687 q 695 511 679 582 q 711 357 711 439 l 711 341 l 187 341 m 585 435 q 525 603 574 550 q 385 657 477 657 q 321 647 354 657 q 258 612 287 637 q 210 544 230 587 q 188 435 191 501 l 585 435 m 456 815 l 317 815 l 159 998 l 159 1012 l 229 1012 l 386 897 l 388 897 l 536 1012 l 608 1012 l 608 998 l 456 815 "},"œ":{"x_min":58,"x_max":1249,"ha":1311,"o":"m 726 341 q 737 234 726 283 q 774 151 749 186 q 837 97 799 116 q 930 78 876 78 q 1057 109 1009 78 q 1122 190 1105 141 l 1229 159 q 1196 98 1217 129 q 1141 42 1176 67 q 1055 1 1107 17 q 930 -14 1003 -14 q 770 16 837 -14 q 662 110 703 47 q 551 16 619 47 q 390 -14 483 -14 q 251 9 313 -14 q 147 79 190 32 q 81 198 104 127 q 58 367 58 270 q 143 651 58 556 q 394 747 229 747 q 664 626 584 747 q 777 718 709 690 q 925 747 845 747 q 1079 717 1018 747 q 1179 634 1141 687 q 1233 511 1217 582 q 1249 357 1249 439 l 1249 341 l 726 341 m 598 367 q 583 508 598 452 q 543 597 569 564 q 479 643 517 630 q 396 657 442 657 q 310 643 349 657 q 244 595 271 629 q 201 506 216 561 q 186 367 186 450 q 201 225 186 281 q 245 136 217 169 q 309 89 273 103 q 388 76 346 76 q 474 89 435 76 q 540 135 513 102 q 583 225 568 168 q 598 367 598 281 m 1123 435 q 1064 603 1112 550 q 923 657 1015 657 q 859 647 893 657 q 797 612 826 637 q 749 544 769 587 q 727 435 730 501 l 1123 435 "},"#":{"x_min":5.65625,"x_max":765.8125,"ha":773,"o":"m 607 600 l 555 350 l 731 350 l 731 277 l 539 277 l 479 0 l 405 0 l 463 277 l 216 277 l 159 0 l 85 0 l 142 277 l 5 277 l 5 350 l 158 350 l 210 600 l 40 600 l 40 673 l 226 673 l 286 950 l 361 950 l 301 673 l 547 673 l 607 950 l 682 950 l 622 673 l 765 673 l 765 600 l 607 600 m 287 600 l 233 350 l 479 350 l 532 600 l 287 600 "},"Џ":{"x_min":114,"x_max":884,"ha":998,"o":"m 438 -277 l 438 0 l 114 0 l 114 956 l 244 956 l 244 109 l 758 109 l 758 956 l 884 956 l 884 0 l 560 0 l 560 -277 l 438 -277 "},"Å":{"x_min":3,"x_max":923,"ha":926,"o":"m 790 0 l 681 280 l 247 280 l 137 0 l 3 0 l 392 956 l 539 956 l 923 0 l 790 0 m 520 696 q 500 751 509 723 q 482 801 490 779 q 470 839 475 824 q 464 858 465 854 q 458 839 463 854 q 445 800 453 823 q 428 749 438 777 q 408 694 418 722 l 286 381 l 643 381 l 520 696 m 629 1048 q 616 984 629 1014 q 580 932 603 954 q 528 896 558 909 q 465 884 498 884 q 401 896 431 884 q 349 932 371 909 q 313 984 326 954 q 301 1048 301 1014 q 313 1112 301 1082 q 349 1164 326 1142 q 401 1199 371 1186 q 465 1212 431 1212 q 528 1199 498 1212 q 580 1164 558 1186 q 616 1112 603 1142 q 629 1048 629 1082 m 556 1048 q 548 1083 556 1067 q 529 1112 541 1100 q 500 1131 517 1124 q 465 1139 484 1139 q 429 1131 445 1139 q 400 1112 412 1124 q 381 1083 388 1100 q 374 1048 374 1067 q 381 1011 374 1028 q 400 982 388 995 q 429 962 412 969 q 465 955 445 955 q 500 962 484 955 q 529 982 517 969 q 548 1011 541 995 q 556 1048 556 1028 "},"ș":{"x_min":39,"x_max":645,"ha":695,"o":"m 423 -130 q 408 -225 423 -189 q 366 -294 393 -262 l 286 -294 q 333 -232 317 -261 q 350 -172 350 -203 l 291 -172 l 291 -66 l 423 -66 l 423 -130 m 645 202 q 624 110 645 150 q 566 42 604 70 q 473 0 528 15 q 347 -14 418 -14 q 232 -4 283 -14 q 142 27 180 5 q 77 84 103 49 q 39 171 51 120 l 147 193 q 211 106 162 133 q 347 79 260 79 q 419 84 386 79 q 475 103 452 89 q 512 138 499 116 q 526 192 526 160 q 510 247 526 226 q 466 283 494 268 q 399 307 439 297 q 312 331 359 318 q 224 357 268 342 q 146 394 181 371 q 89 452 111 418 q 68 539 68 487 q 139 692 68 639 q 348 745 211 745 q 541 702 469 745 q 632 565 613 659 l 522 552 q 499 599 515 580 q 460 630 483 619 q 408 647 437 642 q 348 653 379 653 q 226 627 265 653 q 187 551 187 602 q 201 502 187 521 q 242 469 216 483 q 305 446 268 456 q 385 426 341 437 q 445 410 414 418 q 504 389 476 401 q 559 362 533 378 q 603 323 584 346 q 633 271 622 301 q 645 202 645 241 "},"▀":{"x_min":0,"x_max":984,"ha":984,"o":"m 984 421 l 0 421 l 0 1264 l 984 1264 l 984 421 "},"¸":{"x_min":81,"x_max":328,"ha":463,"o":"m 328 -171 q 317 -221 328 -199 q 285 -260 307 -244 q 228 -285 263 -277 q 142 -294 192 -294 q 113 -293 128 -294 q 81 -291 97 -293 l 81 -224 q 139 -229 114 -229 q 186 -224 167 -229 q 216 -213 205 -220 q 233 -196 228 -206 q 239 -174 239 -186 q 218 -135 239 -149 q 148 -122 197 -122 q 129 -122 139 -122 q 110 -123 119 -122 l 154 0 l 226 0 l 200 -68 q 296 -97 264 -70 q 328 -171 328 -124 "},"=":{"x_min":68,"x_max":743,"ha":811,"o":"m 68 581 l 68 681 l 743 681 l 743 581 l 68 581 m 68 234 l 68 334 l 743 334 l 743 234 l 68 234 "},"ρ":{"x_min":90,"x_max":734,"ha":790,"o":"m 734 349 q 712 202 734 269 q 652 87 691 135 q 558 12 613 39 q 438 -14 504 -14 q 362 -7 396 -14 q 302 12 329 0 q 253 42 275 24 q 212 82 230 60 l 209 82 q 211 41 210 62 q 212 0 212 21 l 212 -288 l 90 -288 l 90 394 q 110 540 90 474 q 169 651 130 605 q 266 722 209 697 q 398 748 323 748 q 529 721 467 748 q 635 643 590 694 q 707 518 681 592 q 734 349 734 444 m 603 355 q 588 482 603 425 q 545 577 573 538 q 477 637 517 616 q 389 658 438 658 q 309 640 343 658 q 253 587 275 622 q 222 503 232 553 q 212 391 212 454 l 212 175 q 255 133 230 152 q 306 102 279 114 q 363 82 333 89 q 422 76 392 76 q 501 95 467 76 q 558 151 535 115 q 591 239 580 188 q 603 355 603 291 "},"Ћ":{"x_min":31,"x_max":1074,"ha":1186,"o":"m 945 0 l 945 390 q 901 510 945 473 q 767 547 858 547 q 692 543 731 547 q 615 535 653 540 q 545 523 578 530 q 488 513 511 517 l 488 0 l 359 0 l 359 850 l 31 850 l 31 956 l 847 956 l 847 850 l 488 850 l 488 610 q 545 623 512 616 q 617 636 578 629 q 695 646 655 642 q 773 651 735 651 q 1001 587 928 651 q 1074 403 1074 524 l 1074 0 l 945 0 "},"ú":{"x_min":94,"x_max":685.0625,"ha":773,"o":"m 217 734 l 217 268 q 224 178 217 214 q 250 120 232 142 q 296 89 268 98 q 368 80 325 80 q 447 95 412 80 q 506 139 482 110 q 545 210 531 168 q 559 308 559 253 l 559 734 l 681 734 l 681 156 q 681 108 681 133 q 682 60 681 82 q 683 21 683 37 q 685 0 684 4 l 569 0 q 568 18 569 3 q 566 52 567 33 q 565 91 565 71 q 564 124 564 111 l 562 124 q 523 67 544 92 q 474 23 502 41 q 410 -4 446 5 q 327 -14 374 -14 q 221 0 265 -14 q 149 47 177 15 q 107 127 120 78 q 94 244 94 176 l 94 734 l 217 734 m 282 815 l 282 828 l 429 1023 l 570 1023 l 570 1003 l 345 815 l 282 815 "},"˚":{"x_min":35,"x_max":363,"ha":463,"o":"m 363 956 q 350 892 363 922 q 314 840 337 862 q 262 804 292 817 q 199 792 232 792 q 135 804 165 792 q 83 840 105 817 q 47 892 60 862 q 35 956 35 922 q 47 1020 35 990 q 83 1072 60 1050 q 135 1107 105 1094 q 199 1120 165 1120 q 262 1107 232 1120 q 314 1072 292 1094 q 350 1020 337 1050 q 363 956 363 990 m 290 956 q 282 991 290 975 q 263 1020 275 1008 q 234 1039 251 1032 q 199 1047 218 1047 q 163 1039 179 1047 q 134 1020 146 1032 q 115 991 122 1008 q 108 956 108 975 q 115 919 108 936 q 134 890 122 903 q 163 870 146 877 q 199 863 179 863 q 234 870 218 863 q 263 890 251 877 q 282 919 275 903 q 290 956 290 936 "},"д":{"x_min":14,"x_max":786,"ha":810,"o":"m 565 645 l 358 645 q 325 435 342 524 q 292 280 309 346 q 260 169 276 215 q 229 89 243 122 l 565 89 l 565 645 m 786 -277 l 675 -277 l 675 0 l 125 0 l 125 -277 l 14 -277 l 14 89 l 94 89 q 134 171 115 122 q 174 294 154 219 q 213 475 193 369 q 251 734 232 582 l 687 734 l 687 89 l 786 89 l 786 -277 "},"¯":{"x_min":-12,"x_max":779,"ha":767,"o":"m 779 985 l -12 985 l -12 1049 l 779 1049 l 779 985 "},"u":{"x_min":90,"x_max":681.0625,"ha":773,"o":"m 213 734 l 213 268 q 220 178 213 214 q 246 120 228 142 q 292 89 264 98 q 364 80 321 80 q 443 95 408 80 q 502 139 478 110 q 541 210 527 168 q 555 308 555 253 l 555 734 l 677 734 l 677 156 q 677 108 677 133 q 678 60 677 82 q 679 21 679 37 q 681 0 680 4 l 565 0 q 564 18 565 3 q 562 52 563 33 q 561 91 561 71 q 560 124 560 111 l 558 124 q 519 67 540 92 q 470 23 498 41 q 406 -4 442 5 q 323 -14 370 -14 q 217 0 261 -14 q 145 47 173 15 q 103 127 116 78 q 90 244 90 176 l 90 734 l 213 734 "},"З":{"x_min":45,"x_max":771,"ha":839,"o":"m 421 -14 q 281 2 341 -14 q 177 50 221 19 q 101 124 133 81 q 45 221 69 168 l 157 274 q 195 203 173 236 q 249 145 218 170 q 321 104 280 119 q 416 90 362 90 q 510 102 468 90 q 580 138 551 115 q 624 195 609 162 q 640 273 640 229 q 574 403 640 363 q 372 444 509 444 l 324 444 l 324 544 l 372 544 q 554 584 495 544 q 613 708 613 624 q 599 774 613 745 q 562 823 586 803 q 502 853 537 843 q 422 864 467 864 q 331 850 370 864 q 264 813 293 836 q 217 759 236 790 q 185 696 198 729 l 65 737 q 120 836 87 793 q 197 908 152 879 q 299 953 242 938 q 427 969 356 969 q 559 951 501 969 q 658 900 618 933 q 721 821 699 868 q 743 719 743 775 q 729 637 743 673 q 690 573 715 601 q 630 528 666 546 q 552 499 595 509 q 637 475 598 492 q 706 430 677 458 q 753 363 736 402 q 771 275 771 324 q 747 157 771 210 q 679 66 724 104 q 569 7 634 28 q 421 -14 504 -14 "},"Α":{"x_min":3,"x_max":923,"ha":926,"o":"m 790 0 l 681 280 l 247 280 l 137 0 l 3 0 l 392 956 l 539 956 l 923 0 l 790 0 m 520 696 q 500 751 509 723 q 482 801 490 779 q 470 839 475 824 q 464 858 465 854 q 458 839 463 854 q 445 800 453 823 q 428 749 438 777 q 408 694 418 722 l 286 381 l 643 381 l 520 696 "},"⅝":{"x_min":62.875,"x_max":1094,"ha":1158,"o":"m 334 0 l 233 0 l 831 956 l 930 956 l 334 0 m 984 427 q 979 462 984 446 q 965 490 975 479 q 937 508 955 502 q 891 515 919 515 q 847 508 865 515 q 819 490 829 502 q 804 462 808 479 q 800 427 800 446 q 803 396 800 412 q 815 367 806 380 q 843 345 825 353 q 892 337 862 337 q 942 345 924 337 q 970 367 961 353 q 981 396 979 380 q 984 427 984 412 m 998 170 q 993 207 998 189 q 977 238 989 224 q 944 259 965 251 q 890 268 924 268 q 840 259 860 268 q 808 237 820 251 q 791 206 796 224 q 786 169 786 188 q 791 125 786 145 q 808 91 796 105 q 841 69 820 77 q 893 62 861 62 q 944 69 924 62 q 977 91 965 77 q 993 126 988 105 q 998 170 998 146 m 1094 161 q 1082 93 1094 124 q 1045 40 1070 62 q 982 5 1020 18 q 892 -7 944 -7 q 802 5 840 -7 q 738 40 763 18 q 701 93 713 62 q 690 160 690 123 q 699 216 690 191 q 725 258 709 240 q 762 286 741 275 q 804 300 783 297 l 804 302 q 761 320 780 308 q 730 351 743 333 q 710 390 717 368 q 704 435 704 412 q 715 493 704 466 q 751 539 727 519 q 810 571 775 559 q 891 583 845 583 q 975 571 940 583 q 1034 538 1011 559 q 1068 491 1057 518 q 1080 435 1080 464 q 1073 390 1080 411 q 1053 351 1066 368 q 1021 320 1040 333 q 978 303 1002 308 l 978 301 q 1024 286 1002 297 q 1060 258 1045 276 q 1085 216 1076 241 q 1094 161 1094 192 m 459 566 q 446 486 459 522 q 408 426 433 451 q 346 387 383 401 q 262 374 310 374 q 183 385 217 374 q 124 416 149 396 q 83 463 98 436 q 62 523 68 491 l 153 533 q 164 499 156 515 q 186 471 172 483 q 217 452 199 459 q 260 445 235 445 q 337 473 308 445 q 367 566 367 502 q 339 650 367 621 q 261 679 312 679 q 200 666 226 679 q 159 638 174 653 l 71 638 l 93 956 l 437 956 l 437 879 l 167 879 l 154 712 q 204 741 173 730 q 272 753 235 753 q 352 739 317 753 q 411 702 387 726 q 446 643 434 678 q 459 566 459 609 "},"◙":{"x_min":28,"x_max":811,"ha":839,"o":"m 28 0 l 28 783 l 811 783 l 811 0 l 28 0 m 172 391 q 191 486 172 441 q 244 565 211 531 q 323 618 278 598 q 419 638 368 638 q 515 618 470 638 q 594 565 560 598 q 647 486 627 531 q 667 391 667 441 q 647 295 667 340 q 594 216 627 250 q 515 163 560 183 q 419 144 470 144 q 323 163 368 144 q 244 216 278 183 q 191 295 211 250 q 172 391 172 340 m 120 391 q 143 275 120 329 q 207 180 166 221 q 302 116 248 139 q 418 93 356 93 q 534 116 479 93 q 629 180 588 139 q 693 275 670 221 q 717 391 717 329 q 693 507 717 452 q 629 602 670 561 q 534 666 588 643 q 418 690 479 690 q 302 666 356 690 q 207 602 248 643 q 143 507 166 561 q 120 391 120 452 "},"é":{"x_min":59,"x_max":711,"ha":773,"o":"m 187 341 q 198 234 187 283 q 235 151 210 186 q 298 97 260 116 q 391 78 337 78 q 519 109 471 78 q 584 191 567 141 l 691 160 q 658 98 679 129 q 603 42 638 67 q 517 2 568 18 q 391 -14 465 -14 q 144 82 229 -14 q 59 371 59 179 q 84 545 59 474 q 155 662 110 617 q 259 726 200 706 q 387 747 319 747 q 541 717 479 747 q 641 634 603 687 q 695 511 679 582 q 711 357 711 439 l 711 341 l 187 341 m 585 435 q 525 603 574 550 q 385 657 477 657 q 321 647 354 657 q 258 612 287 637 q 210 544 230 587 q 188 435 191 501 l 585 435 m 298 815 l 298 828 l 445 1023 l 586 1023 l 586 1003 l 361 815 l 298 815 "},"Ş":{"x_min":63,"x_max":862,"ha":926,"o":"m 862 263 q 838 152 862 203 q 766 64 815 101 q 643 6 717 27 q 467 -14 569 -14 q 189 48 289 -14 q 63 228 90 110 l 188 253 q 217 186 197 216 q 270 133 236 155 q 353 99 303 111 q 472 87 403 87 q 578 96 529 87 q 660 127 626 106 q 714 179 695 147 q 734 256 734 211 q 712 332 734 303 q 652 380 691 361 q 560 412 614 399 q 442 440 507 425 q 361 460 402 449 q 284 485 321 470 q 215 519 247 499 q 158 566 182 539 q 121 630 135 594 q 108 714 108 666 q 135 830 108 782 q 211 910 162 879 q 326 955 260 941 q 470 970 393 970 q 622 956 559 970 q 728 914 685 942 q 798 845 772 886 q 840 750 824 804 l 712 727 q 684 789 702 762 q 637 834 666 816 q 566 862 608 853 q 468 872 525 872 q 357 860 402 872 q 285 827 312 848 q 245 780 257 807 q 234 720 234 752 q 255 650 234 678 q 313 604 276 623 q 397 574 349 586 q 500 549 446 562 q 587 529 544 539 q 671 504 631 518 q 746 469 711 489 q 807 421 781 450 q 847 354 832 393 q 862 263 862 315 m 613 -171 q 602 -221 613 -199 q 570 -260 592 -244 q 513 -285 548 -277 q 427 -294 477 -294 q 398 -293 413 -294 q 366 -291 382 -293 l 366 -224 q 424 -229 399 -229 q 471 -224 452 -229 q 501 -213 490 -220 q 518 -196 513 -206 q 524 -174 524 -186 q 503 -135 524 -149 q 433 -122 482 -122 q 414 -122 424 -122 q 395 -123 404 -122 l 439 0 l 511 0 l 485 -68 q 581 -97 549 -70 q 613 -171 613 -124 "},"↓":{"x_min":184.390625,"x_max":509.625,"ha":695,"o":"m 376 110 q 432 149 399 129 q 509 191 465 169 l 509 142 q 425 58 463 102 q 359 -41 387 14 l 334 -41 q 268 58 306 14 q 184 142 230 102 l 184 191 q 261 149 228 169 q 318 110 294 129 l 318 781 l 376 781 l 376 110 "},"B":{"x_min":114,"x_max":853,"ha":926,"o":"m 853 269 q 824 145 853 196 q 747 62 796 94 q 636 14 699 29 q 501 0 572 0 l 114 0 l 114 956 l 460 956 q 602 942 540 956 q 708 901 664 929 q 774 828 751 872 q 797 724 797 785 q 785 648 797 684 q 751 584 774 613 q 695 535 729 556 q 615 504 660 514 q 717 478 673 497 q 791 427 762 458 q 837 356 821 397 q 853 269 853 316 m 667 708 q 614 818 667 785 q 461 852 561 852 l 244 852 l 244 550 l 461 550 q 557 561 518 550 q 620 593 596 572 q 656 642 645 613 q 667 708 667 671 m 722 279 q 705 357 722 325 q 657 409 688 389 q 582 439 626 429 q 485 449 539 449 l 244 449 l 244 104 l 495 104 q 586 112 544 104 q 658 140 627 120 q 705 195 688 161 q 722 279 722 228 "},"…":{"x_min":189,"x_max":1201,"ha":1389,"o":"m 1069 0 l 1069 149 l 1201 149 l 1201 0 l 1069 0 m 630 0 l 630 149 l 760 149 l 760 0 l 630 0 m 189 0 l 189 149 l 321 149 l 321 0 l 189 0 "},"H":{"x_min":114,"x_max":890,"ha":1003,"o":"m 760 0 l 760 443 l 244 443 l 244 0 l 114 0 l 114 956 l 244 956 l 244 552 l 760 552 l 760 956 l 890 956 l 890 0 l 760 0 "},"î":{"x_min":-30,"x_max":419,"ha":386,"o":"m 132 0 l 132 734 l 254 734 l 254 0 l 132 0 m 419 828 l 419 815 l 347 815 l 199 930 l 197 930 l 40 815 l -30 815 l -30 828 l 128 1012 l 267 1012 l 419 828 "},"ν":{"x_min":-0.25,"x_max":642,"ha":695,"o":"m 642 573 q 620 432 642 506 q 563 283 599 358 q 479 136 527 208 q 379 0 432 63 l 264 0 l 0 734 l 127 734 l 339 104 q 477 345 435 229 q 520 567 520 461 q 510 663 520 622 q 486 734 500 703 l 606 734 q 632 665 623 703 q 642 573 642 626 "},"▪":{"x_min":74,"x_max":419,"ha":492,"o":"m 419 259 l 74 259 l 74 604 l 419 604 l 419 259 "},"Ό":{"x_min":-47,"x_max":1010,"ha":1076,"o":"m 1010 482 q 977 278 1010 370 q 884 121 945 186 q 735 21 823 56 q 535 -14 647 -14 q 329 22 417 -14 q 181 126 240 59 q 92 283 122 192 q 63 482 63 374 q 94 684 63 594 q 185 838 125 774 q 334 935 245 901 q 537 970 422 970 q 739 935 650 970 q 887 836 827 900 q 978 682 947 773 q 1010 482 1010 592 m 878 481 q 856 638 878 568 q 791 759 834 709 q 684 836 748 809 q 537 864 620 864 q 387 836 452 864 q 280 759 323 809 q 216 638 237 709 q 195 481 195 568 q 217 324 195 395 q 281 200 239 252 q 388 119 324 148 q 536 91 452 91 q 690 120 625 91 q 796 201 754 149 q 858 325 838 253 q 878 481 878 397 m -47 736 l -47 758 l 0 956 l 140 956 l 140 930 l 3 736 l -47 736 "},"−":{"x_min":69,"x_max":743,"ha":811,"o":"m 69 412 l 69 511 l 743 511 l 743 412 l 69 412 "},"⅜":{"x_min":41,"x_max":1094,"ha":1158,"o":"m 334 0 l 233 0 l 831 956 l 930 956 l 334 0 m 984 427 q 979 462 984 446 q 965 490 975 479 q 937 508 955 502 q 891 515 919 515 q 847 508 865 515 q 819 490 829 502 q 804 462 808 479 q 800 427 800 446 q 803 396 800 412 q 815 367 806 380 q 843 345 825 353 q 892 337 862 337 q 942 345 924 337 q 970 367 961 353 q 981 396 979 380 q 984 427 984 412 m 998 170 q 993 207 998 189 q 977 238 989 224 q 944 259 965 251 q 890 268 924 268 q 840 259 860 268 q 808 237 820 251 q 791 206 796 224 q 786 169 786 188 q 791 125 786 145 q 808 91 796 105 q 841 69 820 77 q 893 62 861 62 q 944 69 924 62 q 977 91 965 77 q 993 126 988 105 q 998 170 998 146 m 1094 161 q 1082 93 1094 124 q 1045 40 1070 62 q 982 5 1020 18 q 892 -7 944 -7 q 802 5 840 -7 q 738 40 763 18 q 701 93 713 62 q 690 160 690 123 q 699 216 690 191 q 725 258 709 240 q 762 286 741 275 q 804 300 783 297 l 804 302 q 761 320 780 308 q 730 351 743 333 q 710 390 717 368 q 704 435 704 412 q 715 493 704 466 q 751 539 727 519 q 810 571 775 559 q 891 583 845 583 q 975 571 940 583 q 1034 538 1011 559 q 1068 491 1057 518 q 1080 435 1080 464 q 1073 390 1080 411 q 1053 351 1066 368 q 1021 320 1040 333 q 978 303 1002 308 l 978 301 q 1024 286 1002 297 q 1060 258 1045 276 q 1085 216 1076 241 q 1094 161 1094 192 m 459 539 q 406 417 459 460 q 257 374 353 374 q 158 387 198 374 q 94 422 119 400 q 57 471 69 443 q 41 527 45 498 l 133 536 q 169 468 139 491 q 257 445 199 445 q 337 469 309 445 q 366 545 366 493 q 353 593 366 575 q 321 622 340 612 q 279 634 302 631 q 237 638 257 638 l 196 638 l 196 712 l 234 712 q 275 716 254 712 q 313 731 296 720 q 341 759 330 741 q 352 804 352 777 q 326 868 352 845 q 253 892 301 892 q 178 868 207 892 q 146 800 150 844 l 54 808 q 75 877 58 848 q 119 925 92 906 q 181 954 146 945 q 255 964 215 964 q 338 952 302 964 q 397 921 373 941 q 433 874 421 901 q 445 816 445 848 q 415 728 445 766 q 325 678 386 691 l 325 676 q 386 660 360 673 q 427 629 411 648 q 451 588 444 611 q 459 539 459 564 "},"╫":{"x_min":-6.78125,"x_max":990.796875,"ha":984,"o":"m 565 1264 l 663 1264 l 663 471 l 990 471 l 990 373 l 663 373 l 663 -421 l 565 -421 l 565 373 l 419 373 l 419 -421 l 321 -421 l 321 373 l -6 373 l -6 471 l 321 471 l 321 1264 l 419 1264 l 419 471 l 565 471 l 565 1264 "},"ā":{"x_min":59,"x_max":773,"ha":773,"o":"m 280 -14 q 114 44 170 -14 q 59 204 59 102 q 86 323 59 276 q 158 396 113 369 q 259 432 202 422 q 376 444 316 442 l 541 447 l 541 487 q 531 564 541 532 q 502 615 522 596 q 453 644 482 635 q 383 654 423 654 q 320 648 348 654 q 270 630 291 643 q 236 594 249 617 q 220 537 224 571 l 92 548 q 117 628 98 592 q 171 691 136 664 q 259 732 206 717 q 386 747 311 747 q 594 683 524 747 q 664 500 664 620 l 664 184 q 678 102 664 129 q 732 75 692 75 q 753 76 743 75 q 773 79 763 77 l 773 3 q 727 -4 749 -1 q 678 -7 704 -7 q 619 2 644 -7 q 578 30 594 11 q 555 76 563 48 q 545 140 547 103 l 541 140 q 497 76 521 105 q 443 27 474 47 q 372 -3 412 7 q 280 -14 332 -14 m 308 78 q 410 99 366 78 q 483 153 454 120 q 526 226 512 187 q 541 301 541 265 l 541 362 l 407 359 q 321 352 362 358 q 250 330 281 347 q 202 282 220 313 q 184 202 184 252 q 216 110 184 143 q 308 78 248 78 m 566 838 l 194 838 l 194 924 l 566 924 l 566 838 "},"ĵ":{"x_min":-70,"x_max":379,"ha":309,"o":"m 52 -288 q 7 -286 29 -288 q -34 -281 -15 -285 l -34 -187 q -12 -190 -25 -189 q 8 -192 0 -192 q 50 -185 33 -192 q 76 -163 67 -178 q 89 -126 86 -149 q 93 -72 93 -103 l 93 734 l 215 734 l 215 -90 q 207 -168 215 -132 q 182 -231 200 -204 q 132 -272 164 -257 q 52 -288 101 -288 m 379 828 l 379 815 l 307 815 l 159 930 l 157 930 l 0 815 l -70 815 l -70 828 l 88 1012 l 227 1012 l 379 828 "},"Ĩ":{"x_min":-48,"x_max":438,"ha":386,"o":"m 128 0 l 128 956 l 258 956 l 258 0 l 128 0 m 301 1038 q 244 1050 272 1038 q 189 1078 215 1063 q 138 1106 162 1093 q 93 1119 114 1119 q 38 1097 56 1119 q 13 1038 19 1076 l -48 1038 q -37 1100 -44 1068 q -15 1159 -31 1133 q 24 1203 0 1186 q 89 1220 49 1220 q 147 1207 119 1220 q 202 1179 176 1194 q 252 1151 229 1164 q 296 1139 276 1139 q 351 1160 332 1139 q 375 1220 370 1181 l 438 1220 q 427 1157 434 1190 q 406 1099 421 1125 q 366 1055 391 1072 q 301 1038 341 1038 "},"←":{"x_min":284,"x_max":1106,"ha":1389,"o":"m 435 374 q 474 317 454 350 q 516 240 494 284 l 467 240 q 383 324 427 286 q 284 390 339 362 l 284 415 q 383 481 339 443 q 467 565 427 519 l 516 565 q 474 488 494 521 q 435 432 454 455 l 1106 432 l 1106 374 l 435 374 "},"*":{"x_min":23,"x_max":519,"ha":541,"o":"m 309 755 l 488 825 l 519 736 l 327 686 l 453 516 l 372 468 l 270 643 l 164 469 l 84 518 l 212 686 l 23 736 l 53 827 l 234 754 l 226 956 l 318 956 l 309 755 "},"ă":{"x_min":59,"x_max":773,"ha":773,"o":"m 280 -14 q 114 44 170 -14 q 59 204 59 102 q 86 323 59 276 q 158 396 113 369 q 259 432 202 422 q 376 444 316 442 l 541 447 l 541 487 q 531 564 541 532 q 502 615 522 596 q 453 644 482 635 q 383 654 423 654 q 320 648 348 654 q 270 630 291 643 q 236 594 249 617 q 220 537 224 571 l 92 548 q 117 628 98 592 q 171 691 136 664 q 259 732 206 717 q 386 747 311 747 q 594 683 524 747 q 664 500 664 620 l 664 184 q 678 102 664 129 q 732 75 692 75 q 753 76 743 75 q 773 79 763 77 l 773 3 q 727 -4 749 -1 q 678 -7 704 -7 q 619 2 644 -7 q 578 30 594 11 q 555 76 563 48 q 545 140 547 103 l 541 140 q 497 76 521 105 q 443 27 474 47 q 372 -3 412 7 q 280 -14 332 -14 m 308 78 q 410 99 366 78 q 483 153 454 120 q 526 226 512 187 q 541 301 541 265 l 541 362 l 407 359 q 321 352 362 358 q 250 330 281 347 q 202 282 220 313 q 184 202 184 252 q 216 110 184 143 q 308 78 248 78 m 380 815 q 290 832 330 815 q 222 878 251 849 q 177 945 194 907 q 155 1025 160 983 l 234 1025 q 253 975 239 995 q 285 943 266 955 q 328 926 304 931 q 381 921 353 921 q 434 926 410 921 q 477 944 458 931 q 509 976 496 956 q 527 1025 522 996 l 607 1025 q 583 945 600 983 q 538 878 566 907 q 471 832 510 849 q 380 815 431 815 "},"Χ":{"x_min":30.75,"x_max":897.25,"ha":926,"o":"m 754 0 l 467 417 l 173 0 l 30 0 l 394 496 l 59 956 l 202 956 l 467 580 l 725 956 l 869 956 l 542 501 l 897 0 l 754 0 "},"†":{"x_min":93,"x_max":679,"ha":773,"o":"m 440 678 l 425 -94 l 346 -94 l 332 678 l 93 660 l 93 771 l 332 751 l 313 1006 l 459 1006 l 440 751 l 679 771 l 679 660 l 440 678 "},"°":{"x_min":83,"x_max":472,"ha":555,"o":"m 472 776 q 456 701 472 736 q 415 639 441 665 q 353 598 388 613 q 277 583 317 583 q 202 598 237 583 q 140 639 167 613 q 98 701 114 665 q 83 776 83 736 q 98 852 83 817 q 140 913 114 887 q 202 955 167 940 q 277 970 237 970 q 353 955 317 970 q 415 913 388 940 q 456 852 441 887 q 472 776 472 817 m 398 776 q 388 824 398 801 q 363 863 379 846 q 325 889 347 879 q 277 899 303 899 q 230 889 252 899 q 192 863 208 879 q 166 824 175 846 q 157 776 157 801 q 166 729 157 751 q 192 690 175 707 q 230 663 208 673 q 277 654 252 654 q 325 663 303 654 q 363 690 347 673 q 388 729 379 707 q 398 776 398 751 "},"↨":{"x_min":184.390625,"x_max":509.625,"ha":695,"o":"m 184 -70 l 509 -70 l 509 -124 l 184 -124 l 184 -70 m 318 629 q 261 590 294 610 q 184 549 228 570 l 184 597 q 268 681 230 637 q 334 781 306 725 l 359 781 q 425 681 387 725 q 509 597 463 637 l 509 549 q 432 590 465 570 q 376 629 399 610 l 376 110 q 432 149 399 129 q 509 191 465 169 l 509 142 q 425 58 463 102 q 359 -41 387 14 l 334 -41 q 268 58 306 14 q 184 142 230 102 l 184 191 q 261 149 228 169 q 318 110 294 129 l 318 629 "},"Ξ":{"x_min":61,"x_max":842,"ha":903,"o":"m 84 956 l 818 956 l 818 850 l 84 850 l 84 956 m 842 106 l 842 0 l 61 0 l 61 106 l 842 106 m 736 544 l 736 440 l 166 440 l 166 544 l 736 544 "},"Ķ":{"x_min":114,"x_max":910.25,"ha":926,"o":"m 749 0 l 368 461 l 244 366 l 244 0 l 114 0 l 114 956 l 244 956 l 244 476 l 703 956 l 856 956 l 449 540 l 910 0 l 749 0 m 546 -130 q 531 -225 546 -189 q 489 -294 516 -262 l 409 -294 q 456 -232 440 -261 q 473 -172 473 -203 l 414 -172 l 414 -66 l 546 -66 l 546 -130 "},"ŵ":{"x_min":-2.25,"x_max":1006.25,"ha":1003,"o":"m 796 0 l 654 0 l 536 473 q 525 518 531 491 q 514 571 519 546 q 501 633 507 601 q 488 573 495 603 q 476 519 483 547 q 464 470 470 491 l 344 0 l 203 0 l -2 734 l 118 734 l 242 235 q 252 197 247 219 q 261 152 257 174 q 272 101 266 127 q 283 151 277 126 q 294 194 288 172 q 303 229 299 215 l 436 734 l 567 734 l 695 229 q 705 189 700 212 q 716 147 711 167 q 727 101 721 124 q 737 151 732 126 q 747 195 742 172 q 757 235 752 217 l 886 734 l 1006 734 l 796 0 m 723 828 l 723 815 l 651 815 l 503 930 l 501 930 l 344 815 l 274 815 l 274 828 l 432 1012 l 571 1012 l 723 828 "},"΄":{"x_min":139,"x_max":326,"ha":463,"o":"m 139 826 l 139 848 l 185 1046 l 326 1046 l 326 1020 l 189 826 l 139 826 "},"ǽ":{"x_min":45,"x_max":1173,"ha":1235,"o":"m 656 341 l 656 329 q 668 227 656 273 q 703 148 679 181 q 764 96 727 115 q 854 78 801 78 q 981 109 933 78 q 1046 190 1029 141 l 1153 159 q 1120 98 1141 129 q 1065 42 1100 67 q 979 1 1031 17 q 854 -14 927 -14 q 567 160 636 -14 q 522 94 547 126 q 463 38 497 62 q 382 0 428 14 q 272 -14 335 -14 q 102 44 159 -14 q 45 204 45 102 q 57 289 45 252 q 93 352 70 325 q 147 395 116 378 q 214 423 177 413 q 290 439 250 434 q 370 444 329 443 l 533 447 l 533 487 q 524 564 533 532 q 496 615 515 596 q 447 644 476 635 q 376 654 417 654 q 310 648 339 654 q 258 630 280 643 q 223 594 237 617 q 206 537 210 571 l 78 548 q 104 628 84 592 q 159 691 124 664 q 248 732 195 717 q 378 747 302 747 q 523 723 465 747 q 614 652 581 699 q 717 725 657 703 q 849 747 777 747 q 1003 717 941 747 q 1103 634 1065 687 q 1157 511 1141 582 q 1173 357 1173 439 l 1173 341 l 656 341 m 533 362 l 400 359 q 346 356 373 358 q 292 348 318 354 q 244 331 267 342 q 205 304 222 321 q 179 262 189 286 q 170 202 170 237 q 203 110 170 143 q 300 78 237 78 q 405 99 362 78 q 477 153 449 120 q 519 226 505 187 q 533 301 533 265 l 533 362 m 1047 435 q 987 603 1036 550 q 847 657 939 657 q 784 647 816 657 q 724 612 751 637 q 678 544 696 587 q 657 435 660 501 l 1047 435 m 515 815 l 515 828 l 662 1023 l 803 1023 l 803 1003 l 578 815 l 515 815 "},"Β":{"x_min":114,"x_max":853,"ha":926,"o":"m 853 269 q 824 145 853 196 q 747 62 796 94 q 636 14 699 29 q 501 0 572 0 l 114 0 l 114 956 l 460 956 q 602 942 540 956 q 708 901 664 929 q 774 828 751 872 q 797 724 797 785 q 785 648 797 684 q 751 584 774 613 q 695 535 729 556 q 615 504 660 514 q 717 478 673 497 q 791 427 762 458 q 837 356 821 397 q 853 269 853 316 m 667 708 q 614 818 667 785 q 461 852 561 852 l 244 852 l 244 550 l 461 550 q 557 561 518 550 q 620 593 596 572 q 656 642 645 613 q 667 708 667 671 m 722 279 q 705 357 722 325 q 657 409 688 389 q 582 439 626 429 q 485 449 539 449 l 244 449 l 244 104 l 495 104 q 586 112 544 104 q 658 140 627 120 q 705 195 688 161 q 722 279 722 228 "},"Ļ":{"x_min":114,"x_max":726,"ha":773,"o":"m 114 0 l 114 956 l 244 956 l 244 106 l 726 106 l 726 0 l 114 0 m 486 -130 q 471 -225 486 -189 q 429 -294 456 -262 l 349 -294 q 396 -232 380 -261 q 413 -172 413 -203 l 354 -172 l 354 -66 l 486 -66 l 486 -130 "},"Õ":{"x_min":66,"x_max":1013,"ha":1080,"o":"m 1013 482 q 980 278 1013 370 q 887 121 948 186 q 738 21 826 56 q 538 -14 650 -14 q 332 22 420 -14 q 184 126 243 59 q 95 283 125 192 q 66 482 66 374 q 97 684 66 594 q 188 838 128 774 q 337 935 248 901 q 540 970 425 970 q 742 935 653 970 q 890 836 830 900 q 981 682 950 773 q 1013 482 1013 592 m 881 481 q 859 638 881 568 q 794 759 837 709 q 687 836 751 809 q 540 864 623 864 q 390 836 455 864 q 283 759 326 809 q 219 638 240 709 q 198 481 198 568 q 220 324 198 395 q 284 200 242 252 q 391 119 327 148 q 539 91 455 91 q 693 120 628 91 q 799 201 757 149 q 861 325 841 253 q 881 481 881 397 m 638 1038 q 581 1050 609 1038 q 526 1078 552 1063 q 475 1106 499 1093 q 430 1119 451 1119 q 375 1097 393 1119 q 350 1038 356 1076 l 289 1038 q 299 1100 292 1068 q 321 1159 305 1133 q 361 1203 336 1186 q 426 1220 386 1220 q 484 1207 456 1220 q 539 1179 513 1194 q 589 1151 566 1164 q 633 1139 613 1139 q 688 1160 669 1139 q 712 1220 707 1181 l 775 1220 q 764 1157 771 1190 q 743 1099 758 1125 q 703 1055 728 1072 q 638 1038 678 1038 "},"╠":{"x_min":321,"x_max":990.796875,"ha":984,"o":"m 419 -421 l 321 -421 l 321 1264 l 419 1264 l 419 -421 m 565 349 l 990 349 l 990 251 l 663 251 l 663 -421 l 565 -421 l 565 349 m 565 1264 l 663 1264 l 663 593 l 990 593 l 990 495 l 565 495 l 565 1264 "},"═":{"x_min":-6.78125,"x_max":990.796875,"ha":984,"o":"m -6 495 l -6 593 l 990 593 l 990 495 l -6 495 m -6 251 l -6 349 l 990 349 l 990 251 l -6 251 "},"№":{"x_min":128,"x_max":1420,"ha":1490,"o":"m 720 0 l 232 807 q 234 747 233 777 q 236 691 235 721 q 237 635 237 661 l 237 0 l 128 0 l 128 956 l 265 956 l 758 143 q 755 201 757 170 q 753 261 754 227 q 753 329 753 294 l 753 956 l 863 956 l 863 0 l 720 0 m 1420 467 q 1360 271 1420 340 q 1181 203 1300 203 q 1008 271 1068 203 q 948 467 948 339 q 962 578 948 529 q 1006 661 977 627 q 1080 714 1036 696 q 1184 732 1125 732 q 1292 714 1247 732 q 1365 662 1336 696 q 1406 579 1393 628 q 1420 467 1420 530 m 1312 467 q 1303 558 1312 522 q 1279 616 1295 595 q 1240 647 1263 638 q 1186 656 1217 656 q 1131 646 1155 656 q 1091 616 1107 637 q 1066 558 1074 594 q 1058 467 1058 521 q 1066 375 1058 412 q 1091 317 1075 339 q 1130 287 1108 296 q 1181 279 1153 279 q 1236 287 1212 279 q 1278 317 1261 296 q 1303 375 1295 339 q 1312 467 1312 412 m 975 0 l 975 99 l 1406 99 l 1406 0 l 975 0 "},"χ":{"x_min":13.75,"x_max":713.25,"ha":729,"o":"m 367 161 l 141 -288 l 13 -288 l 312 271 l 197 504 q 163 568 178 541 q 135 615 148 596 q 107 643 121 634 q 76 653 93 653 q 57 650 68 653 q 42 646 46 648 l 19 735 q 56 745 35 741 q 99 749 77 749 q 155 739 131 749 q 199 709 179 730 q 240 653 220 688 q 284 568 260 619 l 381 368 l 560 734 l 687 734 l 437 261 l 713 -288 l 584 -288 l 367 161 "},"ί":{"x_min":93,"x_max":295,"ha":309,"o":"m 135 0 q 116 28 124 10 q 103 68 108 46 q 95 113 98 90 q 93 160 93 137 l 93 734 l 215 734 l 215 153 q 218 110 215 132 q 229 68 222 88 q 246 30 236 48 q 269 0 257 12 l 135 0 m 108 826 l 108 848 l 154 1046 l 295 1046 l 295 1020 l 158 826 l 108 826 "},"Ζ":{"x_min":44,"x_max":804.875,"ha":848,"o":"m 804 0 l 44 0 l 44 97 l 625 850 l 93 850 l 93 956 l 773 956 l 773 861 l 191 106 l 804 106 l 804 0 "},"Ľ":{"x_min":114,"x_max":726,"ha":773,"o":"m 114 0 l 114 956 l 244 956 l 244 106 l 726 106 l 726 0 l 114 0 m 582 884 q 567 785 582 825 q 525 714 552 745 l 445 714 q 492 779 476 746 q 509 843 509 811 l 450 843 l 450 956 l 582 956 l 582 884 "},"ť":{"x_min":21.234375,"x_max":533,"ha":521,"o":"m 376 5 q 319 -6 348 -2 q 252 -11 290 -11 q 106 155 106 -11 l 106 645 l 21 645 l 21 734 l 110 734 l 146 898 l 228 898 l 228 734 l 363 734 l 363 645 l 228 645 l 228 181 q 245 107 228 128 q 305 86 262 86 q 339 88 323 86 q 376 95 356 91 l 376 5 m 533 935 q 518 836 533 876 q 476 765 503 796 l 396 765 q 443 830 427 797 q 460 894 460 862 l 401 894 l 401 1007 l 533 1007 l 533 935 "},"5":{"x_min":56,"x_max":715,"ha":773,"o":"m 715 311 q 693 179 715 239 q 628 76 671 119 q 522 9 586 33 q 375 -14 459 -14 q 244 3 300 -14 q 149 52 188 21 q 88 124 110 82 q 56 213 65 165 l 179 227 q 200 175 186 200 q 237 129 213 149 q 294 97 260 109 q 378 86 329 86 q 464 100 425 86 q 530 143 503 115 q 573 213 558 172 q 588 308 588 254 q 573 389 588 352 q 533 453 559 426 q 468 495 506 480 q 381 510 430 510 q 324 504 350 510 q 277 489 299 499 q 237 467 255 480 q 203 441 219 455 l 84 441 l 115 956 l 659 956 l 659 852 l 227 852 l 209 548 q 290 592 241 574 q 406 610 339 610 q 534 588 477 610 q 631 526 591 566 q 693 432 671 487 q 715 311 715 377 "},"o":{"x_min":58,"x_max":714,"ha":773,"o":"m 714 367 q 629 80 714 174 q 382 -14 544 -14 q 245 9 306 -14 q 143 79 185 32 q 80 198 102 127 q 58 367 58 270 q 387 747 58 747 q 534 723 472 747 q 636 652 596 699 q 695 533 676 604 q 714 367 714 462 m 586 367 q 572 508 586 452 q 534 597 559 564 q 471 643 508 630 q 389 657 435 657 q 304 643 342 657 q 240 595 266 629 q 199 506 213 561 q 186 367 186 450 q 200 225 186 281 q 242 136 215 169 q 303 89 268 103 q 381 76 339 76 q 466 89 428 76 q 530 135 504 102 q 571 225 557 168 q 586 367 586 281 "},"Ѕ":{"x_min":63,"x_max":862,"ha":926,"o":"m 862 263 q 838 152 862 203 q 766 64 815 101 q 643 6 717 27 q 467 -14 569 -14 q 189 48 289 -14 q 63 228 90 110 l 188 253 q 217 186 197 216 q 270 133 236 155 q 353 99 303 111 q 472 87 403 87 q 578 96 529 87 q 660 127 626 106 q 714 179 695 147 q 734 256 734 211 q 712 332 734 303 q 652 380 691 361 q 560 412 614 399 q 442 440 507 425 q 361 460 402 449 q 284 485 321 470 q 215 519 247 499 q 158 566 182 539 q 121 630 135 594 q 108 714 108 666 q 135 830 108 782 q 211 910 162 879 q 326 955 260 941 q 470 970 393 970 q 622 956 559 970 q 728 914 685 942 q 798 845 772 886 q 840 750 824 804 l 712 727 q 684 789 702 762 q 637 834 666 816 q 566 862 608 853 q 468 872 525 872 q 357 860 402 872 q 285 827 312 848 q 245 780 257 807 q 234 720 234 752 q 255 650 234 678 q 313 604 276 623 q 397 574 349 586 q 500 549 446 562 q 587 529 544 539 q 671 504 631 518 q 746 469 711 489 q 807 421 781 450 q 847 354 832 393 q 862 263 862 315 "}}}
